<?xml version="1.0" encoding="UTF-8" standalone="no"?>
<!DOCTYPE svg PUBLIC "-//W3C//DTD SVG 1.1//EN"
 "http://www.w3.org/Graphics/SVG/1.1/DTD/svg11.dtd">
<!-- Generated by graphviz version 2.43.0 (0)
 -->
<!-- Title: System/include/BipedalLocomotion/System/Advanceable.h Pages: 1 -->
<svg width="2874pt" height="340pt"
 viewBox="0.00 0.00 2873.50 340.00" xmlns="http://www.w3.org/2000/svg" xmlns:xlink="http://www.w3.org/1999/xlink">
<g id="graph0" class="graph" transform="scale(1 1) rotate(0) translate(4 336)">
<title>System/include/BipedalLocomotion/System/Advanceable.h</title>
<!-- Node1 -->
<g id="node1" class="node">
<title>Node1</title>
<g id="a_node1"><a xlink:title=" ">
<polygon fill="#bfbfbf" stroke="black" points="578.5,-301.5 578.5,-331.5 766.5,-331.5 766.5,-301.5 578.5,-301.5"/>
<text text-anchor="start" x="586.5" y="-319.5" font-family="Helvetica,sans-Serif" font-size="10.00">System/include/BipedalLocomotion</text>
<text text-anchor="middle" x="672.5" y="-308.5" font-family="Helvetica,sans-Serif" font-size="10.00">/System/Advanceable.h</text>
</a>
</g>
</g>
<!-- Node2 -->
<g id="node2" class="node">
<title>Node2</title>
<g id="a_node2"><a xlink:href="QPInverseKinematics_8h.html" target="_top" xlink:title=" ">
<polygon fill="none" stroke="black" points="5,-78.5 5,-108.5 166,-108.5 166,-78.5 5,-78.5"/>
<text text-anchor="start" x="13" y="-96.5" font-family="Helvetica,sans-Serif" font-size="10.00">IK/include/BipedalLocomotion</text>
<text text-anchor="middle" x="85.5" y="-85.5" font-family="Helvetica,sans-Serif" font-size="10.00">/IK/QPInverseKinematics.h</text>
</a>
</g>
</g>
<!-- Node1&#45;&gt;Node2 -->
<g id="edge1" class="edge">
<title>Node1&#45;&gt;Node2</title>
<path fill="none" stroke="midnightblue" d="M568.21,-312.07C459.24,-304.03 287.23,-278.35 163.5,-198 128.59,-175.33 103.4,-131.37 92.12,-108.74"/>
<polygon fill="midnightblue" stroke="midnightblue" points="568.01,-315.57 578.23,-312.78 568.5,-308.58 568.01,-315.57"/>
</g>
<!-- Node4 -->
<g id="node4" class="node">
<title>Node4</title>
<g id="a_node4"><a xlink:href="AdvanceableRunner_8h.html" target="_top" xlink:title=" ">
<polygon fill="none" stroke="black" points="475.5,-234.5 475.5,-264.5 663.5,-264.5 663.5,-234.5 475.5,-234.5"/>
<text text-anchor="start" x="483.5" y="-252.5" font-family="Helvetica,sans-Serif" font-size="10.00">System/include/BipedalLocomotion</text>
<text text-anchor="middle" x="569.5" y="-241.5" font-family="Helvetica,sans-Serif" font-size="10.00">/System/AdvanceableRunner.h</text>
</a>
</g>
</g>
<!-- Node1&#45;&gt;Node4 -->
<g id="edge3" class="edge">
<title>Node1&#45;&gt;Node4</title>
<path fill="none" stroke="midnightblue" d="M641.62,-296.02C625.6,-285.9 606.37,-273.77 591.81,-264.58"/>
<polygon fill="midnightblue" stroke="midnightblue" points="639.83,-299.02 650.15,-301.4 643.56,-293.1 639.83,-299.02"/>
</g>
<!-- Node5 -->
<g id="node5" class="node">
<title>Node5</title>
<g id="a_node5"><a xlink:href="Sink_8h.html" target="_top" xlink:title=" ">
<polygon fill="none" stroke="black" points="681.5,-234.5 681.5,-264.5 869.5,-264.5 869.5,-234.5 681.5,-234.5"/>
<text text-anchor="start" x="689.5" y="-252.5" font-family="Helvetica,sans-Serif" font-size="10.00">System/include/BipedalLocomotion</text>
<text text-anchor="middle" x="775.5" y="-241.5" font-family="Helvetica,sans-Serif" font-size="10.00">/System/Sink.h</text>
</a>
</g>
</g>
<!-- Node1&#45;&gt;Node5 -->
<g id="edge4" class="edge">
<title>Node1&#45;&gt;Node5</title>
<path fill="none" stroke="midnightblue" d="M703.38,-296.02C719.4,-285.9 738.63,-273.77 753.19,-264.58"/>
<polygon fill="midnightblue" stroke="midnightblue" points="701.44,-293.1 694.85,-301.4 705.17,-299.02 701.44,-293.1"/>
</g>
<!-- Node6 -->
<g id="node6" class="node">
<title>Node6</title>
<g id="a_node6"><a xlink:href="Source_8h.html" target="_top" xlink:title=" ">
<polygon fill="none" stroke="black" points="1388.5,-234.5 1388.5,-264.5 1576.5,-264.5 1576.5,-234.5 1388.5,-234.5"/>
<text text-anchor="start" x="1396.5" y="-252.5" font-family="Helvetica,sans-Serif" font-size="10.00">System/include/BipedalLocomotion</text>
<text text-anchor="middle" x="1482.5" y="-241.5" font-family="Helvetica,sans-Serif" font-size="10.00">/System/Source.h</text>
</a>
</g>
</g>
<!-- Node1&#45;&gt;Node6 -->
<g id="edge5" class="edge">
<title>Node1&#45;&gt;Node6</title>
<path fill="none" stroke="midnightblue" d="M776.86,-307.13C935.77,-294.37 1235.99,-270.28 1388.49,-258.04"/>
<polygon fill="midnightblue" stroke="midnightblue" points="776.29,-303.66 766.61,-307.95 776.85,-310.64 776.29,-303.66"/>
</g>
<!-- Node3 -->
<g id="node3" class="node">
<title>Node3</title>
<g id="a_node3"><a xlink:href="QPInverseKinematics_8cpp.html" target="_top" xlink:title=" ">
<polygon fill="none" stroke="black" points="0,-6 0,-25 171,-25 171,-6 0,-6"/>
<text text-anchor="middle" x="85.5" y="-13" font-family="Helvetica,sans-Serif" font-size="10.00">IK/src/QPInverseKinematics.cpp</text>
</a>
</g>
</g>
<!-- Node2&#45;&gt;Node3 -->
<g id="edge2" class="edge">
<title>Node2&#45;&gt;Node3</title>
<path fill="none" stroke="midnightblue" d="M85.5,-68.17C85.5,-53.4 85.5,-35.45 85.5,-25.06"/>
<polygon fill="midnightblue" stroke="midnightblue" points="82,-68.2 85.5,-78.2 89,-68.21 82,-68.2"/>
</g>
<!-- Node7 -->
<g id="node7" class="node">
<title>Node7</title>
<g id="a_node7"><a xlink:href="ContactDetector_8h.html" target="_top" xlink:title=" ">
<polygon fill="none" stroke="black" points="372,-156.5 372,-197.5 533,-197.5 533,-156.5 372,-156.5"/>
<text text-anchor="start" x="380" y="-185.5" font-family="Helvetica,sans-Serif" font-size="10.00">Contacts/include/Bipedal</text>
<text text-anchor="start" x="380" y="-174.5" font-family="Helvetica,sans-Serif" font-size="10.00">Locomotion/ContactDetectors</text>
<text text-anchor="middle" x="452.5" y="-163.5" font-family="Helvetica,sans-Serif" font-size="10.00">/ContactDetector.h</text>
</a>
</g>
</g>
<!-- Node6&#45;&gt;Node7 -->
<g id="edge6" class="edge">
<title>Node6&#45;&gt;Node7</title>
<path fill="none" stroke="midnightblue" d="M1377.8,-244.23C1216.18,-237.21 896.28,-221.61 625.5,-198 595.38,-195.37 562.39,-191.75 533.38,-188.3"/>
<polygon fill="midnightblue" stroke="midnightblue" points="1378.07,-247.75 1388.22,-244.68 1378.38,-240.75 1378.07,-247.75"/>
</g>
<!-- Node11 -->
<g id="node11" class="node">
<title>Node11</title>
<g id="a_node11"><a xlink:href="RecursiveLeastSquare_8h.html" target="_top" xlink:title=" ">
<polygon fill="none" stroke="black" points="635,-156.5 635,-197.5 804,-197.5 804,-156.5 635,-156.5"/>
<text text-anchor="start" x="643" y="-185.5" font-family="Helvetica,sans-Serif" font-size="10.00">Estimators/include</text>
<text text-anchor="start" x="643" y="-174.5" font-family="Helvetica,sans-Serif" font-size="10.00">/BipedalLocomotion/Estimators</text>
<text text-anchor="middle" x="719.5" y="-163.5" font-family="Helvetica,sans-Serif" font-size="10.00">/RecursiveLeastSquare.h</text>
</a>
</g>
</g>
<!-- Node6&#45;&gt;Node11 -->
<g id="edge10" class="edge">
<title>Node6&#45;&gt;Node11</title>
<path fill="none" stroke="midnightblue" d="M1377.86,-238.83C1225.29,-224.73 944.68,-198.81 804.24,-185.83"/>
<polygon fill="midnightblue" stroke="midnightblue" points="1377.9,-242.35 1388.18,-239.78 1378.54,-235.38 1377.9,-242.35"/>
</g>
<!-- Node13 -->
<g id="node13" class="node">
<title>Node13</title>
<g id="a_node13"><a xlink:href="FloatingBaseEstimator_8h.html" target="_top" xlink:title=" ">
<polygon fill="none" stroke="black" points="985,-156.5 985,-197.5 1200,-197.5 1200,-156.5 985,-156.5"/>
<text text-anchor="start" x="993" y="-185.5" font-family="Helvetica,sans-Serif" font-size="10.00">Estimators/include</text>
<text text-anchor="start" x="993" y="-174.5" font-family="Helvetica,sans-Serif" font-size="10.00">/BipedalLocomotion/Floating</text>
<text text-anchor="middle" x="1092.5" y="-163.5" font-family="Helvetica,sans-Serif" font-size="10.00">BaseEstimators/FloatingBaseEstimator.h</text>
</a>
</g>
</g>
<!-- Node6&#45;&gt;Node13 -->
<g id="edge12" class="edge">
<title>Node6&#45;&gt;Node13</title>
<path fill="none" stroke="midnightblue" d="M1394.81,-232.65C1337.19,-222.23 1261.41,-208.53 1200.14,-197.46"/>
<polygon fill="midnightblue" stroke="midnightblue" points="1394.52,-236.15 1404.98,-234.49 1395.76,-229.26 1394.52,-236.15"/>
</g>
<!-- Node19 -->
<g id="node19" class="node">
<title>Node19</title>
<g id="a_node19"><a xlink:href="IntegrationBasedIK_8h.html" target="_top" xlink:title=" ">
<polygon fill="none" stroke="black" points="173,-162 173,-192 334,-192 334,-162 173,-162"/>
<text text-anchor="start" x="181" y="-180" font-family="Helvetica,sans-Serif" font-size="10.00">IK/include/BipedalLocomotion</text>
<text text-anchor="middle" x="253.5" y="-169" font-family="Helvetica,sans-Serif" font-size="10.00">/IK/IntegrationBasedIK.h</text>
</a>
</g>
</g>
<!-- Node6&#45;&gt;Node19 -->
<g id="edge18" class="edge">
<title>Node6&#45;&gt;Node19</title>
<path fill="none" stroke="midnightblue" d="M1378.25,-245.62C1139.24,-238.72 557.33,-220.16 362.5,-198 349.31,-196.5 335.31,-194.36 321.9,-192.02"/>
<polygon fill="midnightblue" stroke="midnightblue" points="1378.24,-249.12 1388.34,-245.91 1378.44,-242.12 1378.24,-249.12"/>
</g>
<!-- Node20 -->
<g id="node20" class="node">
<title>Node20</title>
<g id="a_node20"><a xlink:href="ArucoDetector_8h.html" target="_top" xlink:title=" ">
<polygon fill="none" stroke="black" points="1299.5,-156.5 1299.5,-197.5 1467.5,-197.5 1467.5,-156.5 1299.5,-156.5"/>
<text text-anchor="start" x="1307.5" y="-185.5" font-family="Helvetica,sans-Serif" font-size="10.00">Perception/include</text>
<text text-anchor="start" x="1307.5" y="-174.5" font-family="Helvetica,sans-Serif" font-size="10.00">/BipedalLocomotion/Perception</text>
<text text-anchor="middle" x="1383.5" y="-163.5" font-family="Helvetica,sans-Serif" font-size="10.00">/Features/ArucoDetector.h</text>
</a>
</g>
</g>
<!-- Node6&#45;&gt;Node20 -->
<g id="edge20" class="edge">
<title>Node6&#45;&gt;Node20</title>
<path fill="none" stroke="midnightblue" d="M1454.01,-228.21C1440.49,-218.58 1424.4,-207.12 1411.01,-197.59"/>
<polygon fill="midnightblue" stroke="midnightblue" points="1452.29,-231.28 1462.47,-234.23 1456.35,-225.58 1452.29,-231.28"/>
</g>
<!-- Node22 -->
<g id="node22" class="node">
<title>Node22</title>
<g id="a_node22"><a xlink:href="DCMPlanner_8h.html" target="_top" xlink:title=" ">
<polygon fill="none" stroke="black" points="1486.5,-162 1486.5,-192 1676.5,-192 1676.5,-162 1486.5,-162"/>
<text text-anchor="start" x="1494.5" y="-180" font-family="Helvetica,sans-Serif" font-size="10.00">Planners/include/Bipedal</text>
<text text-anchor="middle" x="1581.5" y="-169" font-family="Helvetica,sans-Serif" font-size="10.00">Locomotion/Planners/DCMPlanner.h</text>
</a>
</g>
</g>
<!-- Node6&#45;&gt;Node22 -->
<g id="edge22" class="edge">
<title>Node6&#45;&gt;Node22</title>
<path fill="none" stroke="midnightblue" d="M1510.68,-228.43C1527.03,-216.79 1547.2,-202.42 1561.83,-192"/>
<polygon fill="midnightblue" stroke="midnightblue" points="1508.65,-225.58 1502.53,-234.23 1512.71,-231.28 1508.65,-225.58"/>
</g>
<!-- Node26 -->
<g id="node26" class="node">
<title>Node26</title>
<g id="a_node26"><a xlink:href="QuinticSpline_8h.html" target="_top" xlink:title=" ">
<polygon fill="none" stroke="black" points="1792,-162 1792,-192 1987,-192 1987,-162 1792,-162"/>
<text text-anchor="start" x="1800" y="-180" font-family="Helvetica,sans-Serif" font-size="10.00">Planners/include/Bipedal</text>
<text text-anchor="middle" x="1889.5" y="-169" font-family="Helvetica,sans-Serif" font-size="10.00">Locomotion/Planners/QuinticSpline.h</text>
</a>
</g>
</g>
<!-- Node6&#45;&gt;Node26 -->
<g id="edge26" class="edge">
<title>Node6&#45;&gt;Node26</title>
<path fill="none" stroke="midnightblue" d="M1573.59,-232.72C1644.02,-220.52 1740.63,-203.79 1808.41,-192.05"/>
<polygon fill="midnightblue" stroke="midnightblue" points="1572.65,-229.33 1563.4,-234.49 1573.85,-236.23 1572.65,-229.33"/>
</g>
<!-- Node27 -->
<g id="node27" class="node">
<title>Node27</title>
<g id="a_node27"><a xlink:href="SwingFootPlanner_8h.html" target="_top" xlink:title=" ">
<polygon fill="none" stroke="black" points="2087.5,-73 2087.5,-114 2259.5,-114 2259.5,-73 2087.5,-73"/>
<text text-anchor="start" x="2095.5" y="-102" font-family="Helvetica,sans-Serif" font-size="10.00">Planners/include/Bipedal</text>
<text text-anchor="start" x="2095.5" y="-91" font-family="Helvetica,sans-Serif" font-size="10.00">Locomotion/Planners/SwingFoot</text>
<text text-anchor="middle" x="2173.5" y="-80" font-family="Helvetica,sans-Serif" font-size="10.00">Planner.h</text>
</a>
</g>
</g>
<!-- Node6&#45;&gt;Node27 -->
<g id="edge35" class="edge">
<title>Node6&#45;&gt;Node27</title>
<path fill="none" stroke="midnightblue" d="M1586.75,-243.48C1714.18,-236.44 1921.96,-221.75 1995.5,-198 2054.35,-178.99 2114.95,-138.41 2148.06,-114.09"/>
<polygon fill="midnightblue" stroke="midnightblue" points="1586.37,-240 1576.57,-244.04 1586.75,-246.99 1586.37,-240"/>
</g>
<!-- Node30 -->
<g id="node30" class="node">
<title>Node30</title>
<g id="a_node30"><a xlink:href="SO3Planner_8h.html" target="_top" xlink:title=" ">
<polygon fill="none" stroke="black" points="2106.5,-162 2106.5,-192 2292.5,-192 2292.5,-162 2106.5,-162"/>
<text text-anchor="start" x="2114.5" y="-180" font-family="Helvetica,sans-Serif" font-size="10.00">Planners/include/Bipedal</text>
<text text-anchor="middle" x="2199.5" y="-169" font-family="Helvetica,sans-Serif" font-size="10.00">Locomotion/Planners/SO3Planner.h</text>
</a>
</g>
</g>
<!-- Node6&#45;&gt;Node30 -->
<g id="edge31" class="edge">
<title>Node6&#45;&gt;Node30</title>
<path fill="none" stroke="midnightblue" d="M1586.7,-241.53C1703.86,-233.23 1899.67,-217.94 2067.5,-198 2082,-196.28 2097.36,-194.19 2112.27,-192.03"/>
<polygon fill="midnightblue" stroke="midnightblue" points="1586.39,-238.05 1576.66,-242.24 1586.89,-245.03 1586.39,-238.05"/>
</g>
<!-- Node32 -->
<g id="node32" class="node">
<title>Node32</title>
<g id="a_node32"><a xlink:href="YarpSensorBridge_8h.html" target="_top" xlink:title=" ">
<polygon fill="none" stroke="black" points="2412.5,-156.5 2412.5,-197.5 2602.5,-197.5 2602.5,-156.5 2412.5,-156.5"/>
<text text-anchor="start" x="2420.5" y="-185.5" font-family="Helvetica,sans-Serif" font-size="10.00">RobotInterface/YarpImplementation</text>
<text text-anchor="start" x="2420.5" y="-174.5" font-family="Helvetica,sans-Serif" font-size="10.00">/include/BipedalLocomotion</text>
<text text-anchor="middle" x="2507.5" y="-163.5" font-family="Helvetica,sans-Serif" font-size="10.00">/RobotInterface/YarpSensorBridge.h</text>
</a>
</g>
</g>
<!-- Node6&#45;&gt;Node32 -->
<g id="edge36" class="edge">
<title>Node6&#45;&gt;Node32</title>
<path fill="none" stroke="midnightblue" d="M1586.58,-243.26C1742.21,-235.15 2044.77,-218.37 2301.5,-198 2337.77,-195.12 2377.57,-191.39 2412.44,-187.93"/>
<polygon fill="midnightblue" stroke="midnightblue" points="1586.35,-239.77 1576.54,-243.78 1586.71,-246.76 1586.35,-239.77"/>
</g>
<!-- Node35 -->
<g id="node35" class="node">
<title>Node35</title>
<g id="a_node35"><a xlink:href="TaskSpaceInverseDynamics_8h.html" target="_top" xlink:title=" ">
<polygon fill="none" stroke="black" points="2671.5,-162 2671.5,-192 2861.5,-192 2861.5,-162 2671.5,-162"/>
<text text-anchor="start" x="2679.5" y="-180" font-family="Helvetica,sans-Serif" font-size="10.00">TSID/include/BipedalLocomotion</text>
<text text-anchor="middle" x="2766.5" y="-169" font-family="Helvetica,sans-Serif" font-size="10.00">/TSID/TaskSpaceInverseDynamics.h</text>
</a>
</g>
</g>
<!-- Node6&#45;&gt;Node35 -->
<g id="edge39" class="edge">
<title>Node6&#45;&gt;Node35</title>
<path fill="none" stroke="midnightblue" d="M1586.89,-246.75C1786.33,-242.75 2235.17,-230.64 2611.5,-198 2630.83,-196.32 2651.45,-194.02 2671.14,-191.58"/>
<polygon fill="midnightblue" stroke="midnightblue" points="1586.65,-243.25 1576.72,-246.95 1586.78,-250.25 1586.65,-243.25"/>
</g>
<!-- Node8 -->
<g id="node8" class="node">
<title>Node8</title>
<g id="a_node8"><a xlink:href="SchmittTriggerDetector_8h.html" target="_top" xlink:title=" ">
<polygon fill="none" stroke="black" points="184,-73 184,-114 345,-114 345,-73 184,-73"/>
<text text-anchor="start" x="192" y="-102" font-family="Helvetica,sans-Serif" font-size="10.00">Contacts/include/Bipedal</text>
<text text-anchor="start" x="192" y="-91" font-family="Helvetica,sans-Serif" font-size="10.00">Locomotion/ContactDetectors</text>
<text text-anchor="middle" x="264.5" y="-80" font-family="Helvetica,sans-Serif" font-size="10.00">/SchmittTriggerDetector.h</text>
</a>
</g>
</g>
<!-- Node7&#45;&gt;Node8 -->
<g id="edge7" class="edge">
<title>Node7&#45;&gt;Node8</title>
<path fill="none" stroke="midnightblue" d="M398.17,-152.45C370.05,-140.26 336.12,-125.55 309.49,-114"/>
<polygon fill="midnightblue" stroke="midnightblue" points="396.9,-155.71 407.47,-156.48 399.69,-149.29 396.9,-155.71"/>
</g>
<!-- Node10 -->
<g id="node10" class="node">
<title>Node10</title>
<g id="a_node10"><a xlink:href="ContactDetector_8cpp.html" target="_top" xlink:title=" ">
<polygon fill="none" stroke="black" points="363,-84 363,-103 542,-103 542,-84 363,-84"/>
<text text-anchor="middle" x="452.5" y="-91" font-family="Helvetica,sans-Serif" font-size="10.00">Contacts/src/ContactDetector.cpp</text>
</a>
</g>
</g>
<!-- Node7&#45;&gt;Node10 -->
<g id="edge9" class="edge">
<title>Node7&#45;&gt;Node10</title>
<path fill="none" stroke="midnightblue" d="M452.5,-146.14C452.5,-130.83 452.5,-113.31 452.5,-103.12"/>
<polygon fill="midnightblue" stroke="midnightblue" points="449,-146.27 452.5,-156.27 456,-146.27 449,-146.27"/>
</g>
<!-- Node9 -->
<g id="node9" class="node">
<title>Node9</title>
<g id="a_node9"><a xlink:href="SchmittTriggerDetector_8cpp.html" target="_top" xlink:title=" ">
<polygon fill="none" stroke="black" points="189.5,-0.5 189.5,-30.5 339.5,-30.5 339.5,-0.5 189.5,-0.5"/>
<text text-anchor="start" x="197.5" y="-18.5" font-family="Helvetica,sans-Serif" font-size="10.00">Contacts/src/SchmittTrigger</text>
<text text-anchor="middle" x="264.5" y="-7.5" font-family="Helvetica,sans-Serif" font-size="10.00">Detector.cpp</text>
</a>
</g>
</g>
<!-- Node8&#45;&gt;Node9 -->
<g id="edge8" class="edge">
<title>Node8&#45;&gt;Node9</title>
<path fill="none" stroke="midnightblue" d="M264.5,-62.78C264.5,-51.75 264.5,-39.75 264.5,-30.73"/>
<polygon fill="midnightblue" stroke="midnightblue" points="261,-62.93 264.5,-72.93 268,-62.93 261,-62.93"/>
</g>
<!-- Node12 -->
<g id="node12" class="node">
<title>Node12</title>
<g id="a_node12"><a xlink:href="RecursiveLeastSquare_8cpp.html" target="_top" xlink:title=" ">
<polygon fill="none" stroke="black" points="560,-78.5 560,-108.5 697,-108.5 697,-78.5 560,-78.5"/>
<text text-anchor="start" x="568" y="-96.5" font-family="Helvetica,sans-Serif" font-size="10.00">Estimators/src/Recursive</text>
<text text-anchor="middle" x="628.5" y="-85.5" font-family="Helvetica,sans-Serif" font-size="10.00">LeastSquare.cpp</text>
</a>
</g>
</g>
<!-- Node11&#45;&gt;Node12 -->
<g id="edge11" class="edge">
<title>Node11&#45;&gt;Node12</title>
<path fill="none" stroke="midnightblue" d="M689.83,-149.43C674.68,-135.86 656.86,-119.9 644.34,-108.68"/>
<polygon fill="midnightblue" stroke="midnightblue" points="687.69,-152.21 697.47,-156.27 692.36,-146.99 687.69,-152.21"/>
</g>
<!-- Node14 -->
<g id="node14" class="node">
<title>Node14</title>
<g id="a_node14"><a xlink:href="InvariantEKFBaseEstimator_8h.html" target="_top" xlink:title=" ">
<polygon fill="none" stroke="black" points="715.5,-67.5 715.5,-119.5 897.5,-119.5 897.5,-67.5 715.5,-67.5"/>
<text text-anchor="start" x="723.5" y="-107.5" font-family="Helvetica,sans-Serif" font-size="10.00">Estimators/include</text>
<text text-anchor="start" x="723.5" y="-96.5" font-family="Helvetica,sans-Serif" font-size="10.00">/BipedalLocomotion/Floating</text>
<text text-anchor="start" x="723.5" y="-85.5" font-family="Helvetica,sans-Serif" font-size="10.00">BaseEstimators/InvariantEKFBase</text>
<text text-anchor="middle" x="806.5" y="-74.5" font-family="Helvetica,sans-Serif" font-size="10.00">Estimator.h</text>
</a>
</g>
</g>
<!-- Node13&#45;&gt;Node14 -->
<g id="edge13" class="edge">
<title>Node13&#45;&gt;Node14</title>
<path fill="none" stroke="midnightblue" d="M1014.22,-153.69C977.07,-143.11 932.53,-130.41 894.23,-119.5"/>
<polygon fill="midnightblue" stroke="midnightblue" points="1013.42,-157.1 1024,-156.48 1015.34,-150.37 1013.42,-157.1"/>
</g>
<!-- Node16 -->
<g id="node16" class="node">
<title>Node16</title>
<g id="a_node16"><a xlink:href="LeggedOdometry_8h.html" target="_top" xlink:title=" ">
<polygon fill="none" stroke="black" points="915.5,-73 915.5,-114 1103.5,-114 1103.5,-73 915.5,-73"/>
<text text-anchor="start" x="923.5" y="-102" font-family="Helvetica,sans-Serif" font-size="10.00">Estimators/include</text>
<text text-anchor="start" x="923.5" y="-91" font-family="Helvetica,sans-Serif" font-size="10.00">/BipedalLocomotion/Floating</text>
<text text-anchor="middle" x="1009.5" y="-80" font-family="Helvetica,sans-Serif" font-size="10.00">BaseEstimators/LeggedOdometry.h</text>
</a>
</g>
</g>
<!-- Node13&#45;&gt;Node16 -->
<g id="edge15" class="edge">
<title>Node13&#45;&gt;Node16</title>
<path fill="none" stroke="midnightblue" d="M1065.04,-149.04C1053.4,-137.6 1040.08,-124.53 1029.41,-114.05"/>
<polygon fill="midnightblue" stroke="midnightblue" points="1062.82,-151.76 1072.41,-156.27 1067.72,-146.77 1062.82,-151.76"/>
</g>
<!-- Node18 -->
<g id="node18" class="node">
<title>Node18</title>
<g id="a_node18"><a xlink:href="FloatingBaseEstimator_8cpp.html" target="_top" xlink:title=" ">
<polygon fill="none" stroke="black" points="1122,-78.5 1122,-108.5 1275,-108.5 1275,-78.5 1122,-78.5"/>
<text text-anchor="start" x="1130" y="-96.5" font-family="Helvetica,sans-Serif" font-size="10.00">Estimators/src/FloatingBase</text>
<text text-anchor="middle" x="1198.5" y="-85.5" font-family="Helvetica,sans-Serif" font-size="10.00">Estimator.cpp</text>
</a>
</g>
</g>
<!-- Node13&#45;&gt;Node18 -->
<g id="edge17" class="edge">
<title>Node13&#45;&gt;Node18</title>
<path fill="none" stroke="midnightblue" d="M1125.87,-150.34C1143.86,-136.51 1165.37,-119.97 1180.29,-108.5"/>
<polygon fill="midnightblue" stroke="midnightblue" points="1123.68,-147.61 1117.89,-156.48 1127.95,-153.16 1123.68,-147.61"/>
</g>
<!-- Node15 -->
<g id="node15" class="node">
<title>Node15</title>
<g id="a_node15"><a xlink:href="InvariantEKFBaseEstimator_8cpp.html" target="_top" xlink:title=" ">
<polygon fill="none" stroke="black" points="740,-0.5 740,-30.5 873,-30.5 873,-0.5 740,-0.5"/>
<text text-anchor="start" x="748" y="-18.5" font-family="Helvetica,sans-Serif" font-size="10.00">Estimators/src/Invariant</text>
<text text-anchor="middle" x="806.5" y="-7.5" font-family="Helvetica,sans-Serif" font-size="10.00">EKFBaseEstimator.cpp</text>
</a>
</g>
</g>
<!-- Node14&#45;&gt;Node15 -->
<g id="edge14" class="edge">
<title>Node14&#45;&gt;Node15</title>
<path fill="none" stroke="midnightblue" d="M806.5,-56.96C806.5,-47.72 806.5,-38.28 806.5,-30.85"/>
<polygon fill="midnightblue" stroke="midnightblue" points="803,-57.19 806.5,-67.19 810,-57.19 803,-57.19"/>
</g>
<!-- Node17 -->
<g id="node17" class="node">
<title>Node17</title>
<g id="a_node17"><a xlink:href="LeggedOdometry_8cpp.html" target="_top" xlink:title=" ">
<polygon fill="none" stroke="black" points="913.5,-6 913.5,-25 1105.5,-25 1105.5,-6 913.5,-6"/>
<text text-anchor="middle" x="1009.5" y="-13" font-family="Helvetica,sans-Serif" font-size="10.00">Estimators/src/LeggedOdometry.cpp</text>
</a>
</g>
</g>
<!-- Node16&#45;&gt;Node17 -->
<g id="edge16" class="edge">
<title>Node16&#45;&gt;Node17</title>
<path fill="none" stroke="midnightblue" d="M1009.5,-62.55C1009.5,-49.06 1009.5,-34.15 1009.5,-25.05"/>
<polygon fill="midnightblue" stroke="midnightblue" points="1006,-62.93 1009.5,-72.93 1013,-62.93 1006,-62.93"/>
</g>
<!-- Node19&#45;&gt;Node2 -->
<g id="edge19" class="edge">
<title>Node19&#45;&gt;Node2</title>
<path fill="none" stroke="midnightblue" d="M215.53,-157.58C184.92,-142.73 142.52,-122.16 114.57,-108.6"/>
<polygon fill="midnightblue" stroke="midnightblue" points="214.09,-160.77 224.62,-161.99 217.15,-154.48 214.09,-160.77"/>
</g>
<!-- Node21 -->
<g id="node21" class="node">
<title>Node21</title>
<g id="a_node21"><a xlink:href="ArucoDetector_8cpp.html" target="_top" xlink:title=" ">
<polygon fill="none" stroke="black" points="1293.5,-84 1293.5,-103 1471.5,-103 1471.5,-84 1293.5,-84"/>
<text text-anchor="middle" x="1382.5" y="-91" font-family="Helvetica,sans-Serif" font-size="10.00">Perception/src/ArucoDetector.cpp</text>
</a>
</g>
</g>
<!-- Node20&#45;&gt;Node21 -->
<g id="edge21" class="edge">
<title>Node20&#45;&gt;Node21</title>
<path fill="none" stroke="midnightblue" d="M1383.13,-146.14C1382.95,-130.83 1382.73,-113.31 1382.61,-103.12"/>
<polygon fill="midnightblue" stroke="midnightblue" points="1379.64,-146.31 1383.26,-156.27 1386.63,-146.23 1379.64,-146.31"/>
</g>
<!-- Node23 -->
<g id="node23" class="node">
<title>Node23</title>
<g id="a_node23"><a xlink:href="TimeVaryingDCMPlanner_8h.html" target="_top" xlink:title=" ">
<polygon fill="none" stroke="black" points="1490,-73 1490,-114 1673,-114 1673,-73 1490,-73"/>
<text text-anchor="start" x="1498" y="-102" font-family="Helvetica,sans-Serif" font-size="10.00">Planners/include/Bipedal</text>
<text text-anchor="start" x="1498" y="-91" font-family="Helvetica,sans-Serif" font-size="10.00">Locomotion/Planners/TimeVarying</text>
<text text-anchor="middle" x="1581.5" y="-80" font-family="Helvetica,sans-Serif" font-size="10.00">DCMPlanner.h</text>
</a>
</g>
</g>
<!-- Node22&#45;&gt;Node23 -->
<g id="edge23" class="edge">
<title>Node22&#45;&gt;Node23</title>
<path fill="none" stroke="midnightblue" d="M1581.5,-151.57C1581.5,-139.56 1581.5,-125.29 1581.5,-114.03"/>
<polygon fill="midnightblue" stroke="midnightblue" points="1578,-151.8 1581.5,-161.8 1585,-151.8 1578,-151.8"/>
</g>
<!-- Node25 -->
<g id="node25" class="node">
<title>Node25</title>
<g id="a_node25"><a xlink:href="DCMPlanner_8cpp.html" target="_top" xlink:title=" ">
<polygon fill="none" stroke="black" points="1691.5,-84 1691.5,-103 1849.5,-103 1849.5,-84 1691.5,-84"/>
<text text-anchor="middle" x="1770.5" y="-91" font-family="Helvetica,sans-Serif" font-size="10.00">Planners/src/DCMPlanner.cpp</text>
</a>
</g>
</g>
<!-- Node22&#45;&gt;Node25 -->
<g id="edge25" class="edge">
<title>Node22&#45;&gt;Node25</title>
<path fill="none" stroke="midnightblue" d="M1623.63,-157.83C1663.18,-140.78 1720.62,-116.01 1750.6,-103.08"/>
<polygon fill="midnightblue" stroke="midnightblue" points="1621.79,-154.82 1613.99,-161.99 1624.56,-161.24 1621.79,-154.82"/>
</g>
<!-- Node24 -->
<g id="node24" class="node">
<title>Node24</title>
<g id="a_node24"><a xlink:href="TimeVaryingDCMPlanner_8cpp.html" target="_top" xlink:title=" ">
<polygon fill="none" stroke="black" points="1659.5,-0.5 1659.5,-30.5 1799.5,-30.5 1799.5,-0.5 1659.5,-0.5"/>
<text text-anchor="start" x="1667.5" y="-18.5" font-family="Helvetica,sans-Serif" font-size="10.00">Planners/src/TimeVarying</text>
<text text-anchor="middle" x="1729.5" y="-7.5" font-family="Helvetica,sans-Serif" font-size="10.00">DCMPlanner.cpp</text>
</a>
</g>
</g>
<!-- Node23&#45;&gt;Node24 -->
<g id="edge24" class="edge">
<title>Node23&#45;&gt;Node24</title>
<path fill="none" stroke="midnightblue" d="M1628.61,-68.31C1652.72,-55.93 1681.24,-41.28 1701.8,-30.73"/>
<polygon fill="midnightblue" stroke="midnightblue" points="1626.91,-65.25 1619.61,-72.93 1630.11,-71.47 1626.91,-65.25"/>
</g>
<!-- Node26&#45;&gt;Node24 -->
<g id="edge30" class="edge">
<title>Node26&#45;&gt;Node24</title>
<path fill="none" stroke="midnightblue" d="M1888.64,-151.54C1886.52,-127.25 1879.72,-90.36 1858.5,-67 1842.65,-49.55 1820.03,-38.06 1798.15,-30.53"/>
<polygon fill="midnightblue" stroke="midnightblue" points="1885.16,-151.97 1889.32,-161.72 1892.14,-151.5 1885.16,-151.97"/>
</g>
<!-- Node26&#45;&gt;Node27 -->
<g id="edge27" class="edge">
<title>Node26&#45;&gt;Node27</title>
<path fill="none" stroke="midnightblue" d="M1948.08,-159.19C1993.81,-146.07 2057.41,-127.81 2105.41,-114.04"/>
<polygon fill="midnightblue" stroke="midnightblue" points="1946.97,-155.87 1938.32,-161.99 1948.9,-162.6 1946.97,-155.87"/>
</g>
<!-- Node29 -->
<g id="node29" class="node">
<title>Node29</title>
<g id="a_node29"><a xlink:href="QuinticSpline_8cpp.html" target="_top" xlink:title=" ">
<polygon fill="none" stroke="black" points="1905.5,-84 1905.5,-103 2069.5,-103 2069.5,-84 1905.5,-84"/>
<text text-anchor="middle" x="1987.5" y="-91" font-family="Helvetica,sans-Serif" font-size="10.00">Planners/src/QuinticSpline.cpp</text>
</a>
</g>
</g>
<!-- Node26&#45;&gt;Node29 -->
<g id="edge29" class="edge">
<title>Node26&#45;&gt;Node29</title>
<path fill="none" stroke="midnightblue" d="M1914.5,-155.21C1934.83,-138.3 1962.48,-115.31 1977.23,-103.04"/>
<polygon fill="midnightblue" stroke="midnightblue" points="1912.02,-152.72 1906.57,-161.8 1916.5,-158.1 1912.02,-152.72"/>
</g>
<!-- Node28 -->
<g id="node28" class="node">
<title>Node28</title>
<g id="a_node28"><a xlink:href="SwingFootPlanner_8cpp.html" target="_top" xlink:title=" ">
<polygon fill="none" stroke="black" points="2081,-6 2081,-25 2266,-25 2266,-6 2081,-6"/>
<text text-anchor="middle" x="2173.5" y="-13" font-family="Helvetica,sans-Serif" font-size="10.00">Planners/src/SwingFootPlanner.cpp</text>
</a>
</g>
</g>
<!-- Node27&#45;&gt;Node28 -->
<g id="edge28" class="edge">
<title>Node27&#45;&gt;Node28</title>
<path fill="none" stroke="midnightblue" d="M2173.5,-62.55C2173.5,-49.06 2173.5,-34.15 2173.5,-25.05"/>
<polygon fill="midnightblue" stroke="midnightblue" points="2170,-62.93 2173.5,-72.93 2177,-62.93 2170,-62.93"/>
</g>
<!-- Node30&#45;&gt;Node27 -->
<g id="edge34" class="edge">
<title>Node30&#45;&gt;Node27</title>
<path fill="none" stroke="midnightblue" d="M2191.82,-151.93C2187.97,-139.85 2183.36,-125.41 2179.73,-114.03"/>
<polygon fill="midnightblue" stroke="midnightblue" points="2188.6,-153.34 2194.97,-161.8 2195.27,-151.21 2188.6,-153.34"/>
</g>
<!-- Node31 -->
<g id="node31" class="node">
<title>Node31</title>
<g id="a_node31"><a xlink:href="SO3Planner_8tpp.html" target="_top" xlink:title=" ">
<polygon fill="none" stroke="black" points="2277.5,-78.5 2277.5,-108.5 2473.5,-108.5 2473.5,-78.5 2277.5,-78.5"/>
<text text-anchor="start" x="2285.5" y="-96.5" font-family="Helvetica,sans-Serif" font-size="10.00">Planners/include/Bipedal</text>
<text text-anchor="middle" x="2375.5" y="-85.5" font-family="Helvetica,sans-Serif" font-size="10.00">Locomotion/Planners/SO3Planner.tpp</text>
</a>
</g>
</g>
<!-- Node30&#45;&gt;Node31 -->
<g id="edge32" class="edge">
<title>Node30&#45;&gt;Node31</title>
<path fill="none" stroke="midnightblue" d="M2233.53,-157.58C2264.11,-142.73 2308.7,-122.16 2339.8,-108.6"/>
<polygon fill="midnightblue" stroke="midnightblue" points="2231.96,-154.45 2224.51,-161.99 2235.03,-160.74 2231.96,-154.45"/>
</g>
<!-- Node31&#45;&gt;Node30 -->
<g id="edge33" class="edge">
<title>Node31&#45;&gt;Node30</title>
<path fill="none" stroke="midnightblue" d="M2341.27,-113.02C2310.62,-127.89 2266.03,-148.46 2235,-161.99"/>
<polygon fill="midnightblue" stroke="midnightblue" points="2342.86,-116.14 2350.3,-108.6 2339.78,-109.85 2342.86,-116.14"/>
</g>
<!-- Node33 -->
<g id="node33" class="node">
<title>Node33</title>
<g id="a_node33"><a xlink:href="YarpSensorBridgeImpl_8h.html" target="_top" xlink:title=" ">
<polygon fill="none" stroke="black" points="2491.5,-73 2491.5,-114 2701.5,-114 2701.5,-73 2491.5,-73"/>
<text text-anchor="start" x="2499.5" y="-102" font-family="Helvetica,sans-Serif" font-size="10.00">RobotInterface/YarpImplementation</text>
<text text-anchor="start" x="2499.5" y="-91" font-family="Helvetica,sans-Serif" font-size="10.00">/include/BipedalLocomotion</text>
<text text-anchor="middle" x="2596.5" y="-80" font-family="Helvetica,sans-Serif" font-size="10.00">/RobotInterface/YarpSensorBridgeImpl.h</text>
</a>
</g>
</g>
<!-- Node32&#45;&gt;Node33 -->
<g id="edge37" class="edge">
<title>Node32&#45;&gt;Node33</title>
<path fill="none" stroke="midnightblue" d="M2536.59,-149.36C2549.16,-137.85 2563.6,-124.63 2575.15,-114.05"/>
<polygon fill="midnightblue" stroke="midnightblue" points="2534.06,-146.94 2529.04,-156.27 2538.78,-152.1 2534.06,-146.94"/>
</g>
<!-- Node34 -->
<g id="node34" class="node">
<title>Node34</title>
<g id="a_node34"><a xlink:href="YarpSensorBridge_8cpp.html" target="_top" xlink:title=" ">
<polygon fill="none" stroke="black" points="2501.5,-0.5 2501.5,-30.5 2691.5,-30.5 2691.5,-0.5 2501.5,-0.5"/>
<text text-anchor="start" x="2509.5" y="-18.5" font-family="Helvetica,sans-Serif" font-size="10.00">RobotInterface/YarpImplementation</text>
<text text-anchor="middle" x="2596.5" y="-7.5" font-family="Helvetica,sans-Serif" font-size="10.00">/src/YarpSensorBridge.cpp</text>
</a>
</g>
</g>
<!-- Node33&#45;&gt;Node34 -->
<g id="edge38" class="edge">
<title>Node33&#45;&gt;Node34</title>
<path fill="none" stroke="midnightblue" d="M2596.5,-62.78C2596.5,-51.75 2596.5,-39.75 2596.5,-30.73"/>
<polygon fill="midnightblue" stroke="midnightblue" points="2593,-62.93 2596.5,-72.93 2600,-62.93 2593,-62.93"/>
</g>
<!-- Node36 -->
<g id="node36" class="node">
<title>Node36</title>
<g id="a_node36"><a xlink:href="TaskSpaceInverseDynamics_8cpp.html" target="_top" xlink:title=" ">
<polygon fill="none" stroke="black" points="2719.5,-78.5 2719.5,-108.5 2865.5,-108.5 2865.5,-78.5 2719.5,-78.5"/>
<text text-anchor="start" x="2727.5" y="-96.5" font-family="Helvetica,sans-Serif" font-size="10.00">TSID/src/TaskSpaceInverse</text>
<text text-anchor="middle" x="2792.5" y="-85.5" font-family="Helvetica,sans-Serif" font-size="10.00">Dynamics.cpp</text>
</a>
</g>
</g>
<!-- Node35&#45;&gt;Node36 -->
<g id="edge40" class="edge">
<title>Node35&#45;&gt;Node36</title>
<path fill="none" stroke="midnightblue" d="M2774.09,-152.2C2778.62,-138.02 2784.2,-120.52 2788.02,-108.53"/>
<polygon fill="midnightblue" stroke="midnightblue" points="2770.73,-151.21 2771.03,-161.8 2777.4,-153.34 2770.73,-151.21"/>
</g>
</g>
</svg>
