<?xml version="1.0" encoding="UTF-8" standalone="no"?>
<!DOCTYPE svg PUBLIC "-//W3C//DTD SVG 1.1//EN"
 "http://www.w3.org/Graphics/SVG/1.1/DTD/svg11.dtd">
<!-- Generated by graphviz version 2.43.0 (0)
 -->
<!-- Title: Contacts/include/BipedalLocomotion/Contacts/ContactPhase.h Pages: 1 -->
<svg width="454pt" height="329pt"
 viewBox="0.00 0.00 453.50 329.00" xmlns="http://www.w3.org/2000/svg" xmlns:xlink="http://www.w3.org/1999/xlink">
<g id="graph0" class="graph" transform="scale(1 1) rotate(0) translate(4 325)">
<title>Contacts/include/BipedalLocomotion/Contacts/ContactPhase.h</title>
<!-- Node1 -->
<g id="node1" class="node">
<title>Node1</title>
<g id="a_node1"><a xlink:title=" ">
<polygon fill="#bfbfbf" stroke="black" points="165,-290.5 165,-320.5 363,-320.5 363,-290.5 165,-290.5"/>
<text text-anchor="start" x="173" y="-308.5" font-family="Helvetica,sans-Serif" font-size="10.00">Contacts/include/Bipedal</text>
<text text-anchor="middle" x="264" y="-297.5" font-family="Helvetica,sans-Serif" font-size="10.00">Locomotion/Contacts/ContactPhase.h</text>
</a>
</g>
</g>
<!-- Node2 -->
<g id="node2" class="node">
<title>Node2</title>
<g id="a_node2"><a xlink:href="ContactPhaseList_8h_source.html" target="_top" xlink:title=" ">
<polygon fill="none" stroke="black" points="71.5,-212.5 71.5,-253.5 260.5,-253.5 260.5,-212.5 71.5,-212.5"/>
<text text-anchor="start" x="79.5" y="-241.5" font-family="Helvetica,sans-Serif" font-size="10.00">Contacts/include/Bipedal</text>
<text text-anchor="start" x="79.5" y="-230.5" font-family="Helvetica,sans-Serif" font-size="10.00">Locomotion/Contacts/ContactPhase</text>
<text text-anchor="middle" x="166" y="-219.5" font-family="Helvetica,sans-Serif" font-size="10.00">List.h</text>
</a>
</g>
</g>
<!-- Node1&#45;&gt;Node2 -->
<g id="edge1" class="edge">
<title>Node1&#45;&gt;Node2</title>
<path fill="none" stroke="midnightblue" d="M235.79,-284.21C222.41,-274.58 206.49,-263.12 193.23,-253.59"/>
<polygon fill="midnightblue" stroke="midnightblue" points="234.01,-287.23 244.17,-290.23 238.09,-281.55 234.01,-287.23"/>
</g>
<!-- Node8 -->
<g id="node8" class="node">
<title>Node8</title>
<g id="a_node8"><a xlink:href="ContactPhase_8cpp.html" target="_top" xlink:title=" ">
<polygon fill="none" stroke="black" points="278.5,-223.5 278.5,-242.5 445.5,-242.5 445.5,-223.5 278.5,-223.5"/>
<text text-anchor="middle" x="362" y="-230.5" font-family="Helvetica,sans-Serif" font-size="10.00">Contacts/src/ContactPhase.cpp</text>
</a>
</g>
</g>
<!-- Node1&#45;&gt;Node8 -->
<g id="edge7" class="edge">
<title>Node1&#45;&gt;Node8</title>
<path fill="none" stroke="midnightblue" d="M292.19,-284.22C311.31,-270.47 335.61,-252.98 349.92,-242.69"/>
<polygon fill="midnightblue" stroke="midnightblue" points="289.91,-281.55 283.83,-290.23 293.99,-287.23 289.91,-281.55"/>
</g>
<!-- Node3 -->
<g id="node3" class="node">
<title>Node3</title>
<g id="a_node3"><a xlink:href="ContactPhaseList_8cpp_source.html" target="_top" xlink:title=" ">
<polygon fill="none" stroke="black" points="0,-145.5 0,-175.5 146,-175.5 146,-145.5 0,-145.5"/>
<text text-anchor="start" x="8" y="-163.5" font-family="Helvetica,sans-Serif" font-size="10.00">Contacts/src/ContactPhase</text>
<text text-anchor="middle" x="73" y="-152.5" font-family="Helvetica,sans-Serif" font-size="10.00">List.cpp</text>
</a>
</g>
</g>
<!-- Node2&#45;&gt;Node3 -->
<g id="edge2" class="edge">
<title>Node2&#45;&gt;Node3</title>
<path fill="none" stroke="midnightblue" d="M131.88,-206.14C118.3,-195.84 103.2,-184.39 91.69,-175.67"/>
<polygon fill="midnightblue" stroke="midnightblue" points="130.01,-209.11 140.09,-212.36 134.24,-203.53 130.01,-209.11"/>
</g>
<!-- Node4 -->
<g id="node4" class="node">
<title>Node4</title>
<g id="a_node4"><a xlink:href="DCMPlanner_8h.html" target="_top" xlink:title=" ">
<polygon fill="none" stroke="black" points="164,-145.5 164,-175.5 354,-175.5 354,-145.5 164,-145.5"/>
<text text-anchor="start" x="172" y="-163.5" font-family="Helvetica,sans-Serif" font-size="10.00">Planners/include/Bipedal</text>
<text text-anchor="middle" x="259" y="-152.5" font-family="Helvetica,sans-Serif" font-size="10.00">Locomotion/Planners/DCMPlanner.h</text>
</a>
</g>
</g>
<!-- Node2&#45;&gt;Node4 -->
<g id="edge3" class="edge">
<title>Node2&#45;&gt;Node4</title>
<path fill="none" stroke="midnightblue" d="M200.12,-206.14C213.7,-195.84 228.8,-184.39 240.31,-175.67"/>
<polygon fill="midnightblue" stroke="midnightblue" points="197.76,-203.53 191.91,-212.36 201.99,-209.11 197.76,-203.53"/>
</g>
<!-- Node5 -->
<g id="node5" class="node">
<title>Node5</title>
<g id="a_node5"><a xlink:href="TimeVaryingDCMPlanner_8h.html" target="_top" xlink:title=" ">
<polygon fill="none" stroke="black" points="73.5,-67.5 73.5,-108.5 256.5,-108.5 256.5,-67.5 73.5,-67.5"/>
<text text-anchor="start" x="81.5" y="-96.5" font-family="Helvetica,sans-Serif" font-size="10.00">Planners/include/Bipedal</text>
<text text-anchor="start" x="81.5" y="-85.5" font-family="Helvetica,sans-Serif" font-size="10.00">Locomotion/Planners/TimeVarying</text>
<text text-anchor="middle" x="165" y="-74.5" font-family="Helvetica,sans-Serif" font-size="10.00">DCMPlanner.h</text>
</a>
</g>
</g>
<!-- Node4&#45;&gt;Node5 -->
<g id="edge4" class="edge">
<title>Node4&#45;&gt;Node5</title>
<path fill="none" stroke="midnightblue" d="M231.95,-139.21C219.11,-129.58 203.83,-118.12 191.12,-108.59"/>
<polygon fill="midnightblue" stroke="midnightblue" points="229.88,-142.03 239.98,-145.23 234.08,-136.43 229.88,-142.03"/>
</g>
<!-- Node7 -->
<g id="node7" class="node">
<title>Node7</title>
<g id="a_node7"><a xlink:href="DCMPlanner_8cpp.html" target="_top" xlink:title=" ">
<polygon fill="none" stroke="black" points="275,-78.5 275,-97.5 433,-97.5 433,-78.5 275,-78.5"/>
<text text-anchor="middle" x="354" y="-85.5" font-family="Helvetica,sans-Serif" font-size="10.00">Planners/src/DCMPlanner.cpp</text>
</a>
</g>
</g>
<!-- Node4&#45;&gt;Node7 -->
<g id="edge6" class="edge">
<title>Node4&#45;&gt;Node7</title>
<path fill="none" stroke="midnightblue" d="M286.33,-139.22C304.86,-125.47 328.42,-107.98 342.29,-97.69"/>
<polygon fill="midnightblue" stroke="midnightblue" points="284.17,-136.46 278.22,-145.23 288.34,-142.08 284.17,-136.46"/>
</g>
<!-- Node6 -->
<g id="node6" class="node">
<title>Node6</title>
<g id="a_node6"><a xlink:href="TimeVaryingDCMPlanner_8cpp.html" target="_top" xlink:title=" ">
<polygon fill="none" stroke="black" points="95,-0.5 95,-30.5 235,-30.5 235,-0.5 95,-0.5"/>
<text text-anchor="start" x="103" y="-18.5" font-family="Helvetica,sans-Serif" font-size="10.00">Planners/src/TimeVarying</text>
<text text-anchor="middle" x="165" y="-7.5" font-family="Helvetica,sans-Serif" font-size="10.00">DCMPlanner.cpp</text>
</a>
</g>
</g>
<!-- Node5&#45;&gt;Node6 -->
<g id="edge5" class="edge">
<title>Node5&#45;&gt;Node6</title>
<path fill="none" stroke="midnightblue" d="M165,-57.08C165,-48.01 165,-38.45 165,-30.89"/>
<polygon fill="midnightblue" stroke="midnightblue" points="161.5,-57.36 165,-67.36 168.5,-57.36 161.5,-57.36"/>
</g>
</g>
</svg>
