<?xml version="1.0" encoding="UTF-8" standalone="no"?>
<!DOCTYPE svg PUBLIC "-//W3C//DTD SVG 1.1//EN"
 "http://www.w3.org/Graphics/SVG/1.1/DTD/svg11.dtd">
<!-- Generated by graphviz version 2.43.0 (0)
 -->
<!-- Title: Contacts/include/BipedalLocomotion/Contacts/Contact.h Pages: 1 -->
<svg width="1486pt" height="496pt"
 viewBox="0.00 0.00 1486.00 496.00" xmlns="http://www.w3.org/2000/svg" xmlns:xlink="http://www.w3.org/1999/xlink">
<g id="graph0" class="graph" transform="scale(1 1) rotate(0) translate(4 492)">
<title>Contacts/include/BipedalLocomotion/Contacts/Contact.h</title>
<!-- Node1 -->
<g id="node1" class="node">
<title>Node1</title>
<g id="a_node1"><a xlink:title=" ">
<polygon fill="#bfbfbf" stroke="black" points="654,-457.5 654,-487.5 823,-487.5 823,-457.5 654,-457.5"/>
<text text-anchor="start" x="662" y="-475.5" font-family="Helvetica,sans-Serif" font-size="10.00">Contacts/include/Bipedal</text>
<text text-anchor="middle" x="738.5" y="-464.5" font-family="Helvetica,sans-Serif" font-size="10.00">Locomotion/Contacts/Contact.h</text>
</a>
</g>
</g>
<!-- Node2 -->
<g id="node2" class="node">
<title>Node2</title>
<g id="a_node2"><a xlink:href="ContactDetector_8h.html" target="_top" xlink:title=" ">
<polygon fill="none" stroke="black" points="188,-379.5 188,-420.5 349,-420.5 349,-379.5 188,-379.5"/>
<text text-anchor="start" x="196" y="-408.5" font-family="Helvetica,sans-Serif" font-size="10.00">Contacts/include/Bipedal</text>
<text text-anchor="start" x="196" y="-397.5" font-family="Helvetica,sans-Serif" font-size="10.00">Locomotion/ContactDetectors</text>
<text text-anchor="middle" x="268.5" y="-386.5" font-family="Helvetica,sans-Serif" font-size="10.00">/ContactDetector.h</text>
</a>
</g>
</g>
<!-- Node1&#45;&gt;Node2 -->
<g id="edge1" class="edge">
<title>Node1&#45;&gt;Node2</title>
<path fill="none" stroke="midnightblue" d="M643.86,-457.3C557.43,-444.34 431.02,-425.38 349.25,-413.11"/>
<polygon fill="midnightblue" stroke="midnightblue" points="643.52,-460.79 653.93,-458.81 644.56,-453.87 643.52,-460.79"/>
</g>
<!-- Node6 -->
<g id="node6" class="node">
<title>Node6</title>
<g id="a_node6"><a xlink:href="ContactList_8h.html" target="_top" xlink:title=" ">
<polygon fill="none" stroke="black" points="645.5,-385 645.5,-415 831.5,-415 831.5,-385 645.5,-385"/>
<text text-anchor="start" x="653.5" y="-403" font-family="Helvetica,sans-Serif" font-size="10.00">Contacts/include/Bipedal</text>
<text text-anchor="middle" x="738.5" y="-392" font-family="Helvetica,sans-Serif" font-size="10.00">Locomotion/Contacts/ContactList.h</text>
</a>
</g>
</g>
<!-- Node1&#45;&gt;Node6 -->
<g id="edge5" class="edge">
<title>Node1&#45;&gt;Node6</title>
<path fill="none" stroke="midnightblue" d="M738.5,-447.23C738.5,-436.57 738.5,-424.41 738.5,-415.25"/>
<polygon fill="midnightblue" stroke="midnightblue" points="735,-447.23 738.5,-457.23 742,-447.23 735,-447.23"/>
</g>
<!-- Node7 -->
<g id="node7" class="node">
<title>Node7</title>
<g id="a_node7"><a xlink:href="ContactPhase_8h.html" target="_top" xlink:title=" ">
<polygon fill="none" stroke="black" points="376.5,-307 376.5,-337 574.5,-337 574.5,-307 376.5,-307"/>
<text text-anchor="start" x="384.5" y="-325" font-family="Helvetica,sans-Serif" font-size="10.00">Contacts/include/Bipedal</text>
<text text-anchor="middle" x="475.5" y="-314" font-family="Helvetica,sans-Serif" font-size="10.00">Locomotion/Contacts/ContactPhase.h</text>
</a>
</g>
</g>
<!-- Node1&#45;&gt;Node7 -->
<g id="edge19" class="edge">
<title>Node1&#45;&gt;Node7</title>
<path fill="none" stroke="midnightblue" d="M669.7,-454.49C643.32,-446.41 613.56,-435.34 588.5,-421 547.7,-397.66 508.11,-358.34 488.41,-337.3"/>
<polygon fill="midnightblue" stroke="midnightblue" points="669.04,-457.94 679.63,-457.44 671.04,-451.23 669.04,-457.94"/>
</g>
<!-- Node8 -->
<g id="node8" class="node">
<title>Node8</title>
<g id="a_node8"><a xlink:href="ContactPhaseList_8h_source.html" target="_top" xlink:title=" ">
<polygon fill="none" stroke="black" points="508,-218 508,-259 697,-259 697,-218 508,-218"/>
<text text-anchor="start" x="516" y="-247" font-family="Helvetica,sans-Serif" font-size="10.00">Contacts/include/Bipedal</text>
<text text-anchor="start" x="516" y="-236" font-family="Helvetica,sans-Serif" font-size="10.00">Locomotion/Contacts/ContactPhase</text>
<text text-anchor="middle" x="602.5" y="-225" font-family="Helvetica,sans-Serif" font-size="10.00">List.h</text>
</a>
</g>
</g>
<!-- Node1&#45;&gt;Node8 -->
<g id="edge20" class="edge">
<title>Node1&#45;&gt;Node8</title>
<path fill="none" stroke="midnightblue" d="M679.15,-453.29C663.13,-445.69 647.27,-435.22 636.5,-421 599.53,-372.19 598.8,-295.18 600.81,-259.22"/>
<polygon fill="midnightblue" stroke="midnightblue" points="678,-456.61 688.56,-457.44 680.82,-450.2 678,-456.61"/>
</g>
<!-- Node18 -->
<g id="node18" class="node">
<title>Node18</title>
<g id="a_node18"><a xlink:href="Contact_8cpp.html" target="_top" xlink:title=" ">
<polygon fill="none" stroke="black" points="850,-390.5 850,-409.5 987,-409.5 987,-390.5 850,-390.5"/>
<text text-anchor="middle" x="918.5" y="-397.5" font-family="Helvetica,sans-Serif" font-size="10.00">Contacts/src/Contact.cpp</text>
</a>
</g>
</g>
<!-- Node1&#45;&gt;Node18 -->
<g id="edge21" class="edge">
<title>Node1&#45;&gt;Node18</title>
<path fill="none" stroke="midnightblue" d="M783.84,-453.74C819.93,-439.61 868.86,-420.44 896.71,-409.53"/>
<polygon fill="midnightblue" stroke="midnightblue" points="782.53,-450.5 774.49,-457.4 785.08,-457.01 782.53,-450.5"/>
</g>
<!-- Node19 -->
<g id="node19" class="node">
<title>Node19</title>
<g id="a_node19"><a xlink:href="FloatingBaseEstimatorIO_8h.html" target="_top" xlink:title=" ">
<polygon fill="none" stroke="black" points="1020,-379.5 1020,-420.5 1247,-420.5 1247,-379.5 1020,-379.5"/>
<text text-anchor="start" x="1028" y="-408.5" font-family="Helvetica,sans-Serif" font-size="10.00">Estimators/include</text>
<text text-anchor="start" x="1028" y="-397.5" font-family="Helvetica,sans-Serif" font-size="10.00">/BipedalLocomotion/Floating</text>
<text text-anchor="middle" x="1133.5" y="-386.5" font-family="Helvetica,sans-Serif" font-size="10.00">BaseEstimators/FloatingBaseEstimatorIO.h</text>
</a>
</g>
</g>
<!-- Node1&#45;&gt;Node19 -->
<g id="edge22" class="edge">
<title>Node1&#45;&gt;Node19</title>
<path fill="none" stroke="midnightblue" d="M826.94,-455.72C885.23,-445.31 961.98,-431.61 1024.1,-420.53"/>
<polygon fill="midnightblue" stroke="midnightblue" points="826.24,-452.28 817.01,-457.49 827.47,-459.18 826.24,-452.28"/>
</g>
<!-- Node26 -->
<g id="node26" class="node">
<title>Node26</title>
<g id="a_node26"><a xlink:href="TaskSpaceInverseDynamics_8h.html" target="_top" xlink:title=" ">
<polygon fill="none" stroke="black" points="1273.5,-385 1273.5,-415 1463.5,-415 1463.5,-385 1273.5,-385"/>
<text text-anchor="start" x="1281.5" y="-403" font-family="Helvetica,sans-Serif" font-size="10.00">TSID/include/BipedalLocomotion</text>
<text text-anchor="middle" x="1368.5" y="-392" font-family="Helvetica,sans-Serif" font-size="10.00">/TSID/TaskSpaceInverseDynamics.h</text>
</a>
</g>
</g>
<!-- Node1&#45;&gt;Node26 -->
<g id="edge29" class="edge">
<title>Node1&#45;&gt;Node26</title>
<path fill="none" stroke="midnightblue" d="M833.25,-464.54C937.31,-456.36 1109.24,-441.29 1256.5,-421 1268.93,-419.29 1282.08,-417.19 1294.83,-415.01"/>
<polygon fill="midnightblue" stroke="midnightblue" points="832.78,-461.06 823.08,-465.33 833.32,-468.04 832.78,-461.06"/>
</g>
<!-- Node3 -->
<g id="node3" class="node">
<title>Node3</title>
<g id="a_node3"><a xlink:href="SchmittTriggerDetector_8h.html" target="_top" xlink:title=" ">
<polygon fill="none" stroke="black" points="0,-301.5 0,-342.5 161,-342.5 161,-301.5 0,-301.5"/>
<text text-anchor="start" x="8" y="-330.5" font-family="Helvetica,sans-Serif" font-size="10.00">Contacts/include/Bipedal</text>
<text text-anchor="start" x="8" y="-319.5" font-family="Helvetica,sans-Serif" font-size="10.00">Locomotion/ContactDetectors</text>
<text text-anchor="middle" x="80.5" y="-308.5" font-family="Helvetica,sans-Serif" font-size="10.00">/SchmittTriggerDetector.h</text>
</a>
</g>
</g>
<!-- Node2&#45;&gt;Node3 -->
<g id="edge2" class="edge">
<title>Node2&#45;&gt;Node3</title>
<path fill="none" stroke="midnightblue" d="M210.64,-375.61C184.4,-365 153.72,-352.6 128.75,-342.51"/>
<polygon fill="midnightblue" stroke="midnightblue" points="209.5,-378.93 220.09,-379.43 212.13,-372.44 209.5,-378.93"/>
</g>
<!-- Node5 -->
<g id="node5" class="node">
<title>Node5</title>
<g id="a_node5"><a xlink:href="ContactDetector_8cpp.html" target="_top" xlink:title=" ">
<polygon fill="none" stroke="black" points="179,-312.5 179,-331.5 358,-331.5 358,-312.5 179,-312.5"/>
<text text-anchor="middle" x="268.5" y="-319.5" font-family="Helvetica,sans-Serif" font-size="10.00">Contacts/src/ContactDetector.cpp</text>
</a>
</g>
</g>
<!-- Node2&#45;&gt;Node5 -->
<g id="edge4" class="edge">
<title>Node2&#45;&gt;Node5</title>
<path fill="none" stroke="midnightblue" d="M268.5,-369.05C268.5,-355.56 268.5,-340.65 268.5,-331.55"/>
<polygon fill="midnightblue" stroke="midnightblue" points="265,-369.43 268.5,-379.43 272,-369.43 265,-369.43"/>
</g>
<!-- Node4 -->
<g id="node4" class="node">
<title>Node4</title>
<g id="a_node4"><a xlink:href="SchmittTriggerDetector_8cpp.html" target="_top" xlink:title=" ">
<polygon fill="none" stroke="black" points="5.5,-223.5 5.5,-253.5 155.5,-253.5 155.5,-223.5 5.5,-223.5"/>
<text text-anchor="start" x="13.5" y="-241.5" font-family="Helvetica,sans-Serif" font-size="10.00">Contacts/src/SchmittTrigger</text>
<text text-anchor="middle" x="80.5" y="-230.5" font-family="Helvetica,sans-Serif" font-size="10.00">Detector.cpp</text>
</a>
</g>
</g>
<!-- Node3&#45;&gt;Node4 -->
<g id="edge3" class="edge">
<title>Node3&#45;&gt;Node4</title>
<path fill="none" stroke="midnightblue" d="M80.5,-291.03C80.5,-278.26 80.5,-263.97 80.5,-253.68"/>
<polygon fill="midnightblue" stroke="midnightblue" points="77,-291.27 80.5,-301.27 84,-291.27 77,-291.27"/>
</g>
<!-- Node6&#45;&gt;Node7 -->
<g id="edge6" class="edge">
<title>Node6&#45;&gt;Node7</title>
<path fill="none" stroke="midnightblue" d="M680.25,-382.17C633.39,-368.63 568.32,-349.82 524.21,-337.07"/>
<polygon fill="midnightblue" stroke="midnightblue" points="679.38,-385.56 689.96,-384.97 681.32,-378.83 679.38,-385.56"/>
</g>
<!-- Node6&#45;&gt;Node8 -->
<g id="edge14" class="edge">
<title>Node6&#45;&gt;Node8</title>
<path fill="none" stroke="midnightblue" d="M704.2,-379.54C689.23,-369.9 672.23,-357.26 659.5,-343 636.69,-317.44 619.38,-281.19 610.11,-259.06"/>
<polygon fill="midnightblue" stroke="midnightblue" points="702.4,-382.54 712.74,-384.86 706.1,-376.6 702.4,-382.54"/>
</g>
<!-- Node15 -->
<g id="node15" class="node">
<title>Node15</title>
<g id="a_node15"><a xlink:href="ContactList_8cpp.html" target="_top" xlink:title=" ">
<polygon fill="none" stroke="black" points="897,-312.5 897,-331.5 1052,-331.5 1052,-312.5 897,-312.5"/>
<text text-anchor="middle" x="974.5" y="-319.5" font-family="Helvetica,sans-Serif" font-size="10.00">Contacts/src/ContactList.cpp</text>
</a>
</g>
</g>
<!-- Node6&#45;&gt;Node15 -->
<g id="edge15" class="edge">
<title>Node6&#45;&gt;Node15</title>
<path fill="none" stroke="midnightblue" d="M791.8,-381.84C840.46,-366.17 910.37,-343.65 948.04,-331.52"/>
<polygon fill="midnightblue" stroke="midnightblue" points="790.51,-378.57 782.06,-384.97 792.65,-385.24 790.51,-378.57"/>
</g>
<!-- Node16 -->
<g id="node16" class="node">
<title>Node16</title>
<g id="a_node16"><a xlink:href="SwingFootPlanner_8h.html" target="_top" xlink:title=" ">
<polygon fill="none" stroke="black" points="668.5,-301.5 668.5,-342.5 840.5,-342.5 840.5,-301.5 668.5,-301.5"/>
<text text-anchor="start" x="676.5" y="-330.5" font-family="Helvetica,sans-Serif" font-size="10.00">Planners/include/Bipedal</text>
<text text-anchor="start" x="676.5" y="-319.5" font-family="Helvetica,sans-Serif" font-size="10.00">Locomotion/Planners/SwingFoot</text>
<text text-anchor="middle" x="754.5" y="-308.5" font-family="Helvetica,sans-Serif" font-size="10.00">Planner.h</text>
</a>
</g>
</g>
<!-- Node6&#45;&gt;Node16 -->
<g id="edge16" class="edge">
<title>Node6&#45;&gt;Node16</title>
<path fill="none" stroke="midnightblue" d="M743.63,-374.66C745.8,-364.33 748.3,-352.44 750.36,-342.68"/>
<polygon fill="midnightblue" stroke="midnightblue" points="740.14,-374.2 741.51,-384.7 746.99,-375.64 740.14,-374.2"/>
</g>
<!-- Node17 -->
<g id="node17" class="node">
<title>Node17</title>
<g id="a_node17"><a xlink:href="SwingFootPlanner_8cpp.html" target="_top" xlink:title=" ">
<polygon fill="none" stroke="black" points="715,-229 715,-248 900,-248 900,-229 715,-229"/>
<text text-anchor="middle" x="807.5" y="-236" font-family="Helvetica,sans-Serif" font-size="10.00">Planners/src/SwingFootPlanner.cpp</text>
</a>
</g>
</g>
<!-- Node6&#45;&gt;Node17 -->
<g id="edge18" class="edge">
<title>Node6&#45;&gt;Node17</title>
<path fill="none" stroke="midnightblue" d="M802.51,-381.01C820.87,-372.55 838.8,-360.38 849.5,-343 869.53,-310.47 833.86,-266.71 816.36,-248.27"/>
<polygon fill="midnightblue" stroke="midnightblue" points="801.02,-377.83 793.19,-384.98 803.77,-384.27 801.02,-377.83"/>
</g>
<!-- Node7&#45;&gt;Node8 -->
<g id="edge7" class="edge">
<title>Node7&#45;&gt;Node8</title>
<path fill="none" stroke="midnightblue" d="M505.77,-301.58C525.76,-288.75 551.87,-271.99 571.93,-259.12"/>
<polygon fill="midnightblue" stroke="midnightblue" points="503.86,-298.64 497.33,-306.99 507.64,-304.53 503.86,-298.64"/>
</g>
<!-- Node14 -->
<g id="node14" class="node">
<title>Node14</title>
<g id="a_node14"><a xlink:href="ContactPhase_8cpp.html" target="_top" xlink:title=" ">
<polygon fill="none" stroke="black" points="323,-229 323,-248 490,-248 490,-229 323,-229"/>
<text text-anchor="middle" x="406.5" y="-236" font-family="Helvetica,sans-Serif" font-size="10.00">Contacts/src/ContactPhase.cpp</text>
</a>
</g>
</g>
<!-- Node7&#45;&gt;Node14 -->
<g id="edge13" class="edge">
<title>Node7&#45;&gt;Node14</title>
<path fill="none" stroke="midnightblue" d="M456.93,-299.07C442.72,-282.28 423.88,-260.03 413.73,-248.04"/>
<polygon fill="midnightblue" stroke="midnightblue" points="454.35,-301.43 463.48,-306.8 459.69,-296.91 454.35,-301.43"/>
</g>
<!-- Node9 -->
<g id="node9" class="node">
<title>Node9</title>
<g id="a_node9"><a xlink:href="ContactPhaseList_8cpp_source.html" target="_top" xlink:title=" ">
<polygon fill="none" stroke="black" points="436.5,-145.5 436.5,-175.5 582.5,-175.5 582.5,-145.5 436.5,-145.5"/>
<text text-anchor="start" x="444.5" y="-163.5" font-family="Helvetica,sans-Serif" font-size="10.00">Contacts/src/ContactPhase</text>
<text text-anchor="middle" x="509.5" y="-152.5" font-family="Helvetica,sans-Serif" font-size="10.00">List.cpp</text>
</a>
</g>
</g>
<!-- Node8&#45;&gt;Node9 -->
<g id="edge8" class="edge">
<title>Node8&#45;&gt;Node9</title>
<path fill="none" stroke="midnightblue" d="M570.67,-211.49C556.02,-199.52 539.2,-185.77 526.91,-175.73"/>
<polygon fill="midnightblue" stroke="midnightblue" points="568.59,-214.31 578.55,-217.93 573.02,-208.89 568.59,-214.31"/>
</g>
<!-- Node10 -->
<g id="node10" class="node">
<title>Node10</title>
<g id="a_node10"><a xlink:href="DCMPlanner_8h.html" target="_top" xlink:title=" ">
<polygon fill="none" stroke="black" points="600.5,-145.5 600.5,-175.5 790.5,-175.5 790.5,-145.5 600.5,-145.5"/>
<text text-anchor="start" x="608.5" y="-163.5" font-family="Helvetica,sans-Serif" font-size="10.00">Planners/include/Bipedal</text>
<text text-anchor="middle" x="695.5" y="-152.5" font-family="Helvetica,sans-Serif" font-size="10.00">Locomotion/Planners/DCMPlanner.h</text>
</a>
</g>
</g>
<!-- Node8&#45;&gt;Node10 -->
<g id="edge9" class="edge">
<title>Node8&#45;&gt;Node10</title>
<path fill="none" stroke="midnightblue" d="M634.33,-211.49C648.98,-199.52 665.8,-185.77 678.09,-175.73"/>
<polygon fill="midnightblue" stroke="midnightblue" points="631.98,-208.89 626.45,-217.93 636.41,-214.31 631.98,-208.89"/>
</g>
<!-- Node11 -->
<g id="node11" class="node">
<title>Node11</title>
<g id="a_node11"><a xlink:href="TimeVaryingDCMPlanner_8h.html" target="_top" xlink:title=" ">
<polygon fill="none" stroke="black" points="510,-67.5 510,-108.5 693,-108.5 693,-67.5 510,-67.5"/>
<text text-anchor="start" x="518" y="-96.5" font-family="Helvetica,sans-Serif" font-size="10.00">Planners/include/Bipedal</text>
<text text-anchor="start" x="518" y="-85.5" font-family="Helvetica,sans-Serif" font-size="10.00">Locomotion/Planners/TimeVarying</text>
<text text-anchor="middle" x="601.5" y="-74.5" font-family="Helvetica,sans-Serif" font-size="10.00">DCMPlanner.h</text>
</a>
</g>
</g>
<!-- Node10&#45;&gt;Node11 -->
<g id="edge10" class="edge">
<title>Node10&#45;&gt;Node11</title>
<path fill="none" stroke="midnightblue" d="M668.45,-139.21C655.61,-129.58 640.33,-118.12 627.62,-108.59"/>
<polygon fill="midnightblue" stroke="midnightblue" points="666.38,-142.03 676.48,-145.23 670.58,-136.43 666.38,-142.03"/>
</g>
<!-- Node13 -->
<g id="node13" class="node">
<title>Node13</title>
<g id="a_node13"><a xlink:href="DCMPlanner_8cpp.html" target="_top" xlink:title=" ">
<polygon fill="none" stroke="black" points="711.5,-78.5 711.5,-97.5 869.5,-97.5 869.5,-78.5 711.5,-78.5"/>
<text text-anchor="middle" x="790.5" y="-85.5" font-family="Helvetica,sans-Serif" font-size="10.00">Planners/src/DCMPlanner.cpp</text>
</a>
</g>
</g>
<!-- Node10&#45;&gt;Node13 -->
<g id="edge12" class="edge">
<title>Node10&#45;&gt;Node13</title>
<path fill="none" stroke="midnightblue" d="M722.83,-139.22C741.36,-125.47 764.92,-107.98 778.79,-97.69"/>
<polygon fill="midnightblue" stroke="midnightblue" points="720.67,-136.46 714.72,-145.23 724.84,-142.08 720.67,-136.46"/>
</g>
<!-- Node12 -->
<g id="node12" class="node">
<title>Node12</title>
<g id="a_node12"><a xlink:href="TimeVaryingDCMPlanner_8cpp.html" target="_top" xlink:title=" ">
<polygon fill="none" stroke="black" points="531.5,-0.5 531.5,-30.5 671.5,-30.5 671.5,-0.5 531.5,-0.5"/>
<text text-anchor="start" x="539.5" y="-18.5" font-family="Helvetica,sans-Serif" font-size="10.00">Planners/src/TimeVarying</text>
<text text-anchor="middle" x="601.5" y="-7.5" font-family="Helvetica,sans-Serif" font-size="10.00">DCMPlanner.cpp</text>
</a>
</g>
</g>
<!-- Node11&#45;&gt;Node12 -->
<g id="edge11" class="edge">
<title>Node11&#45;&gt;Node12</title>
<path fill="none" stroke="midnightblue" d="M601.5,-57.08C601.5,-48.01 601.5,-38.45 601.5,-30.89"/>
<polygon fill="midnightblue" stroke="midnightblue" points="598,-57.36 601.5,-67.36 605,-57.36 598,-57.36"/>
</g>
<!-- Node16&#45;&gt;Node17 -->
<g id="edge17" class="edge">
<title>Node16&#45;&gt;Node17</title>
<path fill="none" stroke="midnightblue" d="M773.06,-292.46C783.21,-276.85 795.08,-258.6 801.9,-248.12"/>
<polygon fill="midnightblue" stroke="midnightblue" points="769.85,-290.98 767.33,-301.27 775.72,-294.8 769.85,-290.98"/>
</g>
<!-- Node20 -->
<g id="node20" class="node">
<title>Node20</title>
<g id="a_node20"><a xlink:href="FloatingBaseEstimator_8h.html" target="_top" xlink:title=" ">
<polygon fill="none" stroke="black" points="1070,-301.5 1070,-342.5 1285,-342.5 1285,-301.5 1070,-301.5"/>
<text text-anchor="start" x="1078" y="-330.5" font-family="Helvetica,sans-Serif" font-size="10.00">Estimators/include</text>
<text text-anchor="start" x="1078" y="-319.5" font-family="Helvetica,sans-Serif" font-size="10.00">/BipedalLocomotion/Floating</text>
<text text-anchor="middle" x="1177.5" y="-308.5" font-family="Helvetica,sans-Serif" font-size="10.00">BaseEstimators/FloatingBaseEstimator.h</text>
</a>
</g>
</g>
<!-- Node19&#45;&gt;Node20 -->
<g id="edge23" class="edge">
<title>Node19&#45;&gt;Node20</title>
<path fill="none" stroke="midnightblue" d="M1149.85,-370.76C1155.3,-361.35 1161.23,-351.1 1166.21,-342.51"/>
<polygon fill="midnightblue" stroke="midnightblue" points="1146.81,-369.02 1144.83,-379.43 1152.87,-372.53 1146.81,-369.02"/>
</g>
<!-- Node21 -->
<g id="node21" class="node">
<title>Node21</title>
<g id="a_node21"><a xlink:href="InvariantEKFBaseEstimator_8h.html" target="_top" xlink:title=" ">
<polygon fill="none" stroke="black" points="918.5,-212.5 918.5,-264.5 1100.5,-264.5 1100.5,-212.5 918.5,-212.5"/>
<text text-anchor="start" x="926.5" y="-252.5" font-family="Helvetica,sans-Serif" font-size="10.00">Estimators/include</text>
<text text-anchor="start" x="926.5" y="-241.5" font-family="Helvetica,sans-Serif" font-size="10.00">/BipedalLocomotion/Floating</text>
<text text-anchor="start" x="926.5" y="-230.5" font-family="Helvetica,sans-Serif" font-size="10.00">BaseEstimators/InvariantEKFBase</text>
<text text-anchor="middle" x="1009.5" y="-219.5" font-family="Helvetica,sans-Serif" font-size="10.00">Estimator.h</text>
</a>
</g>
</g>
<!-- Node20&#45;&gt;Node21 -->
<g id="edge24" class="edge">
<title>Node20&#45;&gt;Node21</title>
<path fill="none" stroke="midnightblue" d="M1128.16,-297.07C1107.1,-286.85 1082.51,-274.92 1061.19,-264.58"/>
<polygon fill="midnightblue" stroke="midnightblue" points="1126.73,-300.26 1137.26,-301.48 1129.79,-293.96 1126.73,-300.26"/>
</g>
<!-- Node23 -->
<g id="node23" class="node">
<title>Node23</title>
<g id="a_node23"><a xlink:href="LeggedOdometry_8h.html" target="_top" xlink:title=" ">
<polygon fill="none" stroke="black" points="1118.5,-218 1118.5,-259 1306.5,-259 1306.5,-218 1118.5,-218"/>
<text text-anchor="start" x="1126.5" y="-247" font-family="Helvetica,sans-Serif" font-size="10.00">Estimators/include</text>
<text text-anchor="start" x="1126.5" y="-236" font-family="Helvetica,sans-Serif" font-size="10.00">/BipedalLocomotion/Floating</text>
<text text-anchor="middle" x="1212.5" y="-225" font-family="Helvetica,sans-Serif" font-size="10.00">BaseEstimators/LeggedOdometry.h</text>
</a>
</g>
</g>
<!-- Node20&#45;&gt;Node23 -->
<g id="edge26" class="edge">
<title>Node20&#45;&gt;Node23</title>
<path fill="none" stroke="midnightblue" d="M1189.93,-292.06C1194.63,-281.12 1199.86,-268.93 1204.11,-259.05"/>
<polygon fill="midnightblue" stroke="midnightblue" points="1186.7,-290.7 1185.97,-301.27 1193.13,-293.46 1186.7,-290.7"/>
</g>
<!-- Node25 -->
<g id="node25" class="node">
<title>Node25</title>
<g id="a_node25"><a xlink:href="FloatingBaseEstimator_8cpp.html" target="_top" xlink:title=" ">
<polygon fill="none" stroke="black" points="1325,-223.5 1325,-253.5 1478,-253.5 1478,-223.5 1325,-223.5"/>
<text text-anchor="start" x="1333" y="-241.5" font-family="Helvetica,sans-Serif" font-size="10.00">Estimators/src/FloatingBase</text>
<text text-anchor="middle" x="1401.5" y="-230.5" font-family="Helvetica,sans-Serif" font-size="10.00">Estimator.cpp</text>
</a>
</g>
</g>
<!-- Node20&#45;&gt;Node25 -->
<g id="edge28" class="edge">
<title>Node20&#45;&gt;Node25</title>
<path fill="none" stroke="midnightblue" d="M1240.92,-297.92C1280.25,-283.61 1329.5,-265.7 1363.01,-253.5"/>
<polygon fill="midnightblue" stroke="midnightblue" points="1239.35,-294.77 1231.15,-301.48 1241.75,-301.35 1239.35,-294.77"/>
</g>
<!-- Node22 -->
<g id="node22" class="node">
<title>Node22</title>
<g id="a_node22"><a xlink:href="InvariantEKFBaseEstimator_8cpp.html" target="_top" xlink:title=" ">
<polygon fill="none" stroke="black" points="943,-145.5 943,-175.5 1076,-175.5 1076,-145.5 943,-145.5"/>
<text text-anchor="start" x="951" y="-163.5" font-family="Helvetica,sans-Serif" font-size="10.00">Estimators/src/Invariant</text>
<text text-anchor="middle" x="1009.5" y="-152.5" font-family="Helvetica,sans-Serif" font-size="10.00">EKFBaseEstimator.cpp</text>
</a>
</g>
</g>
<!-- Node21&#45;&gt;Node22 -->
<g id="edge25" class="edge">
<title>Node21&#45;&gt;Node22</title>
<path fill="none" stroke="midnightblue" d="M1009.5,-201.96C1009.5,-192.72 1009.5,-183.28 1009.5,-175.85"/>
<polygon fill="midnightblue" stroke="midnightblue" points="1006,-202.19 1009.5,-212.19 1013,-202.19 1006,-202.19"/>
</g>
<!-- Node24 -->
<g id="node24" class="node">
<title>Node24</title>
<g id="a_node24"><a xlink:href="LeggedOdometry_8cpp.html" target="_top" xlink:title=" ">
<polygon fill="none" stroke="black" points="1116.5,-151 1116.5,-170 1308.5,-170 1308.5,-151 1116.5,-151"/>
<text text-anchor="middle" x="1212.5" y="-158" font-family="Helvetica,sans-Serif" font-size="10.00">Estimators/src/LeggedOdometry.cpp</text>
</a>
</g>
</g>
<!-- Node23&#45;&gt;Node24 -->
<g id="edge27" class="edge">
<title>Node23&#45;&gt;Node24</title>
<path fill="none" stroke="midnightblue" d="M1212.5,-207.55C1212.5,-194.06 1212.5,-179.15 1212.5,-170.05"/>
<polygon fill="midnightblue" stroke="midnightblue" points="1209,-207.93 1212.5,-217.93 1216,-207.93 1209,-207.93"/>
</g>
<!-- Node27 -->
<g id="node27" class="node">
<title>Node27</title>
<g id="a_node27"><a xlink:href="TaskSpaceInverseDynamics_8cpp.html" target="_top" xlink:title=" ">
<polygon fill="none" stroke="black" points="1303.5,-307 1303.5,-337 1449.5,-337 1449.5,-307 1303.5,-307"/>
<text text-anchor="start" x="1311.5" y="-325" font-family="Helvetica,sans-Serif" font-size="10.00">TSID/src/TaskSpaceInverse</text>
<text text-anchor="middle" x="1376.5" y="-314" font-family="Helvetica,sans-Serif" font-size="10.00">Dynamics.cpp</text>
</a>
</g>
</g>
<!-- Node26&#45;&gt;Node27 -->
<g id="edge30" class="edge">
<title>Node26&#45;&gt;Node27</title>
<path fill="none" stroke="midnightblue" d="M1371.07,-374.59C1372.37,-362.26 1373.9,-347.72 1375,-337.23"/>
<polygon fill="midnightblue" stroke="midnightblue" points="1367.57,-374.39 1370,-384.7 1374.53,-375.13 1367.57,-374.39"/>
</g>
</g>
</svg>
