<?xml version="1.0" encoding="UTF-8" standalone="no"?>
<!DOCTYPE svg PUBLIC "-//W3C//DTD SVG 1.1//EN"
 "http://www.w3.org/Graphics/SVG/1.1/DTD/svg11.dtd">
<!-- Generated by graphviz version 2.43.0 (0)
 -->
<!-- Title: Contacts Pages: 1 -->
<svg width="238pt" height="348pt"
 viewBox="0.00 0.00 238.00 348.00" xmlns="http://www.w3.org/2000/svg" xmlns:xlink="http://www.w3.org/1999/xlink">
<g id="graph0" class="graph" transform="scale(1 1) rotate(0) translate(4 344)">
<title>Contacts</title>
<g id="clust1" class="cluster">
<title>clusterdir_50541d64f188ef934de78ba6c49ffdbe</title>
<g id="a_clust1"><a xlink:href="dir_50541d64f188ef934de78ba6c49ffdbe.html" target="_top">
<polygon fill="#eeeeff" stroke="black" points="74,-208 74,-332 222,-332 222,-208 74,-208"/>
</a>
</g>
</g>
<!-- dir_50541d64f188ef934de78ba6c49ffdbe -->
<g id="node1" class="node">
<title>dir_50541d64f188ef934de78ba6c49ffdbe</title>
<text text-anchor="middle" x="184" y="-303.5" font-family="Helvetica,sans-Serif" font-size="10.00">Contacts</text>
</g>
<!-- dir_8b8b9ea914891d9a3d7877d38bac2629 -->
<g id="node2" class="node">
<title>dir_8b8b9ea914891d9a3d7877d38bac2629</title>
<g id="a_node2"><a xlink:href="dir_8b8b9ea914891d9a3d7877d38bac2629.html" target="_top" xlink:title="include">
<polygon fill="white" stroke="red" points="136,-252 82,-252 82,-216 136,-216 136,-252"/>
<text text-anchor="middle" x="109" y="-231.5" font-family="Helvetica,sans-Serif" font-size="10.00">include</text>
</a>
</g>
</g>
<!-- dir_ef68f1e1f5148ff8ef7fb1c955106c3c -->
<g id="node4" class="node">
<title>dir_ef68f1e1f5148ff8ef7fb1c955106c3c</title>
<g id="a_node4"><a xlink:href="dir_ef68f1e1f5148ff8ef7fb1c955106c3c.html" target="_top" xlink:title="System">
<polygon fill="none" stroke="red" points="54,-180 0,-180 0,-144 54,-144 54,-180"/>
<text text-anchor="middle" x="27" y="-159.5" font-family="Helvetica,sans-Serif" font-size="10.00">System</text>
</a>
</g>
</g>
<!-- dir_8b8b9ea914891d9a3d7877d38bac2629&#45;&gt;dir_ef68f1e1f5148ff8ef7fb1c955106c3c -->
<g id="edge7" class="edge">
<title>dir_8b8b9ea914891d9a3d7877d38bac2629&#45;&gt;dir_ef68f1e1f5148ff8ef7fb1c955106c3c</title>
<path fill="none" stroke="black" d="M88.73,-215.7C78.5,-206.97 65.94,-196.24 54.82,-186.75"/>
<polygon fill="black" stroke="black" points="56.91,-183.94 47.04,-180.1 52.37,-189.26 56.91,-183.94"/>
<g id="a_edge7&#45;headlabel"><a xlink:href="dir_000012_000084.html" target="_top" xlink:title="1">
<text text-anchor="middle" x="61.49" y="-181.61" font-family="Helvetica,sans-Serif" font-size="10.00">1</text>
</a>
</g>
</g>
<!-- dir_3813464283bee2267f39dcf080a84d74 -->
<g id="node6" class="node">
<title>dir_3813464283bee2267f39dcf080a84d74</title>
<g id="a_node6"><a xlink:href="dir_3813464283bee2267f39dcf080a84d74.html" target="_top" xlink:title="Math">
<polygon fill="none" stroke="red" points="164,-180 110,-180 110,-144 164,-144 164,-180"/>
<text text-anchor="middle" x="137" y="-159.5" font-family="Helvetica,sans-Serif" font-size="10.00">Math</text>
</a>
</g>
</g>
<!-- dir_8b8b9ea914891d9a3d7877d38bac2629&#45;&gt;dir_3813464283bee2267f39dcf080a84d74 -->
<g id="edge8" class="edge">
<title>dir_8b8b9ea914891d9a3d7877d38bac2629&#45;&gt;dir_3813464283bee2267f39dcf080a84d74</title>
<path fill="none" stroke="black" d="M115.92,-215.7C119.07,-207.81 122.88,-198.3 126.38,-189.55"/>
<polygon fill="black" stroke="black" points="129.69,-190.69 130.16,-180.1 123.19,-188.09 129.69,-190.69"/>
<g id="a_edge8&#45;headlabel"><a xlink:href="dir_000012_000047.html" target="_top" xlink:title="1">
<text text-anchor="middle" x="131" y="-192.58" font-family="Helvetica,sans-Serif" font-size="10.00">1</text>
</a>
</g>
</g>
<!-- dir_995a11a27ec5ce2fce465ebbab555255 -->
<g id="node7" class="node">
<title>dir_995a11a27ec5ce2fce465ebbab555255</title>
<g id="a_node7"><a xlink:href="dir_995a11a27ec5ce2fce465ebbab555255.html" target="_top" xlink:title="ParametersHandler">
<polygon fill="none" stroke="red" points="132,-108 22,-108 22,-72 132,-72 132,-108"/>
<text text-anchor="middle" x="77" y="-87.5" font-family="Helvetica,sans-Serif" font-size="10.00">ParametersHandler</text>
</a>
</g>
</g>
<!-- dir_8b8b9ea914891d9a3d7877d38bac2629&#45;&gt;dir_995a11a27ec5ce2fce465ebbab555255 -->
<g id="edge9" class="edge">
<title>dir_8b8b9ea914891d9a3d7877d38bac2629&#45;&gt;dir_995a11a27ec5ce2fce465ebbab555255</title>
<path fill="none" stroke="black" d="M105.14,-215.87C99.66,-191.56 89.58,-146.82 83.09,-118.01"/>
<polygon fill="black" stroke="black" points="86.49,-117.18 80.87,-108.19 79.66,-118.71 86.49,-117.18"/>
<g id="a_edge9&#45;headlabel"><a xlink:href="dir_000012_000052.html" target="_top" xlink:title="1">
<text text-anchor="middle" x="90.05" y="-117.56" font-family="Helvetica,sans-Serif" font-size="10.00">1</text>
</a>
</g>
</g>
<!-- dir_274c91e80578e5d4e4060e91dfb477c8 -->
<g id="node3" class="node">
<title>dir_274c91e80578e5d4e4060e91dfb477c8</title>
<g id="a_node3"><a xlink:href="dir_274c91e80578e5d4e4060e91dfb477c8.html" target="_top" xlink:title="src">
<polygon fill="white" stroke="black" points="136,-324 82,-324 82,-288 136,-288 136,-324"/>
<text text-anchor="middle" x="109" y="-303.5" font-family="Helvetica,sans-Serif" font-size="10.00">src</text>
</a>
</g>
</g>
<!-- dir_274c91e80578e5d4e4060e91dfb477c8&#45;&gt;dir_8b8b9ea914891d9a3d7877d38bac2629 -->
<g id="edge2" class="edge">
<title>dir_274c91e80578e5d4e4060e91dfb477c8&#45;&gt;dir_8b8b9ea914891d9a3d7877d38bac2629</title>
<path fill="none" stroke="black" d="M109,-287.7C109,-279.98 109,-270.71 109,-262.11"/>
<polygon fill="black" stroke="black" points="112.5,-262.1 109,-252.1 105.5,-262.1 112.5,-262.1"/>
<g id="a_edge2&#45;headlabel"><a xlink:href="dir_000016_000012.html" target="_top" xlink:title="5">
<text text-anchor="middle" x="115.34" y="-263.2" font-family="Helvetica,sans-Serif" font-size="10.00">5</text>
</a>
</g>
</g>
<!-- dir_4118ae531ffdde861fee1c6efaa3009d -->
<g id="node5" class="node">
<title>dir_4118ae531ffdde861fee1c6efaa3009d</title>
<g id="a_node5"><a xlink:href="dir_4118ae531ffdde861fee1c6efaa3009d.html" target="_top" xlink:title="TextLogging">
<polygon fill="none" stroke="red" points="155.5,-36 80.5,-36 80.5,0 155.5,0 155.5,-36"/>
<text text-anchor="middle" x="118" y="-15.5" font-family="Helvetica,sans-Serif" font-size="10.00">TextLogging</text>
</a>
</g>
</g>
<!-- dir_274c91e80578e5d4e4060e91dfb477c8&#45;&gt;dir_4118ae531ffdde861fee1c6efaa3009d -->
<g id="edge1" class="edge">
<title>dir_274c91e80578e5d4e4060e91dfb477c8&#45;&gt;dir_4118ae531ffdde861fee1c6efaa3009d</title>
<path fill="none" stroke="black" d="M122.03,-287.95C129.38,-277.85 138.38,-264.6 145,-252 160.97,-221.61 166.67,-213.75 173,-180 181.95,-132.31 177.07,-116.18 157,-72 152.6,-62.33 146.26,-52.69 139.95,-44.33"/>
<polygon fill="black" stroke="black" points="142.68,-42.14 133.74,-36.46 137.18,-46.47 142.68,-42.14"/>
<g id="a_edge1&#45;headlabel"><a xlink:href="dir_000016_000094.html" target="_top" xlink:title="1">
<text text-anchor="middle" x="147.14" y="-40.7" font-family="Helvetica,sans-Serif" font-size="10.00">1</text>
</a>
</g>
</g>
<!-- dir_ef68f1e1f5148ff8ef7fb1c955106c3c&#45;&gt;dir_4118ae531ffdde861fee1c6efaa3009d -->
<g id="edge3" class="edge">
<title>dir_ef68f1e1f5148ff8ef7fb1c955106c3c&#45;&gt;dir_4118ae531ffdde861fee1c6efaa3009d</title>
<path fill="none" stroke="black" d="M17.98,-143.93C9.32,-124.97 -0.61,-94.11 13,-72 25.67,-51.41 49.07,-38.53 70.57,-30.64"/>
<polygon fill="black" stroke="black" points="71.92,-33.87 80.27,-27.35 69.68,-27.24 71.92,-33.87"/>
<g id="a_edge3&#45;headlabel"><a xlink:href="dir_000084_000094.html" target="_top" xlink:title="4">
<text text-anchor="middle" x="69.43" y="-35.22" font-family="Helvetica,sans-Serif" font-size="10.00">4</text>
</a>
</g>
</g>
<!-- dir_ef68f1e1f5148ff8ef7fb1c955106c3c&#45;&gt;dir_995a11a27ec5ce2fce465ebbab555255 -->
<g id="edge4" class="edge">
<title>dir_ef68f1e1f5148ff8ef7fb1c955106c3c&#45;&gt;dir_995a11a27ec5ce2fce465ebbab555255</title>
<path fill="none" stroke="black" d="M39.36,-143.7C45.23,-135.47 52.37,-125.48 58.84,-116.42"/>
<polygon fill="black" stroke="black" points="61.82,-118.28 64.78,-108.1 56.12,-114.21 61.82,-118.28"/>
<g id="a_edge4&#45;headlabel"><a xlink:href="dir_000084_000052.html" target="_top" xlink:title="4">
<text text-anchor="middle" x="62.04" y="-120.35" font-family="Helvetica,sans-Serif" font-size="10.00">4</text>
</a>
</g>
</g>
<!-- dir_3813464283bee2267f39dcf080a84d74&#45;&gt;dir_4118ae531ffdde861fee1c6efaa3009d -->
<g id="edge5" class="edge">
<title>dir_3813464283bee2267f39dcf080a84d74&#45;&gt;dir_4118ae531ffdde861fee1c6efaa3009d</title>
<path fill="none" stroke="black" d="M140.28,-143.74C143.14,-125.66 146.09,-96.53 141,-72 139.12,-62.96 135.63,-53.58 131.91,-45.26"/>
<polygon fill="black" stroke="black" points="135,-43.6 127.54,-36.07 128.68,-46.61 135,-43.6"/>
<g id="a_edge5&#45;headlabel"><a xlink:href="dir_000047_000094.html" target="_top" xlink:title="1">
<text text-anchor="middle" x="139.11" y="-43.12" font-family="Helvetica,sans-Serif" font-size="10.00">1</text>
</a>
</g>
</g>
<!-- dir_3813464283bee2267f39dcf080a84d74&#45;&gt;dir_995a11a27ec5ce2fce465ebbab555255 -->
<g id="edge6" class="edge">
<title>dir_3813464283bee2267f39dcf080a84d74&#45;&gt;dir_995a11a27ec5ce2fce465ebbab555255</title>
<path fill="none" stroke="black" d="M122.17,-143.7C114.98,-135.3 106.2,-125.07 98.31,-115.86"/>
<polygon fill="black" stroke="black" points="100.83,-113.42 91.66,-108.1 95.51,-117.97 100.83,-113.42"/>
<g id="a_edge6&#45;headlabel"><a xlink:href="dir_000047_000052.html" target="_top" xlink:title="2">
<text text-anchor="middle" x="105.32" y="-111.8" font-family="Helvetica,sans-Serif" font-size="10.00">2</text>
</a>
</g>
</g>
<!-- dir_995a11a27ec5ce2fce465ebbab555255&#45;&gt;dir_4118ae531ffdde861fee1c6efaa3009d -->
<g id="edge10" class="edge">
<title>dir_995a11a27ec5ce2fce465ebbab555255&#45;&gt;dir_4118ae531ffdde861fee1c6efaa3009d</title>
<path fill="none" stroke="black" d="M87.13,-71.7C91.85,-63.64 97.56,-53.89 102.78,-44.98"/>
<polygon fill="black" stroke="black" points="105.95,-46.5 107.98,-36.1 99.91,-42.96 105.95,-46.5"/>
<g id="a_edge10&#45;headlabel"><a xlink:href="dir_000052_000094.html" target="_top" xlink:title="3">
<text text-anchor="middle" x="106.58" y="-48.54" font-family="Helvetica,sans-Serif" font-size="10.00">3</text>
</a>
</g>
</g>
</g>
</svg>
