<?xml version="1.0" encoding="UTF-8" standalone="no"?>
<!DOCTYPE svg PUBLIC "-//W3C//DTD SVG 1.1//EN"
 "http://www.w3.org/Graphics/SVG/1.1/DTD/svg11.dtd">
<!-- Generated by graphviz version 2.43.0 (0)
 -->
<!-- Title: Graphical Class Hierarchy Pages: 1 -->
<svg width="293pt" height="254pt"
 viewBox="0.00 0.00 293.00 253.50" xmlns="http://www.w3.org/2000/svg" xmlns:xlink="http://www.w3.org/1999/xlink">
<g id="graph0" class="graph" transform="scale(1 1) rotate(0) translate(4 249.5)">
<title>Graphical Class Hierarchy</title>
<!-- Node0 -->
<g id="node1" class="node">
<title>Node0</title>
<g id="a_node1"><a xlink:href="https://en.cppreference.com/w/cpp/types/integral_constant.html" xlink:title=" ">
<polygon fill="none" stroke="black" points="0,-110.5 0,-129.5 89,-129.5 89,-110.5 0,-110.5"/>
<text text-anchor="middle" x="44.5" y="-117.5" font-family="Helvetica,sans-Serif" font-size="10.00">std::false_type</text>
</a>
</g>
</g>
<!-- Node1 -->
<g id="node2" class="node">
<title>Node1</title>
<g id="a_node2"><a xlink:href="structBipedalLocomotion_1_1GenericContainer_1_1is__span__constructible.html" target="_top" xlink:title="is_span_constructible is a utility metafunction to check if iDynTree::Span is constructible given a r...">
<polygon fill="none" stroke="black" points="144,-193 144,-245 266,-245 266,-193 144,-193"/>
<text text-anchor="start" x="152" y="-233" font-family="Helvetica,sans-Serif" font-size="10.00">BipedalLocomotion::</text>
<text text-anchor="start" x="152" y="-222" font-family="Helvetica,sans-Serif" font-size="10.00">GenericContainer::is</text>
<text text-anchor="start" x="152" y="-211" font-family="Helvetica,sans-Serif" font-size="10.00">_span_constructible&lt;</text>
<text text-anchor="middle" x="205" y="-200" font-family="Helvetica,sans-Serif" font-size="10.00"> Class, typename &gt;</text>
</a>
</g>
</g>
<!-- Node0&#45;&gt;Node1 -->
<g id="edge1" class="edge">
<title>Node0&#45;&gt;Node1</title>
<path fill="none" stroke="midnightblue" d="M63.98,-136.78C79.51,-150.34 102.69,-169.36 125,-183 130.91,-186.62 137.25,-190.1 143.68,-193.37"/>
<polygon fill="midnightblue" stroke="midnightblue" points="66,-133.89 56.19,-129.87 61.35,-139.13 66,-133.89"/>
</g>
<!-- Node2 -->
<g id="node3" class="node">
<title>Node2</title>
<g id="a_node3"><a xlink:href="structBipedalLocomotion_1_1GenericContainer_1_1is__vector.html" target="_top" xlink:title="is_vector is a utility metafunction used to check if T is a GenericContainer::Vector.">
<polygon fill="none" stroke="black" points="147,-132.5 147,-173.5 263,-173.5 263,-132.5 147,-132.5"/>
<text text-anchor="start" x="155" y="-161.5" font-family="Helvetica,sans-Serif" font-size="10.00">BipedalLocomotion::</text>
<text text-anchor="start" x="155" y="-150.5" font-family="Helvetica,sans-Serif" font-size="10.00">GenericContainer::is</text>
<text text-anchor="middle" x="205" y="-139.5" font-family="Helvetica,sans-Serif" font-size="10.00">_vector&lt; T &gt;</text>
</a>
</g>
</g>
<!-- Node0&#45;&gt;Node2 -->
<g id="edge2" class="edge">
<title>Node0&#45;&gt;Node2</title>
<path fill="none" stroke="midnightblue" d="M99.08,-131.15C114.42,-134.35 131.2,-137.84 146.75,-141.08"/>
<polygon fill="midnightblue" stroke="midnightblue" points="99.73,-127.72 89.23,-129.1 98.31,-134.57 99.73,-127.72"/>
</g>
<!-- Node3 -->
<g id="node4" class="node">
<title>Node3</title>
<g id="a_node4"><a xlink:href="structBipedalLocomotion_1_1GenericContainer_1_1is__vector__constructible.html" target="_top" xlink:title="is_vector_constructible is a utility metafunction to check if GenericContainer::Vector is constructib...">
<polygon fill="none" stroke="black" points="127,-61 127,-113 283,-113 283,-61 127,-61"/>
<text text-anchor="start" x="135" y="-101" font-family="Helvetica,sans-Serif" font-size="10.00">BipedalLocomotion::</text>
<text text-anchor="start" x="135" y="-90" font-family="Helvetica,sans-Serif" font-size="10.00">GenericContainer::is</text>
<text text-anchor="start" x="135" y="-79" font-family="Helvetica,sans-Serif" font-size="10.00">_vector_constructible</text>
<text text-anchor="middle" x="205" y="-68" font-family="Helvetica,sans-Serif" font-size="10.00">&lt; T, typename, typename &gt;</text>
</a>
</g>
</g>
<!-- Node0&#45;&gt;Node3 -->
<g id="edge3" class="edge">
<title>Node0&#45;&gt;Node3</title>
<path fill="none" stroke="midnightblue" d="M99.12,-108.84C108.08,-106.97 117.54,-105 126.96,-103.04"/>
<polygon fill="midnightblue" stroke="midnightblue" points="98.31,-105.43 89.23,-110.9 99.73,-112.28 98.31,-105.43"/>
</g>
<!-- Node4 -->
<g id="node5" class="node">
<title>Node4</title>
<g id="a_node5"><a xlink:href="structBipedalLocomotion_1_1has__square__bracket__operator.html" target="_top" xlink:title="has_square_bracket_operator is used to build a type&#45;dependent expression that check if an element has...">
<polygon fill="none" stroke="black" points="125,-0.5 125,-41.5 285,-41.5 285,-0.5 125,-0.5"/>
<text text-anchor="start" x="133" y="-29.5" font-family="Helvetica,sans-Serif" font-size="10.00">BipedalLocomotion::</text>
<text text-anchor="start" x="133" y="-18.5" font-family="Helvetica,sans-Serif" font-size="10.00">has_square_bracket_operator</text>
<text text-anchor="middle" x="205" y="-7.5" font-family="Helvetica,sans-Serif" font-size="10.00">&lt; T, typename &gt;</text>
</a>
</g>
</g>
<!-- Node0&#45;&gt;Node4 -->
<g id="edge4" class="edge">
<title>Node0&#45;&gt;Node4</title>
<path fill="none" stroke="midnightblue" d="M62.1,-102.86C77.35,-87.88 101.13,-66.33 125,-52 131.32,-48.21 138.18,-44.71 145.13,-41.55"/>
<polygon fill="midnightblue" stroke="midnightblue" points="59.54,-100.48 54.95,-110.03 64.49,-105.42 59.54,-100.48"/>
</g>
</g>
</svg>
