<?xml version="1.0" encoding="UTF-8" standalone="no"?>
<!DOCTYPE svg PUBLIC "-//W3C//DTD SVG 1.1//EN"
 "http://www.w3.org/Graphics/SVG/1.1/DTD/svg11.dtd">
<!-- Generated by graphviz version 2.43.0 (0)
 -->
<!-- Title: TextLogging/include/BipedalLocomotion/TextLogging/Logger.h Pages: 1 -->
<svg width="5974pt" height="462pt"
 viewBox="0.00 0.00 5973.50 462.00" xmlns="http://www.w3.org/2000/svg" xmlns:xlink="http://www.w3.org/1999/xlink">
<g id="graph0" class="graph" transform="scale(1 1) rotate(0) translate(4 458)">
<title>TextLogging/include/BipedalLocomotion/TextLogging/Logger.h</title>
<!-- Node1 -->
<g id="node1" class="node">
<title>Node1</title>
<g id="a_node1"><a xlink:title=" ">
<polygon fill="#bfbfbf" stroke="black" points="2817.5,-412.5 2817.5,-453.5 2992.5,-453.5 2992.5,-412.5 2817.5,-412.5"/>
<text text-anchor="start" x="2825.5" y="-441.5" font-family="Helvetica,sans-Serif" font-size="10.00">TextLogging/include</text>
<text text-anchor="start" x="2825.5" y="-430.5" font-family="Helvetica,sans-Serif" font-size="10.00">/BipedalLocomotion/TextLogging</text>
<text text-anchor="middle" x="2905" y="-419.5" font-family="Helvetica,sans-Serif" font-size="10.00">/Logger.h</text>
</a>
</g>
</g>
<!-- Node2 -->
<g id="node2" class="node">
<title>Node2</title>
<g id="a_node2"><a xlink:href="ContactPhaseList_8cpp_source.html" target="_top" xlink:title=" ">
<polygon fill="none" stroke="black" points="0,-334.5 0,-364.5 146,-364.5 146,-334.5 0,-334.5"/>
<text text-anchor="start" x="8" y="-352.5" font-family="Helvetica,sans-Serif" font-size="10.00">Contacts/src/ContactPhase</text>
<text text-anchor="middle" x="73" y="-341.5" font-family="Helvetica,sans-Serif" font-size="10.00">List.cpp</text>
</a>
</g>
</g>
<!-- Node1&#45;&gt;Node2 -->
<g id="edge1" class="edge">
<title>Node1&#45;&gt;Node2</title>
<path fill="none" stroke="midnightblue" d="M2807,-431.54C2348.38,-429.16 425.26,-416.84 160,-376 144.29,-373.58 127.43,-369.1 112.78,-364.56"/>
<polygon fill="midnightblue" stroke="midnightblue" points="2807.22,-435.04 2817.23,-431.59 2807.25,-428.04 2807.22,-435.04"/>
</g>
<!-- Node3 -->
<g id="node3" class="node">
<title>Node3</title>
<g id="a_node3"><a xlink:href="FixedStepIntegrator_8h.html" target="_top" xlink:title=" ">
<polygon fill="none" stroke="black" points="147,-234.5 147,-286.5 311,-286.5 311,-234.5 147,-234.5"/>
<text text-anchor="start" x="155" y="-274.5" font-family="Helvetica,sans-Serif" font-size="10.00">ContinuousDynamicalSystem</text>
<text text-anchor="start" x="155" y="-263.5" font-family="Helvetica,sans-Serif" font-size="10.00">/include/BipedalLocomotion</text>
<text text-anchor="start" x="155" y="-252.5" font-family="Helvetica,sans-Serif" font-size="10.00">/ContinuousDynamicalSystem</text>
<text text-anchor="middle" x="229" y="-241.5" font-family="Helvetica,sans-Serif" font-size="10.00">/FixedStepIntegrator.h</text>
</a>
</g>
</g>
<!-- Node1&#45;&gt;Node3 -->
<g id="edge2" class="edge">
<title>Node1&#45;&gt;Node3</title>
<path fill="none" stroke="midnightblue" d="M2807.18,-431.84C2326.91,-430.81 239.65,-423.63 193,-376 169.38,-351.88 190.07,-312.44 208.45,-286.72"/>
<polygon fill="midnightblue" stroke="midnightblue" points="2807.2,-435.34 2817.21,-431.86 2807.22,-428.34 2807.2,-435.34"/>
</g>
<!-- Node5 -->
<g id="node5" class="node">
<title>Node5</title>
<g id="a_node5"><a xlink:href="Integrator_8h.html" target="_top" xlink:title=" ">
<polygon fill="none" stroke="black" points="202,-323.5 202,-375.5 366,-375.5 366,-323.5 202,-323.5"/>
<text text-anchor="start" x="210" y="-363.5" font-family="Helvetica,sans-Serif" font-size="10.00">ContinuousDynamicalSystem</text>
<text text-anchor="start" x="210" y="-352.5" font-family="Helvetica,sans-Serif" font-size="10.00">/include/BipedalLocomotion</text>
<text text-anchor="start" x="210" y="-341.5" font-family="Helvetica,sans-Serif" font-size="10.00">/ContinuousDynamicalSystem</text>
<text text-anchor="middle" x="284" y="-330.5" font-family="Helvetica,sans-Serif" font-size="10.00">/Integrator.h</text>
</a>
</g>
</g>
<!-- Node1&#45;&gt;Node5 -->
<g id="edge4" class="edge">
<title>Node1&#45;&gt;Node5</title>
<path fill="none" stroke="midnightblue" d="M2807.26,-431.29C2371.68,-427.91 618.27,-412.19 375,-376 372.08,-375.57 369.12,-375.07 366.14,-374.51"/>
<polygon fill="midnightblue" stroke="midnightblue" points="2807.27,-434.79 2817.3,-431.36 2807.32,-427.79 2807.27,-434.79"/>
</g>
<!-- Node6 -->
<g id="node6" class="node">
<title>Node6</title>
<g id="a_node6"><a xlink:href="FixedBaseDynamics_8cpp_source.html" target="_top" xlink:title=" ">
<polygon fill="none" stroke="black" points="384.5,-334.5 384.5,-364.5 545.5,-364.5 545.5,-334.5 384.5,-334.5"/>
<text text-anchor="start" x="392.5" y="-352.5" font-family="Helvetica,sans-Serif" font-size="10.00">ContinuousDynamicalSystem</text>
<text text-anchor="middle" x="465" y="-341.5" font-family="Helvetica,sans-Serif" font-size="10.00">/src/FixedBaseDynamics.cpp</text>
</a>
</g>
</g>
<!-- Node1&#45;&gt;Node6 -->
<g id="edge6" class="edge">
<title>Node1&#45;&gt;Node6</title>
<path fill="none" stroke="midnightblue" d="M2807.1,-431.12C2390.92,-427.2 779.6,-409.94 555,-376 538.78,-373.55 521.35,-369.06 506.19,-364.53"/>
<polygon fill="midnightblue" stroke="midnightblue" points="2807.27,-434.63 2817.3,-431.22 2807.34,-427.63 2807.27,-434.63"/>
</g>
<!-- Node7 -->
<g id="node7" class="node">
<title>Node7</title>
<g id="a_node7"><a xlink:href="FloatingBaseDynamicsWithCompliantContacts_8cpp.html" target="_top" xlink:title=" ">
<polygon fill="none" stroke="black" points="564,-329 564,-370 786,-370 786,-329 564,-329"/>
<text text-anchor="start" x="572" y="-358" font-family="Helvetica,sans-Serif" font-size="10.00">ContinuousDynamicalSystem</text>
<text text-anchor="start" x="572" y="-347" font-family="Helvetica,sans-Serif" font-size="10.00">/src/FloatingBaseDynamicsWithCompliant</text>
<text text-anchor="middle" x="675" y="-336" font-family="Helvetica,sans-Serif" font-size="10.00">Contacts.cpp</text>
</a>
</g>
</g>
<!-- Node1&#45;&gt;Node7 -->
<g id="edge7" class="edge">
<title>Node1&#45;&gt;Node7</title>
<path fill="none" stroke="midnightblue" d="M2807.23,-431.78C2446.73,-430.59 1192.27,-423.08 795,-376 782.73,-374.55 769.86,-372.44 757.3,-370.06"/>
<polygon fill="midnightblue" stroke="midnightblue" points="2807.37,-435.28 2817.38,-431.81 2807.39,-428.28 2807.37,-435.28"/>
</g>
<!-- Node8 -->
<g id="node8" class="node">
<title>Node8</title>
<g id="a_node8"><a xlink:href="FloatingBaseSystemKinematics_8cpp.html" target="_top" xlink:title=" ">
<polygon fill="none" stroke="black" points="804,-334.5 804,-364.5 1016,-364.5 1016,-334.5 804,-334.5"/>
<text text-anchor="start" x="812" y="-352.5" font-family="Helvetica,sans-Serif" font-size="10.00">ContinuousDynamicalSystem</text>
<text text-anchor="middle" x="910" y="-341.5" font-family="Helvetica,sans-Serif" font-size="10.00">/src/FloatingBaseSystemKinematics.cpp</text>
</a>
</g>
</g>
<!-- Node1&#45;&gt;Node8 -->
<g id="edge8" class="edge">
<title>Node1&#45;&gt;Node8</title>
<path fill="none" stroke="midnightblue" d="M2807.34,-431.52C2472.88,-429.5 1374.97,-419.62 1025,-376 1004.71,-373.47 982.72,-369.03 963.46,-364.55"/>
<polygon fill="midnightblue" stroke="midnightblue" points="2807.46,-435.02 2817.48,-431.58 2807.5,-428.02 2807.46,-435.02"/>
</g>
<!-- Node9 -->
<g id="node9" class="node">
<title>Node9</title>
<g id="a_node9"><a xlink:href="LinearTimeInvariantSystem_8cpp.html" target="_top" xlink:title=" ">
<polygon fill="none" stroke="black" points="1034,-334.5 1034,-364.5 1226,-364.5 1226,-334.5 1034,-334.5"/>
<text text-anchor="start" x="1042" y="-352.5" font-family="Helvetica,sans-Serif" font-size="10.00">ContinuousDynamicalSystem</text>
<text text-anchor="middle" x="1130" y="-341.5" font-family="Helvetica,sans-Serif" font-size="10.00">/src/LinearTimeInvariantSystem.cpp</text>
</a>
</g>
</g>
<!-- Node1&#45;&gt;Node9 -->
<g id="edge9" class="edge">
<title>Node1&#45;&gt;Node9</title>
<path fill="none" stroke="midnightblue" d="M2807.09,-431.35C2497.41,-428.87 1541.66,-417.93 1235,-376 1216.41,-373.46 1196.33,-369.01 1178.75,-364.54"/>
<polygon fill="midnightblue" stroke="midnightblue" points="2807.36,-434.85 2817.39,-431.43 2807.41,-427.85 2807.36,-434.85"/>
</g>
<!-- Node10 -->
<g id="node10" class="node">
<title>Node10</title>
<g id="a_node10"><a xlink:href="FloatingBaseEstimator_8cpp.html" target="_top" xlink:title=" ">
<polygon fill="none" stroke="black" points="1244.5,-334.5 1244.5,-364.5 1397.5,-364.5 1397.5,-334.5 1244.5,-334.5"/>
<text text-anchor="start" x="1252.5" y="-352.5" font-family="Helvetica,sans-Serif" font-size="10.00">Estimators/src/FloatingBase</text>
<text text-anchor="middle" x="1321" y="-341.5" font-family="Helvetica,sans-Serif" font-size="10.00">Estimator.cpp</text>
</a>
</g>
</g>
<!-- Node1&#45;&gt;Node10 -->
<g id="edge10" class="edge">
<title>Node1&#45;&gt;Node10</title>
<path fill="none" stroke="midnightblue" d="M2807.01,-431.54C2518.9,-429.68 1677.77,-420.48 1407,-376 1391.63,-373.48 1375.15,-369.03 1360.77,-364.55"/>
<polygon fill="midnightblue" stroke="midnightblue" points="2807.01,-435.04 2817.03,-431.6 2807.05,-428.04 2807.01,-435.04"/>
</g>
<!-- Node11 -->
<g id="node11" class="node">
<title>Node11</title>
<g id="a_node11"><a xlink:href="CoMTask_8cpp.html" target="_top" xlink:title=" ">
<polygon fill="none" stroke="black" points="1416,-340 1416,-359 1526,-359 1526,-340 1416,-340"/>
<text text-anchor="middle" x="1471" y="-347" font-family="Helvetica,sans-Serif" font-size="10.00">IK/src/CoMTask.cpp</text>
</a>
</g>
</g>
<!-- Node1&#45;&gt;Node11 -->
<g id="edge11" class="edge">
<title>Node1&#45;&gt;Node11</title>
<path fill="none" stroke="midnightblue" d="M2806.82,-432.27C2535.23,-432.35 1777.93,-427.78 1535,-376 1518.39,-372.46 1500.51,-365 1487.89,-359.06"/>
<polygon fill="midnightblue" stroke="midnightblue" points="2807.06,-435.77 2817.06,-432.27 2807.05,-428.77 2807.06,-435.77"/>
</g>
<!-- Node12 -->
<g id="node12" class="node">
<title>Node12</title>
<g id="a_node12"><a xlink:href="IK_2src_2JointTrackingTask_8cpp.html" target="_top" xlink:title=" ">
<polygon fill="none" stroke="black" points="1544.5,-340 1544.5,-359 1695.5,-359 1695.5,-340 1544.5,-340"/>
<text text-anchor="middle" x="1620" y="-347" font-family="Helvetica,sans-Serif" font-size="10.00">IK/src/JointTrackingTask.cpp</text>
</a>
</g>
</g>
<!-- Node1&#45;&gt;Node12 -->
<g id="edge12" class="edge">
<title>Node1&#45;&gt;Node12</title>
<path fill="none" stroke="midnightblue" d="M2807.11,-430.56C2559.91,-426.43 1915.13,-412.39 1704,-376 1682.82,-372.35 1659.49,-364.99 1642.8,-359.1"/>
<polygon fill="midnightblue" stroke="midnightblue" points="2807.1,-434.06 2817.16,-430.73 2807.22,-427.06 2807.1,-434.06"/>
</g>
<!-- Node13 -->
<g id="node13" class="node">
<title>Node13</title>
<g id="a_node13"><a xlink:href="QPInverseKinematics_8cpp.html" target="_top" xlink:title=" ">
<polygon fill="none" stroke="black" points="1713.5,-340 1713.5,-359 1884.5,-359 1884.5,-340 1713.5,-340"/>
<text text-anchor="middle" x="1799" y="-347" font-family="Helvetica,sans-Serif" font-size="10.00">IK/src/QPInverseKinematics.cpp</text>
</a>
</g>
</g>
<!-- Node1&#45;&gt;Node13 -->
<g id="edge13" class="edge">
<title>Node1&#45;&gt;Node13</title>
<path fill="none" stroke="midnightblue" d="M2807.3,-429.2C2588.98,-422.53 2067.1,-404.11 1893,-376 1869.46,-372.2 1843.34,-364.85 1824.62,-359.01"/>
<polygon fill="midnightblue" stroke="midnightblue" points="2807.36,-432.71 2817.46,-429.51 2807.57,-425.71 2807.36,-432.71"/>
</g>
<!-- Node14 -->
<g id="node14" class="node">
<title>Node14</title>
<g id="a_node14"><a xlink:href="IK_2src_2SE3Task_8cpp.html" target="_top" xlink:title=" ">
<polygon fill="none" stroke="black" points="1902.5,-340 1902.5,-359 2009.5,-359 2009.5,-340 1902.5,-340"/>
<text text-anchor="middle" x="1956" y="-347" font-family="Helvetica,sans-Serif" font-size="10.00">IK/src/SE3Task.cpp</text>
</a>
</g>
</g>
<!-- Node1&#45;&gt;Node14 -->
<g id="edge14" class="edge">
<title>Node1&#45;&gt;Node14</title>
<path fill="none" stroke="midnightblue" d="M2807.1,-429.77C2608.91,-424.6 2166.53,-409.59 2019,-376 2002.78,-372.31 1985.31,-364.95 1972.9,-359.08"/>
<polygon fill="midnightblue" stroke="midnightblue" points="2807.12,-433.27 2817.21,-430.03 2807.3,-426.27 2807.12,-433.27"/>
</g>
<!-- Node15 -->
<g id="node15" class="node">
<title>Node15</title>
<g id="a_node15"><a xlink:href="IK_2src_2SO3Task_8cpp.html" target="_top" xlink:title=" ">
<polygon fill="none" stroke="black" points="2028,-340 2028,-359 2136,-359 2136,-340 2028,-340"/>
<text text-anchor="middle" x="2082" y="-347" font-family="Helvetica,sans-Serif" font-size="10.00">IK/src/SO3Task.cpp</text>
</a>
</g>
</g>
<!-- Node1&#45;&gt;Node15 -->
<g id="edge15" class="edge">
<title>Node1&#45;&gt;Node15</title>
<path fill="none" stroke="midnightblue" d="M2807.14,-428.57C2631.17,-421.77 2268.15,-404.72 2145,-376 2128.8,-372.22 2111.33,-364.87 2098.91,-359.03"/>
<polygon fill="midnightblue" stroke="midnightblue" points="2807.05,-432.07 2817.18,-428.95 2807.32,-425.07 2807.05,-432.07"/>
</g>
<!-- Node16 -->
<g id="node16" class="node">
<title>Node16</title>
<g id="a_node16"><a xlink:href="LinearizedFrictionCone_8cpp.html" target="_top" xlink:title=" ">
<polygon fill="none" stroke="black" points="2154,-334.5 2154,-364.5 2302,-364.5 2302,-334.5 2154,-334.5"/>
<text text-anchor="start" x="2162" y="-352.5" font-family="Helvetica,sans-Serif" font-size="10.00">Math/src/LinearizedFriction</text>
<text text-anchor="middle" x="2228" y="-341.5" font-family="Helvetica,sans-Serif" font-size="10.00">Cone.cpp</text>
</a>
</g>
</g>
<!-- Node1&#45;&gt;Node16 -->
<g id="edge16" class="edge">
<title>Node1&#45;&gt;Node16</title>
<path fill="none" stroke="midnightblue" d="M2807.25,-428.89C2688.8,-423.73 2483.64,-410.28 2311,-376 2296.81,-373.18 2281.59,-368.89 2268.1,-364.63"/>
<polygon fill="midnightblue" stroke="midnightblue" points="2807.24,-432.39 2817.38,-429.32 2807.54,-425.4 2807.24,-432.39"/>
</g>
<!-- Node17 -->
<g id="node17" class="node">
<title>Node17</title>
<g id="a_node17"><a xlink:href="StdImplementation_8tpp.html" target="_top" xlink:title=" ">
<polygon fill="none" stroke="black" points="2320,-329 2320,-370 2530,-370 2530,-329 2320,-329"/>
<text text-anchor="start" x="2328" y="-358" font-family="Helvetica,sans-Serif" font-size="10.00">ParametersHandler/include</text>
<text text-anchor="start" x="2328" y="-347" font-family="Helvetica,sans-Serif" font-size="10.00">/BipedalLocomotion/ParametersHandler</text>
<text text-anchor="middle" x="2425" y="-336" font-family="Helvetica,sans-Serif" font-size="10.00">/StdImplementation.tpp</text>
</a>
</g>
</g>
<!-- Node1&#45;&gt;Node17 -->
<g id="edge17" class="edge">
<title>Node1&#45;&gt;Node17</title>
<path fill="none" stroke="midnightblue" d="M2807.15,-418.37C2734.39,-407.85 2632.76,-392.38 2544,-376 2534.03,-374.16 2523.61,-372.11 2513.27,-370"/>
<polygon fill="midnightblue" stroke="midnightblue" points="2806.83,-421.86 2817.23,-419.82 2807.83,-414.93 2806.83,-421.86"/>
</g>
<!-- Node19 -->
<g id="node19" class="node">
<title>Node19</title>
<g id="a_node19"><a xlink:href="StdImplementation_8cpp.html" target="_top" xlink:title=" ">
<polygon fill="none" stroke="black" points="2396,-156.5 2396,-186.5 2530,-186.5 2530,-156.5 2396,-156.5"/>
<text text-anchor="start" x="2404" y="-174.5" font-family="Helvetica,sans-Serif" font-size="10.00">ParametersHandler/src</text>
<text text-anchor="middle" x="2463" y="-163.5" font-family="Helvetica,sans-Serif" font-size="10.00">/StdImplementation.cpp</text>
</a>
</g>
</g>
<!-- Node1&#45;&gt;Node19 -->
<g id="edge21" class="edge">
<title>Node1&#45;&gt;Node19</title>
<path fill="none" stroke="midnightblue" d="M2807.01,-426.19C2724.46,-419.33 2614.74,-404.96 2582,-376 2532.61,-332.31 2575.81,-288.71 2539,-234 2525.64,-214.14 2503.94,-197.5 2487.14,-186.56"/>
<polygon fill="midnightblue" stroke="midnightblue" points="2806.94,-429.69 2817.19,-427.01 2807.5,-422.72 2806.94,-429.69"/>
</g>
<!-- Node20 -->
<g id="node20" class="node">
<title>Node20</title>
<g id="a_node20"><a xlink:href="YarpImplementation_8cpp.html" target="_top" xlink:title=" ">
<polygon fill="none" stroke="black" points="2566,-0.5 2566,-30.5 2778,-30.5 2778,-0.5 2566,-0.5"/>
<text text-anchor="start" x="2574" y="-18.5" font-family="Helvetica,sans-Serif" font-size="10.00">ParametersHandler/YarpImplementation</text>
<text text-anchor="middle" x="2672" y="-7.5" font-family="Helvetica,sans-Serif" font-size="10.00">/src/YarpImplementation.cpp</text>
</a>
</g>
</g>
<!-- Node1&#45;&gt;Node20 -->
<g id="edge22" class="edge">
<title>Node1&#45;&gt;Node20</title>
<path fill="none" stroke="midnightblue" d="M2807.19,-424.96C2733.71,-417.57 2641.4,-403.1 2615,-376 2579.01,-339.05 2596,-313.08 2596,-261.5 2596,-261.5 2596,-261.5 2596,-170.5 2596,-113.85 2637.86,-56.46 2659.45,-30.63"/>
<polygon fill="midnightblue" stroke="midnightblue" points="2807.13,-428.47 2817.42,-425.95 2807.81,-421.5 2807.13,-428.47"/>
</g>
<!-- Node21 -->
<g id="node21" class="node">
<title>Node21</title>
<g id="a_node21"><a xlink:href="PointCloudProcessor_8h_source.html" target="_top" xlink:title=" ">
<polygon fill="none" stroke="black" points="2624.5,-329 2624.5,-370 2797.5,-370 2797.5,-329 2624.5,-329"/>
<text text-anchor="start" x="2632.5" y="-358" font-family="Helvetica,sans-Serif" font-size="10.00">Perception/include</text>
<text text-anchor="start" x="2632.5" y="-347" font-family="Helvetica,sans-Serif" font-size="10.00">/BipedalLocomotion/Perception</text>
<text text-anchor="middle" x="2711" y="-336" font-family="Helvetica,sans-Serif" font-size="10.00">/Features/PointCloudProcessor.h</text>
</a>
</g>
</g>
<!-- Node1&#45;&gt;Node21 -->
<g id="edge23" class="edge">
<title>Node1&#45;&gt;Node21</title>
<path fill="none" stroke="midnightblue" d="M2848.94,-408.45C2819.92,-396.26 2784.91,-381.55 2757.42,-370"/>
<polygon fill="midnightblue" stroke="midnightblue" points="2847.96,-411.83 2858.53,-412.48 2850.67,-405.38 2847.96,-411.83"/>
</g>
<!-- Node22 -->
<g id="node22" class="node">
<title>Node22</title>
<g id="a_node22"><a xlink:href="ArucoDetector_8cpp.html" target="_top" xlink:title=" ">
<polygon fill="none" stroke="black" points="2816,-340 2816,-359 2994,-359 2994,-340 2816,-340"/>
<text text-anchor="middle" x="2905" y="-347" font-family="Helvetica,sans-Serif" font-size="10.00">Perception/src/ArucoDetector.cpp</text>
</a>
</g>
</g>
<!-- Node1&#45;&gt;Node22 -->
<g id="edge24" class="edge">
<title>Node1&#45;&gt;Node22</title>
<path fill="none" stroke="midnightblue" d="M2905,-402.14C2905,-386.83 2905,-369.31 2905,-359.12"/>
<polygon fill="midnightblue" stroke="midnightblue" points="2901.5,-402.27 2905,-412.27 2908.5,-402.27 2901.5,-402.27"/>
</g>
<!-- Node23 -->
<g id="node23" class="node">
<title>Node23</title>
<g id="a_node23"><a xlink:href="RealSense_8cpp_source.html" target="_top" xlink:title=" ">
<polygon fill="none" stroke="black" points="3012,-340 3012,-359 3172,-359 3172,-340 3012,-340"/>
<text text-anchor="middle" x="3092" y="-347" font-family="Helvetica,sans-Serif" font-size="10.00">Perception/src/RealSense.cpp</text>
</a>
</g>
</g>
<!-- Node1&#45;&gt;Node23 -->
<g id="edge25" class="edge">
<title>Node1&#45;&gt;Node23</title>
<path fill="none" stroke="midnightblue" d="M2959.17,-408.39C2997.05,-391.88 3045.45,-370.79 3072.13,-359.16"/>
<polygon fill="midnightblue" stroke="midnightblue" points="2957.56,-405.27 2949.79,-412.48 2960.36,-411.69 2957.56,-405.27"/>
</g>
<!-- Node24 -->
<g id="node24" class="node">
<title>Node24</title>
<g id="a_node24"><a xlink:href="TimeVaryingDCMPlanner_8cpp.html" target="_top" xlink:title=" ">
<polygon fill="none" stroke="black" points="3190,-334.5 3190,-364.5 3330,-364.5 3330,-334.5 3190,-334.5"/>
<text text-anchor="start" x="3198" y="-352.5" font-family="Helvetica,sans-Serif" font-size="10.00">Planners/src/TimeVarying</text>
<text text-anchor="middle" x="3260" y="-341.5" font-family="Helvetica,sans-Serif" font-size="10.00">DCMPlanner.cpp</text>
</a>
</g>
</g>
<!-- Node1&#45;&gt;Node24 -->
<g id="edge26" class="edge">
<title>Node1&#45;&gt;Node24</title>
<path fill="none" stroke="midnightblue" d="M3002.68,-414.94C3055.76,-404.98 3122.35,-391.36 3181,-376 3193.55,-372.71 3207.04,-368.59 3219.25,-364.61"/>
<polygon fill="midnightblue" stroke="midnightblue" points="3001.78,-411.55 2992.59,-416.82 3003.06,-418.43 3001.78,-411.55"/>
</g>
<!-- Node25 -->
<g id="node25" class="node">
<title>Node25</title>
<g id="a_node25"><a xlink:href="YarpSensorBridgeImpl_8h.html" target="_top" xlink:title=" ">
<polygon fill="none" stroke="black" points="3348,-329 3348,-370 3558,-370 3558,-329 3348,-329"/>
<text text-anchor="start" x="3356" y="-358" font-family="Helvetica,sans-Serif" font-size="10.00">RobotInterface/YarpImplementation</text>
<text text-anchor="start" x="3356" y="-347" font-family="Helvetica,sans-Serif" font-size="10.00">/include/BipedalLocomotion</text>
<text text-anchor="middle" x="3453" y="-336" font-family="Helvetica,sans-Serif" font-size="10.00">/RobotInterface/YarpSensorBridgeImpl.h</text>
</a>
</g>
</g>
<!-- Node1&#45;&gt;Node25 -->
<g id="edge27" class="edge">
<title>Node1&#45;&gt;Node25</title>
<path fill="none" stroke="midnightblue" d="M3002.64,-421.99C3090.85,-412.34 3224.09,-396.22 3339,-376 3348.99,-374.24 3359.42,-372.2 3369.75,-370.05"/>
<polygon fill="midnightblue" stroke="midnightblue" points="3002.2,-418.52 2992.64,-423.08 3002.96,-425.48 3002.2,-418.52"/>
</g>
<!-- Node26 -->
<g id="node26" class="node">
<title>Node26</title>
<g id="a_node26"><a xlink:href="YarpSensorBridge_8cpp.html" target="_top" xlink:title=" ">
<polygon fill="none" stroke="black" points="3424,-245.5 3424,-275.5 3614,-275.5 3614,-245.5 3424,-245.5"/>
<text text-anchor="start" x="3432" y="-263.5" font-family="Helvetica,sans-Serif" font-size="10.00">RobotInterface/YarpImplementation</text>
<text text-anchor="middle" x="3519" y="-252.5" font-family="Helvetica,sans-Serif" font-size="10.00">/src/YarpSensorBridge.cpp</text>
</a>
</g>
</g>
<!-- Node1&#45;&gt;Node26 -->
<g id="edge31" class="edge">
<title>Node1&#45;&gt;Node26</title>
<path fill="none" stroke="midnightblue" d="M3002.95,-430.87C3177.97,-427.82 3529.65,-416.64 3567,-376 3594.27,-346.32 3556.09,-298.91 3533.53,-275.5"/>
<polygon fill="midnightblue" stroke="midnightblue" points="3002.65,-427.37 2992.71,-431.04 3002.77,-434.37 3002.65,-427.37"/>
</g>
<!-- Node27 -->
<g id="node27" class="node">
<title>Node27</title>
<g id="a_node27"><a xlink:href="YarpCameraBridge_8cpp_source.html" target="_top" xlink:title=" ">
<polygon fill="none" stroke="black" points="3614,-334.5 3614,-364.5 3804,-364.5 3804,-334.5 3614,-334.5"/>
<text text-anchor="start" x="3622" y="-352.5" font-family="Helvetica,sans-Serif" font-size="10.00">RobotInterface/YarpImplementation</text>
<text text-anchor="middle" x="3709" y="-341.5" font-family="Helvetica,sans-Serif" font-size="10.00">/src/YarpCameraBridge.cpp</text>
</a>
</g>
</g>
<!-- Node1&#45;&gt;Node27 -->
<g id="edge29" class="edge">
<title>Node1&#45;&gt;Node27</title>
<path fill="none" stroke="midnightblue" d="M3003.04,-428.72C3138.11,-423.14 3388.73,-409.03 3600,-376 3618.43,-373.12 3638.37,-368.81 3656.09,-364.55"/>
<polygon fill="midnightblue" stroke="midnightblue" points="3002.57,-425.23 2992.72,-429.13 3002.85,-432.23 3002.57,-425.23"/>
</g>
<!-- Node28 -->
<g id="node28" class="node">
<title>Node28</title>
<g id="a_node28"><a xlink:href="YarpRobotControl_8cpp.html" target="_top" xlink:title=" ">
<polygon fill="none" stroke="black" points="3822,-334.5 3822,-364.5 4012,-364.5 4012,-334.5 3822,-334.5"/>
<text text-anchor="start" x="3830" y="-352.5" font-family="Helvetica,sans-Serif" font-size="10.00">RobotInterface/YarpImplementation</text>
<text text-anchor="middle" x="3917" y="-341.5" font-family="Helvetica,sans-Serif" font-size="10.00">/src/YarpRobotControl.cpp</text>
</a>
</g>
</g>
<!-- Node1&#45;&gt;Node28 -->
<g id="edge30" class="edge">
<title>Node1&#45;&gt;Node28</title>
<path fill="none" stroke="midnightblue" d="M3002.57,-431.68C3169.53,-429.88 3520.36,-420.53 3813,-376 3831.01,-373.26 3850.47,-368.88 3867.64,-364.52"/>
<polygon fill="midnightblue" stroke="midnightblue" points="3002.53,-428.18 2992.57,-431.79 3002.6,-435.18 3002.53,-428.18"/>
</g>
<!-- Node29 -->
<g id="node29" class="node">
<title>Node29</title>
<g id="a_node29"><a xlink:href="AdvanceableRunner_8h.html" target="_top" xlink:title=" ">
<polygon fill="none" stroke="black" points="4030,-334.5 4030,-364.5 4218,-364.5 4218,-334.5 4030,-334.5"/>
<text text-anchor="start" x="4038" y="-352.5" font-family="Helvetica,sans-Serif" font-size="10.00">System/include/BipedalLocomotion</text>
<text text-anchor="middle" x="4124" y="-341.5" font-family="Helvetica,sans-Serif" font-size="10.00">/System/AdvanceableRunner.h</text>
</a>
</g>
</g>
<!-- Node1&#45;&gt;Node29 -->
<g id="edge32" class="edge">
<title>Node1&#45;&gt;Node29</title>
<path fill="none" stroke="midnightblue" d="M3002.85,-429.51C3237.28,-423.15 3825.98,-404.76 4021,-376 4039.04,-373.34 4058.53,-368.92 4075.66,-364.51"/>
<polygon fill="midnightblue" stroke="midnightblue" points="3002.54,-426.02 2992.64,-429.78 3002.73,-433.01 3002.54,-426.02"/>
</g>
<!-- Node30 -->
<g id="node30" class="node">
<title>Node30</title>
<g id="a_node30"><a xlink:href="Clock_8cpp.html" target="_top" xlink:title=" ">
<polygon fill="none" stroke="black" points="4236.5,-340 4236.5,-359 4357.5,-359 4357.5,-340 4236.5,-340"/>
<text text-anchor="middle" x="4297" y="-347" font-family="Helvetica,sans-Serif" font-size="10.00">System/src/Clock.cpp</text>
</a>
</g>
</g>
<!-- Node1&#45;&gt;Node30 -->
<g id="edge33" class="edge">
<title>Node1&#45;&gt;Node30</title>
<path fill="none" stroke="midnightblue" d="M3002.86,-431.73C3267.46,-430.39 3992.83,-422.46 4227,-376 4245.02,-372.43 4264.58,-364.97 4278.44,-359.04"/>
<polygon fill="midnightblue" stroke="midnightblue" points="3002.49,-428.23 2992.51,-431.78 3002.53,-435.23 3002.49,-428.23"/>
</g>
<!-- Node31 -->
<g id="node31" class="node">
<title>Node31</title>
<g id="a_node31"><a xlink:href="QuitHandler_8cpp.html" target="_top" xlink:title=" ">
<polygon fill="none" stroke="black" points="4376,-340 4376,-359 4528,-359 4528,-340 4376,-340"/>
<text text-anchor="middle" x="4452" y="-347" font-family="Helvetica,sans-Serif" font-size="10.00">System/src/QuitHandler.cpp</text>
</a>
</g>
</g>
<!-- Node1&#45;&gt;Node31 -->
<g id="edge34" class="edge">
<title>Node1&#45;&gt;Node31</title>
<path fill="none" stroke="midnightblue" d="M3003.05,-431.47C3286.51,-429.44 4103.56,-419.83 4367,-376 4388.58,-372.41 4412.37,-364.96 4429.28,-359.03"/>
<polygon fill="midnightblue" stroke="midnightblue" points="3002.76,-427.98 2992.78,-431.55 3002.81,-434.98 3002.76,-427.98"/>
</g>
<!-- Node32 -->
<g id="node32" class="node">
<title>Node32</title>
<g id="a_node32"><a xlink:href="VariablesHandler_8cpp.html" target="_top" xlink:title=" ">
<polygon fill="none" stroke="black" points="4546,-340 4546,-359 4722,-359 4722,-340 4546,-340"/>
<text text-anchor="middle" x="4634" y="-347" font-family="Helvetica,sans-Serif" font-size="10.00">System/src/VariablesHandler.cpp</text>
</a>
</g>
</g>
<!-- Node1&#45;&gt;Node32 -->
<g id="edge35" class="edge">
<title>Node1&#45;&gt;Node32</title>
<path fill="none" stroke="midnightblue" d="M3002.83,-431.5C3307.77,-429.48 4238.42,-419.81 4537,-376 4561.46,-372.41 4588.63,-364.96 4607.98,-359.03"/>
<polygon fill="midnightblue" stroke="midnightblue" points="3002.66,-428 2992.69,-431.56 3002.71,-435 3002.66,-428"/>
</g>
<!-- Node33 -->
<g id="node33" class="node">
<title>Node33</title>
<g id="a_node33"><a xlink:href="Logger_8cpp.html" target="_top" xlink:title=" ">
<polygon fill="none" stroke="black" points="4740,-340 4740,-359 4888,-359 4888,-340 4740,-340"/>
<text text-anchor="middle" x="4814" y="-347" font-family="Helvetica,sans-Serif" font-size="10.00">TextLogging/src/Logger.cpp</text>
</a>
</g>
</g>
<!-- Node1&#45;&gt;Node33 -->
<g id="edge36" class="edge">
<title>Node1&#45;&gt;Node33</title>
<path fill="none" stroke="midnightblue" d="M3003.02,-432.44C3331.87,-433.37 4394.1,-431.88 4731,-376 4752.12,-372.5 4775.34,-365.03 4791.84,-359.08"/>
<polygon fill="midnightblue" stroke="midnightblue" points="3002.58,-428.94 2992.57,-432.41 3002.56,-435.94 3002.58,-428.94"/>
</g>
<!-- Node34 -->
<g id="node34" class="node">
<title>Node34</title>
<g id="a_node34"><a xlink:href="BaseDynamicsTask_8cpp.html" target="_top" xlink:title=" ">
<polygon fill="none" stroke="black" points="4906,-340 4906,-359 5080,-359 5080,-340 4906,-340"/>
<text text-anchor="middle" x="4993" y="-347" font-family="Helvetica,sans-Serif" font-size="10.00">TSID/src/BaseDynamicsTask.cpp</text>
</a>
</g>
</g>
<!-- Node1&#45;&gt;Node34 -->
<g id="edge37" class="edge">
<title>Node1&#45;&gt;Node34</title>
<path fill="none" stroke="midnightblue" d="M3002.62,-432.24C3350,-432.64 4525.1,-429.88 4897,-376 4921.23,-372.49 4948.12,-365.03 4967.26,-359.08"/>
<polygon fill="midnightblue" stroke="midnightblue" points="3002.59,-428.74 2992.59,-432.23 3002.58,-435.74 3002.59,-428.74"/>
</g>
<!-- Node35 -->
<g id="node35" class="node">
<title>Node35</title>
<g id="a_node35"><a xlink:href="JointDynamicsTask_8cpp.html" target="_top" xlink:title=" ">
<polygon fill="none" stroke="black" points="5098,-340 5098,-359 5270,-359 5270,-340 5098,-340"/>
<text text-anchor="middle" x="5184" y="-347" font-family="Helvetica,sans-Serif" font-size="10.00">TSID/src/JointDynamicsTask.cpp</text>
</a>
</g>
</g>
<!-- Node1&#45;&gt;Node35 -->
<g id="edge38" class="edge">
<title>Node1&#45;&gt;Node35</title>
<path fill="none" stroke="midnightblue" d="M3002.83,-430.85C3400.08,-426.02 4881.29,-406.11 5089,-376 5113,-372.52 5139.6,-365.06 5158.54,-359.1"/>
<polygon fill="midnightblue" stroke="midnightblue" points="3002.76,-427.35 2992.8,-430.98 3002.84,-434.35 3002.76,-427.35"/>
</g>
<!-- Node36 -->
<g id="node36" class="node">
<title>Node36</title>
<g id="a_node36"><a xlink:href="TSID_2src_2JointTrackingTask_8cpp.html" target="_top" xlink:title=" ">
<polygon fill="none" stroke="black" points="5288,-340 5288,-359 5452,-359 5452,-340 5288,-340"/>
<text text-anchor="middle" x="5370" y="-347" font-family="Helvetica,sans-Serif" font-size="10.00">TSID/src/JointTrackingTask.cpp</text>
</a>
</g>
</g>
<!-- Node1&#45;&gt;Node36 -->
<g id="edge39" class="edge">
<title>Node1&#45;&gt;Node36</title>
<path fill="none" stroke="midnightblue" d="M3002.84,-431.13C3421.59,-427.23 5051.87,-409.96 5279,-376 5302.04,-372.56 5327.52,-365.09 5345.64,-359.12"/>
<polygon fill="midnightblue" stroke="midnightblue" points="3002.55,-427.64 2992.58,-431.23 3002.62,-434.64 3002.55,-427.64"/>
</g>
<!-- Node37 -->
<g id="node37" class="node">
<title>Node37</title>
<g id="a_node37"><a xlink:href="TSID_2src_2SE3Task_8cpp.html" target="_top" xlink:title=" ">
<polygon fill="none" stroke="black" points="5470.5,-340 5470.5,-359 5589.5,-359 5589.5,-340 5470.5,-340"/>
<text text-anchor="middle" x="5530" y="-347" font-family="Helvetica,sans-Serif" font-size="10.00">TSID/src/SE3Task.cpp</text>
</a>
</g>
</g>
<!-- Node1&#45;&gt;Node37 -->
<g id="edge40" class="edge">
<title>Node1&#45;&gt;Node37</title>
<path fill="none" stroke="midnightblue" d="M3002.73,-431.77C3441.27,-430.49 5216.7,-422.47 5461,-376 5478.94,-372.59 5498.37,-365.03 5512.02,-359.02"/>
<polygon fill="midnightblue" stroke="midnightblue" points="3002.61,-428.27 2992.62,-431.8 3002.63,-435.27 3002.61,-428.27"/>
</g>
<!-- Node38 -->
<g id="node38" class="node">
<title>Node38</title>
<g id="a_node38"><a xlink:href="TSID_2src_2SO3Task_8cpp.html" target="_top" xlink:title=" ">
<polygon fill="none" stroke="black" points="5607.5,-340 5607.5,-359 5728.5,-359 5728.5,-340 5607.5,-340"/>
<text text-anchor="middle" x="5668" y="-347" font-family="Helvetica,sans-Serif" font-size="10.00">TSID/src/SO3Task.cpp</text>
</a>
</g>
</g>
<!-- Node1&#45;&gt;Node38 -->
<g id="edge41" class="edge">
<title>Node1&#45;&gt;Node38</title>
<path fill="none" stroke="midnightblue" d="M3002.74,-431.89C3455.81,-431.13 5340.5,-425.02 5599,-376 5616.94,-372.6 5636.37,-365.04 5650.02,-359.03"/>
<polygon fill="midnightblue" stroke="midnightblue" points="3002.62,-428.39 2992.63,-431.91 3002.63,-435.39 3002.62,-428.39"/>
</g>
<!-- Node39 -->
<g id="node39" class="node">
<title>Node39</title>
<g id="a_node39"><a xlink:href="Helper_8tpp.html" target="_top" xlink:title=" ">
<polygon fill="none" stroke="black" points="5746.5,-329 5746.5,-370 5921.5,-370 5921.5,-329 5746.5,-329"/>
<text text-anchor="start" x="5754.5" y="-358" font-family="Helvetica,sans-Serif" font-size="10.00">YarpUtilities/include</text>
<text text-anchor="start" x="5754.5" y="-347" font-family="Helvetica,sans-Serif" font-size="10.00">/BipedalLocomotion/YarpUtilities</text>
<text text-anchor="middle" x="5834" y="-336" font-family="Helvetica,sans-Serif" font-size="10.00">/Helper.tpp</text>
</a>
</g>
</g>
<!-- Node1&#45;&gt;Node39 -->
<g id="edge42" class="edge">
<title>Node1&#45;&gt;Node39</title>
<path fill="none" stroke="midnightblue" d="M3002.67,-431.46C3469.6,-428.69 5463.04,-414.66 5738,-376 5748.08,-374.58 5758.61,-372.47 5768.85,-370.04"/>
<polygon fill="midnightblue" stroke="midnightblue" points="3002.56,-427.96 2992.59,-431.52 3002.61,-434.96 3002.56,-427.96"/>
</g>
<!-- Node43 -->
<g id="node43" class="node">
<title>Node43</title>
<g id="a_node43"><a xlink:href="Helper_8cpp.html" target="_top" xlink:title=" ">
<polygon fill="none" stroke="black" points="5818.5,-162 5818.5,-181 5965.5,-181 5965.5,-162 5818.5,-162"/>
<text text-anchor="middle" x="5892" y="-169" font-family="Helvetica,sans-Serif" font-size="10.00">YarpUtilities/src/Helper.cpp</text>
</a>
</g>
</g>
<!-- Node1&#45;&gt;Node43 -->
<g id="edge49" class="edge">
<title>Node1&#45;&gt;Node43</title>
<path fill="none" stroke="midnightblue" d="M3003,-432.05C3516.83,-432.11 5878.52,-429.46 5931,-376 5975.21,-330.96 5948.6,-294.61 5931,-234 5924.94,-213.12 5909.42,-192.53 5899.88,-181.27"/>
<polygon fill="midnightblue" stroke="midnightblue" points="3002.66,-428.55 2992.66,-432.05 3002.66,-435.55 3002.66,-428.55"/>
</g>
<!-- Node4 -->
<g id="node4" class="node">
<title>Node4</title>
<g id="a_node4"><a xlink:href="ForwardEuler_8h.html" target="_top" xlink:title=" ">
<polygon fill="none" stroke="black" points="147,-145.5 147,-197.5 311,-197.5 311,-145.5 147,-145.5"/>
<text text-anchor="start" x="155" y="-185.5" font-family="Helvetica,sans-Serif" font-size="10.00">ContinuousDynamicalSystem</text>
<text text-anchor="start" x="155" y="-174.5" font-family="Helvetica,sans-Serif" font-size="10.00">/include/BipedalLocomotion</text>
<text text-anchor="start" x="155" y="-163.5" font-family="Helvetica,sans-Serif" font-size="10.00">/ContinuousDynamicalSystem</text>
<text text-anchor="middle" x="229" y="-152.5" font-family="Helvetica,sans-Serif" font-size="10.00">/ForwardEuler.h</text>
</a>
</g>
</g>
<!-- Node3&#45;&gt;Node4 -->
<g id="edge3" class="edge">
<title>Node3&#45;&gt;Node4</title>
<path fill="none" stroke="midnightblue" d="M229,-224.19C229,-215.28 229,-205.9 229,-197.61"/>
<polygon fill="midnightblue" stroke="midnightblue" points="225.5,-224.34 229,-234.34 232.5,-224.34 225.5,-224.34"/>
</g>
<!-- Node5&#45;&gt;Node3 -->
<g id="edge5" class="edge">
<title>Node5&#45;&gt;Node3</title>
<path fill="none" stroke="midnightblue" d="M262.59,-314.64C256.69,-305.31 250.4,-295.35 244.87,-286.61"/>
<polygon fill="midnightblue" stroke="midnightblue" points="259.79,-316.75 268.09,-323.34 265.71,-313.01 259.79,-316.75"/>
</g>
<!-- Node18 -->
<g id="node18" class="node">
<title>Node18</title>
<g id="a_node18"><a xlink:href="StdImplementation_8h.html" target="_top" xlink:title=" ">
<polygon fill="none" stroke="black" points="2320,-240 2320,-281 2530,-281 2530,-240 2320,-240"/>
<text text-anchor="start" x="2328" y="-269" font-family="Helvetica,sans-Serif" font-size="10.00">ParametersHandler/include</text>
<text text-anchor="start" x="2328" y="-258" font-family="Helvetica,sans-Serif" font-size="10.00">/BipedalLocomotion/ParametersHandler</text>
<text text-anchor="middle" x="2425" y="-247" font-family="Helvetica,sans-Serif" font-size="10.00">/StdImplementation.h</text>
</a>
</g>
</g>
<!-- Node17&#45;&gt;Node18 -->
<g id="edge18" class="edge">
<title>Node17&#45;&gt;Node18</title>
<path fill="none" stroke="midnightblue" d="M2418.54,-318.44C2417.99,-306.1 2418.22,-292.16 2419.25,-281.16"/>
<polygon fill="midnightblue" stroke="midnightblue" points="2415.08,-319.02 2419.24,-328.76 2422.06,-318.55 2415.08,-319.02"/>
</g>
<!-- Node18&#45;&gt;Node17 -->
<g id="edge19" class="edge">
<title>Node18&#45;&gt;Node17</title>
<path fill="none" stroke="midnightblue" d="M2431.45,-291.47C2432.01,-303.8 2431.78,-317.75 2430.76,-328.76"/>
<polygon fill="midnightblue" stroke="midnightblue" points="2434.92,-290.9 2430.75,-281.16 2427.94,-291.38 2434.92,-290.9"/>
</g>
<!-- Node18&#45;&gt;Node19 -->
<g id="edge20" class="edge">
<title>Node18&#45;&gt;Node19</title>
<path fill="none" stroke="midnightblue" d="M2437.65,-230.53C2444.08,-215.81 2451.61,-198.58 2456.78,-186.74"/>
<polygon fill="midnightblue" stroke="midnightblue" points="2434.42,-229.19 2433.62,-239.76 2440.83,-232 2434.42,-229.19"/>
</g>
<!-- Node25&#45;&gt;Node26 -->
<g id="edge28" class="edge">
<title>Node25&#45;&gt;Node26</title>
<path fill="none" stroke="midnightblue" d="M3474.03,-320.78C3485.39,-305.8 3498.96,-287.92 3508.19,-275.74"/>
<polygon fill="midnightblue" stroke="midnightblue" points="3471.23,-318.68 3467.98,-328.76 3476.81,-322.91 3471.23,-318.68"/>
</g>
<!-- Node40 -->
<g id="node40" class="node">
<title>Node40</title>
<g id="a_node40"><a xlink:href="Helper_8h.html" target="_top" xlink:title=" ">
<polygon fill="none" stroke="black" points="5746.5,-240 5746.5,-281 5921.5,-281 5921.5,-240 5746.5,-240"/>
<text text-anchor="start" x="5754.5" y="-269" font-family="Helvetica,sans-Serif" font-size="10.00">YarpUtilities/include</text>
<text text-anchor="start" x="5754.5" y="-258" font-family="Helvetica,sans-Serif" font-size="10.00">/BipedalLocomotion/YarpUtilities</text>
<text text-anchor="middle" x="5834" y="-247" font-family="Helvetica,sans-Serif" font-size="10.00">/Helper.h</text>
</a>
</g>
</g>
<!-- Node39&#45;&gt;Node40 -->
<g id="edge43" class="edge">
<title>Node39&#45;&gt;Node40</title>
<path fill="none" stroke="midnightblue" d="M5834,-318.44C5834,-306.1 5834,-292.16 5834,-281.16"/>
<polygon fill="midnightblue" stroke="midnightblue" points="5830.5,-318.76 5834,-328.76 5837.5,-318.76 5830.5,-318.76"/>
</g>
<!-- Node41 -->
<g id="node41" class="node">
<title>Node41</title>
<g id="a_node41"><a xlink:href="YarpImplementation_8tpp.html" target="_top" xlink:title=" ">
<polygon fill="none" stroke="black" points="4059,-151 4059,-192 4307,-192 4307,-151 4059,-151"/>
<text text-anchor="start" x="4067" y="-180" font-family="Helvetica,sans-Serif" font-size="10.00">ParametersHandler/YarpImplementation</text>
<text text-anchor="start" x="4067" y="-169" font-family="Helvetica,sans-Serif" font-size="10.00">/include/BipedalLocomotion/ParametersHandler</text>
<text text-anchor="middle" x="4183" y="-158" font-family="Helvetica,sans-Serif" font-size="10.00">/YarpImplementation.tpp</text>
</a>
</g>
</g>
<!-- Node40&#45;&gt;Node41 -->
<g id="edge44" class="edge">
<title>Node40&#45;&gt;Node41</title>
<path fill="none" stroke="midnightblue" d="M5736.09,-254.34C5451.19,-239.33 4622.87,-195.68 4307.19,-179.04"/>
<polygon fill="midnightblue" stroke="midnightblue" points="5736.23,-257.85 5746.4,-254.88 5736.6,-250.86 5736.23,-257.85"/>
</g>
<!-- Node40&#45;&gt;Node43 -->
<g id="edge48" class="edge">
<title>Node40&#45;&gt;Node43</title>
<path fill="none" stroke="midnightblue" d="M5852.95,-231.07C5864.55,-213.68 5878.58,-192.62 5886.27,-181.09"/>
<polygon fill="midnightblue" stroke="midnightblue" points="5849.8,-229.5 5847.16,-239.76 5855.62,-233.38 5849.8,-229.5"/>
</g>
<!-- Node42 -->
<g id="node42" class="node">
<title>Node42</title>
<g id="a_node42"><a xlink:href="YarpImplementation_8h.html" target="_top" xlink:title=" ">
<polygon fill="none" stroke="black" points="4059,-67.5 4059,-108.5 4307,-108.5 4307,-67.5 4059,-67.5"/>
<text text-anchor="start" x="4067" y="-96.5" font-family="Helvetica,sans-Serif" font-size="10.00">ParametersHandler/YarpImplementation</text>
<text text-anchor="start" x="4067" y="-85.5" font-family="Helvetica,sans-Serif" font-size="10.00">/include/BipedalLocomotion/ParametersHandler</text>
<text text-anchor="middle" x="4183" y="-74.5" font-family="Helvetica,sans-Serif" font-size="10.00">/YarpImplementation.h</text>
</a>
</g>
</g>
<!-- Node41&#45;&gt;Node42 -->
<g id="edge45" class="edge">
<title>Node41&#45;&gt;Node42</title>
<path fill="none" stroke="midnightblue" d="M4176.47,-140.56C4176.03,-129.88 4176.25,-118.13 4177.14,-108.55"/>
<polygon fill="midnightblue" stroke="midnightblue" points="4172.99,-141.02 4177.12,-150.77 4179.97,-140.57 4172.99,-141.02"/>
</g>
<!-- Node42&#45;&gt;Node20 -->
<g id="edge47" class="edge">
<title>Node42&#45;&gt;Node20</title>
<path fill="none" stroke="midnightblue" d="M4048.32,-80.72C3751.61,-66.87 3046.61,-33.98 2778.23,-21.46"/>
<polygon fill="midnightblue" stroke="midnightblue" points="4048.55,-84.23 4058.71,-81.2 4048.88,-77.24 4048.55,-84.23"/>
</g>
<!-- Node42&#45;&gt;Node41 -->
<g id="edge46" class="edge">
<title>Node42&#45;&gt;Node41</title>
<path fill="none" stroke="midnightblue" d="M4189.53,-118.73C4189.97,-129.4 4189.75,-141.16 4188.88,-150.77"/>
<polygon fill="midnightblue" stroke="midnightblue" points="4193,-118.3 4188.86,-108.55 4186.02,-118.75 4193,-118.3"/>
</g>
</g>
</svg>
