<?xml version="1.0" encoding="UTF-8" standalone="no"?>
<!DOCTYPE svg PUBLIC "-//W3C//DTD SVG 1.1//EN"
 "http://www.w3.org/Graphics/SVG/1.1/DTD/svg11.dtd">
<!-- Generated by graphviz version 2.43.0 (0)
 -->
<!-- Title: Contacts/include/BipedalLocomotion/ContactDetectors/SchmittTriggerDetector.h Pages: 1 -->
<svg width="803pt" height="508pt"
 viewBox="0.00 0.00 802.50 508.00" xmlns="http://www.w3.org/2000/svg" xmlns:xlink="http://www.w3.org/1999/xlink">
<g id="graph0" class="graph" transform="scale(1 1) rotate(0) translate(4 504)">
<title>Contacts/include/BipedalLocomotion/ContactDetectors/SchmittTriggerDetector.h</title>
<!-- Node1 -->
<g id="node1" class="node">
<title>Node1</title>
<g id="a_node1"><a xlink:title=" ">
<polygon fill="#bfbfbf" stroke="black" points="370.5,-458.5 370.5,-499.5 531.5,-499.5 531.5,-458.5 370.5,-458.5"/>
<text text-anchor="start" x="378.5" y="-487.5" font-family="Helvetica,sans-Serif" font-size="10.00">Contacts/include/Bipedal</text>
<text text-anchor="start" x="378.5" y="-476.5" font-family="Helvetica,sans-Serif" font-size="10.00">Locomotion/ContactDetectors</text>
<text text-anchor="middle" x="451" y="-465.5" font-family="Helvetica,sans-Serif" font-size="10.00">/SchmittTriggerDetector.h</text>
</a>
</g>
</g>
<!-- Node2 -->
<g id="node2" class="node">
<title>Node2</title>
<g id="a_node2"><a xlink:href="ContactDetector_8h.html" target="_top" xlink:title=" ">
<polygon fill="none" stroke="black" points="373.5,-391.5 373.5,-421.5 528.5,-421.5 528.5,-391.5 373.5,-391.5"/>
<text text-anchor="start" x="381.5" y="-409.5" font-family="Helvetica,sans-Serif" font-size="10.00">BipedalLocomotion/Contact</text>
<text text-anchor="middle" x="451" y="-398.5" font-family="Helvetica,sans-Serif" font-size="10.00">Detectors/ContactDetector.h</text>
</a>
</g>
</g>
<!-- Node1&#45;&gt;Node2 -->
<g id="edge1" class="edge">
<title>Node1&#45;&gt;Node2</title>
<path fill="none" stroke="midnightblue" d="M451,-458.36C451,-450.23 451,-440.7 451,-432.11"/>
<polygon fill="midnightblue" stroke="midnightblue" points="454.5,-431.89 451,-421.89 447.5,-431.89 454.5,-431.89"/>
</g>
<!-- Node18 -->
<g id="node18" class="node">
<title>Node18</title>
<g id="a_node18"><a xlink:title=" ">
<polygon fill="none" stroke="#bfbfbf" points="8,-62 8,-81 68,-81 68,-62 8,-62"/>
<text text-anchor="middle" x="38" y="-69" font-family="Helvetica,sans-Serif" font-size="10.00">iostream</text>
</a>
</g>
</g>
<!-- Node1&#45;&gt;Node18 -->
<g id="edge30" class="edge">
<title>Node1&#45;&gt;Node18</title>
<path fill="none" stroke="midnightblue" d="M370.37,-470.1C240.65,-455.13 0,-417.04 0,-340.5 0,-340.5 0,-340.5 0,-204.5 0,-162.35 18.11,-115.48 29.33,-90.5"/>
<polygon fill="midnightblue" stroke="midnightblue" points="32.61,-91.76 33.64,-81.21 26.26,-88.81 32.61,-91.76"/>
</g>
<!-- Node24 -->
<g id="node24" class="node">
<title>Node24</title>
<g id="a_node24"><a xlink:title=" ">
<polygon fill="none" stroke="#bfbfbf" points="582.5,-330 582.5,-349 675.5,-349 675.5,-330 582.5,-330"/>
<text text-anchor="middle" x="629" y="-337" font-family="Helvetica,sans-Serif" font-size="10.00">unordered_map</text>
</a>
</g>
</g>
<!-- Node1&#45;&gt;Node24 -->
<g id="edge31" class="edge">
<title>Node1&#45;&gt;Node24</title>
<path fill="none" stroke="midnightblue" d="M483.63,-458.35C500.03,-448.07 519.99,-434.96 537,-422 564.97,-400.69 595.04,-373.05 612.93,-356.06"/>
<polygon fill="midnightblue" stroke="midnightblue" points="615.44,-358.5 620.24,-349.06 610.6,-353.45 615.44,-358.5"/>
</g>
<!-- Node3 -->
<g id="node3" class="node">
<title>Node3</title>
<g id="a_node3"><a xlink:href="Source_8h.html" target="_top" xlink:title=" ">
<polygon fill="none" stroke="black" points="376,-324.5 376,-354.5 526,-354.5 526,-324.5 376,-324.5"/>
<text text-anchor="start" x="384" y="-342.5" font-family="Helvetica,sans-Serif" font-size="10.00">BipedalLocomotion/System</text>
<text text-anchor="middle" x="451" y="-331.5" font-family="Helvetica,sans-Serif" font-size="10.00">/Source.h</text>
</a>
</g>
</g>
<!-- Node2&#45;&gt;Node3 -->
<g id="edge2" class="edge">
<title>Node2&#45;&gt;Node3</title>
<path fill="none" stroke="midnightblue" d="M451,-391.4C451,-383.64 451,-373.81 451,-364.86"/>
<polygon fill="midnightblue" stroke="midnightblue" points="454.5,-364.58 451,-354.58 447.5,-364.58 454.5,-364.58"/>
</g>
<!-- Node6 -->
<g id="node6" class="node">
<title>Node6</title>
<g id="a_node6"><a xlink:href="IParametersHandler_8h.html" target="_top" xlink:title=" ">
<polygon fill="none" stroke="black" points="469.5,-190.5 469.5,-220.5 638.5,-220.5 638.5,-190.5 469.5,-190.5"/>
<text text-anchor="start" x="477.5" y="-208.5" font-family="Helvetica,sans-Serif" font-size="10.00">BipedalLocomotion/Parameters</text>
<text text-anchor="middle" x="554" y="-197.5" font-family="Helvetica,sans-Serif" font-size="10.00">Handler/IParametersHandler.h</text>
</a>
</g>
</g>
<!-- Node2&#45;&gt;Node6 -->
<g id="edge20" class="edge">
<title>Node2&#45;&gt;Node6</title>
<path fill="none" stroke="midnightblue" d="M489.64,-391.33C506.27,-383.24 524.3,-371.39 535,-355 559.78,-317.04 559.62,-261.86 556.99,-230.56"/>
<polygon fill="midnightblue" stroke="midnightblue" points="560.47,-230.15 556,-220.55 553.5,-230.84 560.47,-230.15"/>
</g>
<!-- Node2&#45;&gt;Node18 -->
<g id="edge28" class="edge">
<title>Node2&#45;&gt;Node18</title>
<path fill="none" stroke="midnightblue" d="M373.32,-396.74C253.68,-381.06 38,-343.13 38,-273.5 38,-273.5 38,-273.5 38,-204.5 38,-164.16 38,-116.88 38,-91.28"/>
<polygon fill="midnightblue" stroke="midnightblue" points="41.5,-91.15 38,-81.15 34.5,-91.15 41.5,-91.15"/>
</g>
<!-- Node19 -->
<g id="node19" class="node">
<title>Node19</title>
<g id="a_node19"><a xlink:href="Contact_8h.html" target="_top" xlink:title=" ">
<polygon fill="none" stroke="black" points="188,-324.5 188,-354.5 344,-354.5 344,-324.5 188,-324.5"/>
<text text-anchor="start" x="196" y="-342.5" font-family="Helvetica,sans-Serif" font-size="10.00">BipedalLocomotion/Contacts</text>
<text text-anchor="middle" x="266" y="-331.5" font-family="Helvetica,sans-Serif" font-size="10.00">/Contact.h</text>
</a>
</g>
</g>
<!-- Node2&#45;&gt;Node19 -->
<g id="edge21" class="edge">
<title>Node2&#45;&gt;Node19</title>
<path fill="none" stroke="midnightblue" d="M410.86,-391.4C382.98,-381.6 345.64,-368.48 315.85,-358.02"/>
<polygon fill="midnightblue" stroke="midnightblue" points="316.66,-354.59 306.06,-354.58 314.34,-361.19 316.66,-354.59"/>
</g>
<!-- Node2&#45;&gt;Node24 -->
<g id="edge29" class="edge">
<title>Node2&#45;&gt;Node24</title>
<path fill="none" stroke="midnightblue" d="M489.62,-391.4C521.41,-379.79 565.98,-363.51 596.09,-352.52"/>
<polygon fill="midnightblue" stroke="midnightblue" points="597.51,-355.72 605.7,-349.01 595.11,-349.15 597.51,-355.72"/>
</g>
<!-- Node4 -->
<g id="node4" class="node">
<title>Node4</title>
<g id="a_node4"><a xlink:href="Advanceable_8h.html" target="_top" xlink:title=" ">
<polygon fill="none" stroke="black" points="376,-257.5 376,-287.5 526,-287.5 526,-257.5 376,-257.5"/>
<text text-anchor="start" x="384" y="-275.5" font-family="Helvetica,sans-Serif" font-size="10.00">BipedalLocomotion/System</text>
<text text-anchor="middle" x="451" y="-264.5" font-family="Helvetica,sans-Serif" font-size="10.00">/Advanceable.h</text>
</a>
</g>
</g>
<!-- Node3&#45;&gt;Node4 -->
<g id="edge3" class="edge">
<title>Node3&#45;&gt;Node4</title>
<path fill="none" stroke="midnightblue" d="M451,-324.4C451,-316.64 451,-306.81 451,-297.86"/>
<polygon fill="midnightblue" stroke="midnightblue" points="454.5,-297.58 451,-287.58 447.5,-297.58 454.5,-297.58"/>
</g>
<!-- Node5 -->
<g id="node5" class="node">
<title>Node5</title>
<g id="a_node5"><a xlink:title=" ">
<polygon fill="none" stroke="#bfbfbf" points="400.5,-196 400.5,-215 451.5,-215 451.5,-196 400.5,-196"/>
<text text-anchor="middle" x="426" y="-203" font-family="Helvetica,sans-Serif" font-size="10.00">variant</text>
</a>
</g>
</g>
<!-- Node4&#45;&gt;Node5 -->
<g id="edge4" class="edge">
<title>Node4&#45;&gt;Node5</title>
<path fill="none" stroke="midnightblue" d="M445.58,-257.4C441.87,-247.76 436.93,-234.91 432.94,-224.54"/>
<polygon fill="midnightblue" stroke="midnightblue" points="436.2,-223.27 429.34,-215.19 429.67,-225.78 436.2,-223.27"/>
</g>
<!-- Node4&#45;&gt;Node6 -->
<g id="edge5" class="edge">
<title>Node4&#45;&gt;Node6</title>
<path fill="none" stroke="midnightblue" d="M473.35,-257.4C487.93,-248.2 507.15,-236.07 523.17,-225.95"/>
<polygon fill="midnightblue" stroke="midnightblue" points="525.11,-228.87 531.69,-220.58 521.37,-222.95 525.11,-228.87"/>
</g>
<!-- Node7 -->
<g id="node7" class="node">
<title>Node7</title>
<g id="a_node7"><a xlink:title=" ">
<polygon fill="none" stroke="#bfbfbf" points="516,-62 516,-81 574,-81 574,-62 516,-62"/>
<text text-anchor="middle" x="545" y="-69" font-family="Helvetica,sans-Serif" font-size="10.00">memory</text>
</a>
</g>
</g>
<!-- Node6&#45;&gt;Node7 -->
<g id="edge6" class="edge">
<title>Node6&#45;&gt;Node7</title>
<path fill="none" stroke="midnightblue" d="M566.24,-190.12C573.54,-180.57 582.12,-167.36 586,-154 589.84,-140.77 590.61,-135.98 586,-123 581.33,-109.83 571.59,-97.59 562.78,-88.46"/>
<polygon fill="midnightblue" stroke="midnightblue" points="565.03,-85.77 555.42,-81.29 560.14,-90.78 565.03,-85.77"/>
</g>
<!-- Node8 -->
<g id="node8" class="node">
<title>Node8</title>
<g id="a_node8"><a xlink:title=" ">
<polygon fill="none" stroke="#bfbfbf" points="299,-129 299,-148 343,-148 343,-129 299,-129"/>
<text text-anchor="middle" x="321" y="-136" font-family="Helvetica,sans-Serif" font-size="10.00">string</text>
</a>
</g>
</g>
<!-- Node6&#45;&gt;Node8 -->
<g id="edge7" class="edge">
<title>Node6&#45;&gt;Node8</title>
<path fill="none" stroke="midnightblue" d="M483.84,-190.45C444.53,-181.71 394.92,-169.24 352,-154 350.38,-153.43 348.74,-152.8 347.09,-152.13"/>
<polygon fill="midnightblue" stroke="midnightblue" points="348.37,-148.87 337.81,-148.08 345.57,-155.29 348.37,-148.87"/>
</g>
<!-- Node9 -->
<g id="node9" class="node">
<title>Node9</title>
<g id="a_node9"><a xlink:title=" ">
<polygon fill="none" stroke="#bfbfbf" points="530.5,-129 530.5,-148 577.5,-148 577.5,-129 530.5,-129"/>
<text text-anchor="middle" x="554" y="-136" font-family="Helvetica,sans-Serif" font-size="10.00">vector</text>
</a>
</g>
</g>
<!-- Node6&#45;&gt;Node9 -->
<g id="edge8" class="edge">
<title>Node6&#45;&gt;Node9</title>
<path fill="none" stroke="midnightblue" d="M554,-190.4C554,-181.06 554,-168.71 554,-158.52"/>
<polygon fill="midnightblue" stroke="midnightblue" points="557.5,-158.19 554,-148.19 550.5,-158.19 557.5,-158.19"/>
</g>
<!-- Node10 -->
<g id="node10" class="node">
<title>Node10</title>
<g id="a_node10"><a xlink:href="TemplateHelpers_8h_source.html" target="_top" xlink:title=" ">
<polygon fill="none" stroke="black" points="592,-56.5 592,-86.5 750,-86.5 750,-56.5 592,-56.5"/>
<text text-anchor="start" x="600" y="-74.5" font-family="Helvetica,sans-Serif" font-size="10.00">BipedalLocomotion/Generic</text>
<text text-anchor="middle" x="671" y="-63.5" font-family="Helvetica,sans-Serif" font-size="10.00">Container/TemplateHelpers.h</text>
</a>
</g>
</g>
<!-- Node6&#45;&gt;Node10 -->
<g id="edge9" class="edge">
<title>Node6&#45;&gt;Node10</title>
<path fill="none" stroke="midnightblue" d="M568.09,-190.12C577.78,-180.13 590.85,-166.42 602,-154 619.71,-134.26 639.18,-111.13 652.9,-94.56"/>
<polygon fill="midnightblue" stroke="midnightblue" points="655.85,-96.49 659.52,-86.55 650.45,-92.03 655.85,-96.49"/>
</g>
<!-- Node14 -->
<g id="node14" class="node">
<title>Node14</title>
<g id="a_node14"><a xlink:href="Vector_8h_source.html" target="_top" xlink:title=" ">
<polygon fill="none" stroke="black" points="361.5,-123.5 361.5,-153.5 512.5,-153.5 512.5,-123.5 361.5,-123.5"/>
<text text-anchor="start" x="369.5" y="-141.5" font-family="Helvetica,sans-Serif" font-size="10.00">BipedalLocomotion/Generic</text>
<text text-anchor="middle" x="437" y="-130.5" font-family="Helvetica,sans-Serif" font-size="10.00">Container/Vector.h</text>
</a>
</g>
</g>
<!-- Node6&#45;&gt;Node14 -->
<g id="edge13" class="edge">
<title>Node6&#45;&gt;Node14</title>
<path fill="none" stroke="midnightblue" d="M528.61,-190.4C511.82,-181.07 489.61,-168.73 471.26,-158.53"/>
<polygon fill="midnightblue" stroke="midnightblue" points="472.78,-155.37 462.34,-153.58 469.38,-161.49 472.78,-155.37"/>
</g>
<!-- Node11 -->
<g id="node11" class="node">
<title>Node11</title>
<g id="a_node11"><a xlink:title=" ">
<polygon fill="none" stroke="#bfbfbf" points="547.5,-0.5 547.5,-19.5 616.5,-19.5 616.5,-0.5 547.5,-0.5"/>
<text text-anchor="middle" x="582" y="-7.5" font-family="Helvetica,sans-Serif" font-size="10.00">type_traits</text>
</a>
</g>
</g>
<!-- Node10&#45;&gt;Node11 -->
<g id="edge10" class="edge">
<title>Node10&#45;&gt;Node11</title>
<path fill="none" stroke="midnightblue" d="M649.91,-56.4C635.91,-47.04 617.59,-34.79 603.51,-25.38"/>
<polygon fill="midnightblue" stroke="midnightblue" points="605.21,-22.31 594.95,-19.66 601.32,-28.13 605.21,-22.31"/>
</g>
<!-- Node12 -->
<g id="node12" class="node">
<title>Node12</title>
<g id="a_node12"><a xlink:title=" ">
<polygon fill="none" stroke="#bfbfbf" points="634.5,-0.5 634.5,-19.5 707.5,-19.5 707.5,-0.5 634.5,-0.5"/>
<text text-anchor="middle" x="671" y="-7.5" font-family="Helvetica,sans-Serif" font-size="10.00">string_view</text>
</a>
</g>
</g>
<!-- Node10&#45;&gt;Node12 -->
<g id="edge11" class="edge">
<title>Node10&#45;&gt;Node12</title>
<path fill="none" stroke="midnightblue" d="M671,-56.4C671,-48.47 671,-38.46 671,-29.86"/>
<polygon fill="midnightblue" stroke="midnightblue" points="674.5,-29.66 671,-19.66 667.5,-29.66 674.5,-29.66"/>
</g>
<!-- Node13 -->
<g id="node13" class="node">
<title>Node13</title>
<g id="a_node13"><a xlink:title=" ">
<polygon fill="none" stroke="#bfbfbf" points="725.5,-0.5 725.5,-19.5 794.5,-19.5 794.5,-0.5 725.5,-0.5"/>
<text text-anchor="middle" x="760" y="-7.5" font-family="Helvetica,sans-Serif" font-size="10.00">Eigen/Core</text>
</a>
</g>
</g>
<!-- Node10&#45;&gt;Node13 -->
<g id="edge12" class="edge">
<title>Node10&#45;&gt;Node13</title>
<path fill="none" stroke="midnightblue" d="M692.09,-56.4C706.09,-47.04 724.41,-34.79 738.49,-25.38"/>
<polygon fill="midnightblue" stroke="midnightblue" points="740.68,-28.13 747.05,-19.66 736.79,-22.31 740.68,-28.13"/>
</g>
<!-- Node14&#45;&gt;Node7 -->
<g id="edge19" class="edge">
<title>Node14&#45;&gt;Node7</title>
<path fill="none" stroke="midnightblue" d="M460.43,-123.4C478.71,-112.39 503.96,-97.2 522.1,-86.28"/>
<polygon fill="midnightblue" stroke="midnightblue" points="524.1,-89.16 530.87,-81.01 520.49,-83.16 524.1,-89.16"/>
</g>
<!-- Node14&#45;&gt;Node10 -->
<g id="edge15" class="edge">
<title>Node14&#45;&gt;Node10</title>
<path fill="none" stroke="midnightblue" d="M487.49,-123.48C523.5,-113.47 572.1,-99.97 610.24,-89.38"/>
<polygon fill="midnightblue" stroke="midnightblue" points="611.5,-92.66 620.2,-86.61 609.63,-85.92 611.5,-92.66"/>
</g>
<!-- Node15 -->
<g id="node15" class="node">
<title>Node15</title>
<g id="a_node15"><a xlink:title=" ">
<polygon fill="none" stroke="#bfbfbf" points="376.5,-62 376.5,-81 497.5,-81 497.5,-62 376.5,-62"/>
<text text-anchor="middle" x="437" y="-69" font-family="Helvetica,sans-Serif" font-size="10.00">iDynTree/Core/Span.h</text>
</a>
</g>
</g>
<!-- Node14&#45;&gt;Node15 -->
<g id="edge14" class="edge">
<title>Node14&#45;&gt;Node15</title>
<path fill="none" stroke="midnightblue" d="M437,-123.4C437,-114.06 437,-101.71 437,-91.52"/>
<polygon fill="midnightblue" stroke="midnightblue" points="440.5,-91.19 437,-81.19 433.5,-91.19 440.5,-91.19"/>
</g>
<!-- Node16 -->
<g id="node16" class="node">
<title>Node16</title>
<g id="a_node16"><a xlink:title=" ">
<polygon fill="none" stroke="#bfbfbf" points="222.5,-62 222.5,-81 287.5,-81 287.5,-62 222.5,-62"/>
<text text-anchor="middle" x="255" y="-69" font-family="Helvetica,sans-Serif" font-size="10.00">functional</text>
</a>
</g>
</g>
<!-- Node14&#45;&gt;Node16 -->
<g id="edge16" class="edge">
<title>Node14&#45;&gt;Node16</title>
<path fill="none" stroke="midnightblue" d="M397.51,-123.4C364.87,-111.74 319.04,-95.37 288.25,-84.38"/>
<polygon fill="midnightblue" stroke="midnightblue" points="289.41,-81.07 278.82,-81.01 287.06,-87.67 289.41,-81.07"/>
</g>
<!-- Node17 -->
<g id="node17" class="node">
<title>Node17</title>
<g id="a_node17"><a xlink:title=" ">
<polygon fill="none" stroke="#bfbfbf" points="306,-62 306,-81 358,-81 358,-62 306,-62"/>
<text text-anchor="middle" x="332" y="-69" font-family="Helvetica,sans-Serif" font-size="10.00">cassert</text>
</a>
</g>
</g>
<!-- Node14&#45;&gt;Node17 -->
<g id="edge17" class="edge">
<title>Node14&#45;&gt;Node17</title>
<path fill="none" stroke="midnightblue" d="M414.22,-123.4C396.45,-112.39 371.9,-97.2 354.26,-86.28"/>
<polygon fill="midnightblue" stroke="midnightblue" points="356.09,-83.29 345.74,-81.01 352.4,-89.25 356.09,-83.29"/>
</g>
<!-- Node14&#45;&gt;Node18 -->
<g id="edge18" class="edge">
<title>Node14&#45;&gt;Node18</title>
<path fill="none" stroke="midnightblue" d="M361.46,-124.58C358.27,-124.04 355.1,-123.51 352,-123 253.85,-106.74 138.31,-88.35 78.49,-78.89"/>
<polygon fill="midnightblue" stroke="midnightblue" points="78.75,-75.38 68.33,-77.28 77.66,-82.3 78.75,-75.38"/>
</g>
<!-- Node19&#45;&gt;Node8 -->
<g id="edge27" class="edge">
<title>Node19&#45;&gt;Node8</title>
<path fill="none" stroke="midnightblue" d="M280.32,-324.4C289.6,-314.74 301.48,-301.32 310,-288 327.57,-260.51 333.18,-252.91 340,-221 342.88,-207.53 342.47,-203.56 340,-190 337.96,-178.76 333.55,-166.78 329.5,-157.3"/>
<polygon fill="midnightblue" stroke="midnightblue" points="332.67,-155.83 325.36,-148.16 326.29,-158.72 332.67,-155.83"/>
</g>
<!-- Node20 -->
<g id="node20" class="node">
<title>Node20</title>
<g id="a_node20"><a xlink:href="Wrench_8h.html" target="_top" xlink:title=" ">
<polygon fill="none" stroke="black" points="163,-257.5 163,-287.5 301,-287.5 301,-257.5 163,-257.5"/>
<text text-anchor="start" x="171" y="-275.5" font-family="Helvetica,sans-Serif" font-size="10.00">BipedalLocomotion/Math</text>
<text text-anchor="middle" x="232" y="-264.5" font-family="Helvetica,sans-Serif" font-size="10.00">/Wrench.h</text>
</a>
</g>
</g>
<!-- Node19&#45;&gt;Node20 -->
<g id="edge22" class="edge">
<title>Node19&#45;&gt;Node20</title>
<path fill="none" stroke="midnightblue" d="M258.62,-324.4C254.39,-316.3 248.97,-305.94 244.13,-296.69"/>
<polygon fill="midnightblue" stroke="midnightblue" points="247.1,-294.82 239.36,-287.58 240.9,-298.06 247.1,-294.82"/>
</g>
<!-- Node22 -->
<g id="node22" class="node">
<title>Node22</title>
<g id="a_node22"><a xlink:title=" ">
<polygon fill="none" stroke="#bfbfbf" points="66.5,-196 66.5,-215 141.5,-215 141.5,-196 66.5,-196"/>
<text text-anchor="middle" x="104" y="-203" font-family="Helvetica,sans-Serif" font-size="10.00">manif/SE3.h</text>
</a>
</g>
</g>
<!-- Node19&#45;&gt;Node22 -->
<g id="edge26" class="edge">
<title>Node19&#45;&gt;Node22</title>
<path fill="none" stroke="midnightblue" d="M219.09,-324.49C197.52,-316.36 172.65,-304.42 154,-288 134.01,-270.39 119.43,-242.83 111.34,-224.71"/>
<polygon fill="midnightblue" stroke="midnightblue" points="114.46,-223.12 107.33,-215.28 108.02,-225.86 114.46,-223.12"/>
</g>
<!-- Node21 -->
<g id="node21" class="node">
<title>Node21</title>
<g id="a_node21"><a xlink:title=" ">
<polygon fill="none" stroke="#bfbfbf" points="254.5,-196 254.5,-215 331.5,-215 331.5,-196 254.5,-196"/>
<text text-anchor="middle" x="293" y="-203" font-family="Helvetica,sans-Serif" font-size="10.00">Eigen/Dense</text>
</a>
</g>
</g>
<!-- Node20&#45;&gt;Node21 -->
<g id="edge23" class="edge">
<title>Node20&#45;&gt;Node21</title>
<path fill="none" stroke="midnightblue" d="M245.24,-257.4C254.84,-247.16 267.85,-233.3 277.87,-222.62"/>
<polygon fill="midnightblue" stroke="midnightblue" points="280.55,-224.88 284.84,-215.19 275.45,-220.09 280.55,-224.88"/>
</g>
<!-- Node20&#45;&gt;Node22 -->
<g id="edge24" class="edge">
<title>Node20&#45;&gt;Node22</title>
<path fill="none" stroke="midnightblue" d="M204.23,-257.4C182.06,-246.14 151.26,-230.5 129.67,-219.54"/>
<polygon fill="midnightblue" stroke="midnightblue" points="131.25,-216.41 120.75,-215.01 128.08,-222.66 131.25,-216.41"/>
</g>
<!-- Node23 -->
<g id="node23" class="node">
<title>Node23</title>
<g id="a_node23"><a xlink:title=" ">
<polygon fill="none" stroke="#bfbfbf" points="159.5,-196 159.5,-215 236.5,-215 236.5,-196 159.5,-196"/>
<text text-anchor="middle" x="198" y="-203" font-family="Helvetica,sans-Serif" font-size="10.00">manif/SO3.h</text>
</a>
</g>
</g>
<!-- Node20&#45;&gt;Node23 -->
<g id="edge25" class="edge">
<title>Node20&#45;&gt;Node23</title>
<path fill="none" stroke="midnightblue" d="M224.62,-257.4C219.53,-247.66 212.72,-234.65 207.27,-224.21"/>
<polygon fill="midnightblue" stroke="midnightblue" points="210.28,-222.43 202.55,-215.19 204.08,-225.68 210.28,-222.43"/>
</g>
</g>
</svg>
