<?xml version="1.0" encoding="UTF-8" standalone="no"?>
<!DOCTYPE svg PUBLIC "-//W3C//DTD SVG 1.1//EN"
 "http://www.w3.org/Graphics/SVG/1.1/DTD/svg11.dtd">
<!-- Generated by graphviz version 2.43.0 (0)
 -->
<!-- Title: System/include/BipedalLocomotion/System/Source.h Pages: 1 -->
<!--zoomable 273 -->
<svg id="main" version="1.1" xmlns="http://www.w3.org/2000/svg" xmlns:xlink="http://www.w3.org/1999/xlink" xml:space="preserve" onload="init(evt)">
<style type="text/css"><![CDATA[
.edge:hover path { stroke: red; }
.edge:hover polygon { stroke: red; fill: red; }
]]></style>
<script type="text/javascript"><![CDATA[
var edges = document.getElementsByTagName('g');
if (edges && edges.length) {
  for (var i=0;i<edges.length;i++) {
    if (edges[i].id.substr(0,4)=='edge') {
      edges[i].setAttribute('class','edge');
    }
  }
}
]]></script>
        <defs>
                <circle id="rim" cx="0" cy="0" r="7"/>
                <circle id="rim2" cx="0" cy="0" r="3.5"/>
                <g id="zoomPlus">
                        <use xlink:href="#rim" fill="#404040">
                                <set attributeName="fill" to="#808080" begin="zoomplus.mouseover" end="zoomplus.mouseout"/>
                        </use>
                        <path d="M-4,0h8M0,-4v8" fill="none" stroke="white" stroke-width="1.5" pointer-events="none"/>
                </g>
                <g id="zoomMin">
                        <use xlink:href="#rim" fill="#404040">
                                <set attributeName="fill" to="#808080" begin="zoomminus.mouseover" end="zoomminus.mouseout"/>
                        </use>
                        <path d="M-4,0h8" fill="none" stroke="white" stroke-width="1.5" pointer-events="none"/>
                </g>
                <g id="dirArrow">
                        <path fill="none" stroke="white" stroke-width="1.5" d="M0,-3.0v7 M-2.5,-0.5L0,-3.0L2.5,-0.5"/>
                </g>
               <g id="resetDef">
                       <use xlink:href="#rim2" fill="#404040">
                               <set attributeName="fill" to="#808080" begin="reset.mouseover" end="reset.mouseout"/>
                       </use>
               </g>
        </defs>

<script type="text/javascript">
var viewWidth = 2869;
var viewHeight = 273;
var sectionId = 'dynsection-1';
</script>
<script xlink:href="svgpan.js"/>
<svg id="graph" class="graph">
<g id="viewport">
<title>System/include/BipedalLocomotion/System/Source.h</title>
<!-- Node1 -->
<g id="node1" class="node">
<title>Node1</title>
<g id="a_node1"><a xlink:title=" ">
<polygon fill="#bfbfbf" stroke="black" points="1524.5,-234.5 1524.5,-264.5 1712.5,-264.5 1712.5,-234.5 1524.5,-234.5"/>
<text text-anchor="start" x="1532.5" y="-252.5" font-family="Helvetica,sans-Serif" font-size="10.00">System/include/BipedalLocomotion</text>
<text text-anchor="middle" x="1618.5" y="-241.5" font-family="Helvetica,sans-Serif" font-size="10.00">/System/Source.h</text>
</a>
</g>
</g>
<!-- Node2 -->
<g id="node2" class="node">
<title>Node2</title>
<g id="a_node2"><a xlink:href="ContactDetector_8h.html" target="_top" xlink:title=" ">
<polygon fill="none" stroke="black" points="188,-156.5 188,-197.5 349,-197.5 349,-156.5 188,-156.5"/>
<text text-anchor="start" x="196" y="-185.5" font-family="Helvetica,sans-Serif" font-size="10.00">Contacts/include/Bipedal</text>
<text text-anchor="start" x="196" y="-174.5" font-family="Helvetica,sans-Serif" font-size="10.00">Locomotion/ContactDetectors</text>
<text text-anchor="middle" x="268.5" y="-163.5" font-family="Helvetica,sans-Serif" font-size="10.00">/ContactDetector.h</text>
</a>
</g>
</g>
<!-- Node1&#45;&gt;Node2 -->
<g id="edge1" class="edge">
<title>Node1&#45;&gt;Node2</title>
<path fill="none" stroke="midnightblue" d="M1514.17,-246.61C1308.36,-242.31 835.65,-229.61 439.5,-198 410,-195.65 377.75,-192.12 349.28,-188.68"/>
<polygon fill="midnightblue" stroke="midnightblue" points="1514.3,-250.11 1524.37,-246.82 1514.44,-243.11 1514.3,-250.11"/>
</g>
<!-- Node6 -->
<g id="node6" class="node">
<title>Node6</title>
<g id="a_node6"><a xlink:href="RecursiveLeastSquare_8h.html" target="_top" xlink:title=" ">
<polygon fill="none" stroke="black" points="449,-156.5 449,-197.5 618,-197.5 618,-156.5 449,-156.5"/>
<text text-anchor="start" x="457" y="-185.5" font-family="Helvetica,sans-Serif" font-size="10.00">Estimators/include</text>
<text text-anchor="start" x="457" y="-174.5" font-family="Helvetica,sans-Serif" font-size="10.00">/BipedalLocomotion/Estimators</text>
<text text-anchor="middle" x="533.5" y="-163.5" font-family="Helvetica,sans-Serif" font-size="10.00">/RecursiveLeastSquare.h</text>
</a>
</g>
</g>
<!-- Node1&#45;&gt;Node6 -->
<g id="edge5" class="edge">
<title>Node1&#45;&gt;Node6</title>
<path fill="none" stroke="midnightblue" d="M1514.16,-242.72C1356.96,-233.88 1050.07,-216.11 789.5,-198 732.35,-194.03 668.08,-189 618.22,-184.99"/>
<polygon fill="midnightblue" stroke="midnightblue" points="1514.11,-246.22 1524.29,-243.29 1514.5,-239.23 1514.11,-246.22"/>
</g>
<!-- Node8 -->
<g id="node8" class="node">
<title>Node8</title>
<g id="a_node8"><a xlink:href="FloatingBaseEstimator_8h.html" target="_top" xlink:title=" ">
<polygon fill="none" stroke="black" points="799,-156.5 799,-197.5 1014,-197.5 1014,-156.5 799,-156.5"/>
<text text-anchor="start" x="807" y="-185.5" font-family="Helvetica,sans-Serif" font-size="10.00">Estimators/include</text>
<text text-anchor="start" x="807" y="-174.5" font-family="Helvetica,sans-Serif" font-size="10.00">/BipedalLocomotion/Floating</text>
<text text-anchor="middle" x="906.5" y="-163.5" font-family="Helvetica,sans-Serif" font-size="10.00">BaseEstimators/FloatingBaseEstimator.h</text>
</a>
</g>
</g>
<!-- Node1&#45;&gt;Node8 -->
<g id="edge7" class="edge">
<title>Node1&#45;&gt;Node8</title>
<path fill="none" stroke="midnightblue" d="M1513.85,-238.34C1409.79,-228.22 1245.6,-212.18 1103.5,-198 1074.51,-195.11 1043.12,-191.94 1014.1,-188.99"/>
<polygon fill="midnightblue" stroke="midnightblue" points="1513.75,-241.85 1524.04,-239.34 1514.43,-234.88 1513.75,-241.85"/>
</g>
<!-- Node14 -->
<g id="node14" class="node">
<title>Node14</title>
<g id="a_node14"><a xlink:href="IntegrationBasedIK_8h.html" target="_top" xlink:title=" ">
<polygon fill="none" stroke="black" points="1113,-162 1113,-192 1274,-192 1274,-162 1113,-162"/>
<text text-anchor="start" x="1121" y="-180" font-family="Helvetica,sans-Serif" font-size="10.00">IK/include/BipedalLocomotion</text>
<text text-anchor="middle" x="1193.5" y="-169" font-family="Helvetica,sans-Serif" font-size="10.00">/IK/IntegrationBasedIK.h</text>
</a>
</g>
</g>
<!-- Node1&#45;&gt;Node14 -->
<g id="edge13" class="edge">
<title>Node1&#45;&gt;Node14</title>
<path fill="none" stroke="midnightblue" d="M1514.26,-234.43C1448.47,-225.12 1361.8,-212.06 1285.5,-198 1275.86,-196.22 1265.68,-194.18 1255.75,-192.09"/>
<polygon fill="midnightblue" stroke="midnightblue" points="1513.83,-237.9 1524.22,-235.83 1514.8,-230.97 1513.83,-237.9"/>
</g>
<!-- Node17 -->
<g id="node17" class="node">
<title>Node17</title>
<g id="a_node17"><a xlink:href="ArucoDetector_8h.html" target="_top" xlink:title=" ">
<polygon fill="none" stroke="black" points="1294.5,-156.5 1294.5,-197.5 1462.5,-197.5 1462.5,-156.5 1294.5,-156.5"/>
<text text-anchor="start" x="1302.5" y="-185.5" font-family="Helvetica,sans-Serif" font-size="10.00">Perception/include</text>
<text text-anchor="start" x="1302.5" y="-174.5" font-family="Helvetica,sans-Serif" font-size="10.00">/BipedalLocomotion/Perception</text>
<text text-anchor="middle" x="1378.5" y="-163.5" font-family="Helvetica,sans-Serif" font-size="10.00">/Features/ArucoDetector.h</text>
</a>
</g>
</g>
<!-- Node1&#45;&gt;Node17 -->
<g id="edge16" class="edge">
<title>Node1&#45;&gt;Node17</title>
<path fill="none" stroke="midnightblue" d="M1560.79,-231.55C1525.98,-221.32 1481.5,-208.26 1445.2,-197.59"/>
<polygon fill="midnightblue" stroke="midnightblue" points="1560.22,-235.03 1570.8,-234.49 1562.19,-228.31 1560.22,-235.03"/>
</g>
<!-- Node19 -->
<g id="node19" class="node">
<title>Node19</title>
<g id="a_node19"><a xlink:href="DCMPlanner_8h.html" target="_top" xlink:title=" ">
<polygon fill="none" stroke="black" points="1523.5,-162 1523.5,-192 1713.5,-192 1713.5,-162 1523.5,-162"/>
<text text-anchor="start" x="1531.5" y="-180" font-family="Helvetica,sans-Serif" font-size="10.00">Planners/include/Bipedal</text>
<text text-anchor="middle" x="1618.5" y="-169" font-family="Helvetica,sans-Serif" font-size="10.00">Locomotion/Planners/DCMPlanner.h</text>
</a>
</g>
</g>
<!-- Node1&#45;&gt;Node19 -->
<g id="edge18" class="edge">
<title>Node1&#45;&gt;Node19</title>
<path fill="none" stroke="midnightblue" d="M1618.5,-224.23C1618.5,-213.57 1618.5,-201.41 1618.5,-192.25"/>
<polygon fill="midnightblue" stroke="midnightblue" points="1615,-224.23 1618.5,-234.23 1622,-224.23 1615,-224.23"/>
</g>
<!-- Node23 -->
<g id="node23" class="node">
<title>Node23</title>
<g id="a_node23"><a xlink:href="QuinticSpline_8h.html" target="_top" xlink:title=" ">
<polygon fill="none" stroke="black" points="1787,-162 1787,-192 1982,-192 1982,-162 1787,-162"/>
<text text-anchor="start" x="1795" y="-180" font-family="Helvetica,sans-Serif" font-size="10.00">Planners/include/Bipedal</text>
<text text-anchor="middle" x="1884.5" y="-169" font-family="Helvetica,sans-Serif" font-size="10.00">Locomotion/Planners/QuinticSpline.h</text>
</a>
</g>
</g>
<!-- Node1&#45;&gt;Node23 -->
<g id="edge22" class="edge">
<title>Node1&#45;&gt;Node23</title>
<path fill="none" stroke="midnightblue" d="M1681.16,-231.89C1726.81,-219.79 1787.98,-203.58 1831.27,-192.11"/>
<polygon fill="midnightblue" stroke="midnightblue" points="1680.14,-228.54 1671.37,-234.49 1681.93,-235.31 1680.14,-228.54"/>
</g>
<!-- Node24 -->
<g id="node24" class="node">
<title>Node24</title>
<g id="a_node24"><a xlink:href="SwingFootPlanner_8h.html" target="_top" xlink:title=" ">
<polygon fill="none" stroke="black" points="2082.5,-73 2082.5,-114 2254.5,-114 2254.5,-73 2082.5,-73"/>
<text text-anchor="start" x="2090.5" y="-102" font-family="Helvetica,sans-Serif" font-size="10.00">Planners/include/Bipedal</text>
<text text-anchor="start" x="2090.5" y="-91" font-family="Helvetica,sans-Serif" font-size="10.00">Locomotion/Planners/SwingFoot</text>
<text text-anchor="middle" x="2168.5" y="-80" font-family="Helvetica,sans-Serif" font-size="10.00">Planner.h</text>
</a>
</g>
</g>
<!-- Node1&#45;&gt;Node24 -->
<g id="edge31" class="edge">
<title>Node1&#45;&gt;Node24</title>
<path fill="none" stroke="midnightblue" d="M1722.61,-245.22C1798.62,-240.25 1903.19,-227.98 1990.5,-198 2048.65,-178.03 2109.01,-138.17 2142.37,-114.17"/>
<polygon fill="midnightblue" stroke="midnightblue" points="1722.31,-241.73 1712.55,-245.85 1722.75,-248.72 1722.31,-241.73"/>
</g>
<!-- Node27 -->
<g id="node27" class="node">
<title>Node27</title>
<g id="a_node27"><a xlink:href="SO3Planner_8h.html" target="_top" xlink:title=" ">
<polygon fill="none" stroke="black" points="2101.5,-162 2101.5,-192 2287.5,-192 2287.5,-162 2101.5,-162"/>
<text text-anchor="start" x="2109.5" y="-180" font-family="Helvetica,sans-Serif" font-size="10.00">Planners/include/Bipedal</text>
<text text-anchor="middle" x="2194.5" y="-169" font-family="Helvetica,sans-Serif" font-size="10.00">Locomotion/Planners/SO3Planner.h</text>
</a>
</g>
</g>
<!-- Node1&#45;&gt;Node27 -->
<g id="edge27" class="edge">
<title>Node1&#45;&gt;Node27</title>
<path fill="none" stroke="midnightblue" d="M1722.82,-237.74C1812.88,-228.19 1946.42,-213.39 2062.5,-198 2076.29,-196.17 2090.86,-194.1 2105.1,-192"/>
<polygon fill="midnightblue" stroke="midnightblue" points="1722.18,-234.29 1712.6,-238.82 1722.92,-241.25 1722.18,-234.29"/>
</g>
<!-- Node29 -->
<g id="node29" class="node">
<title>Node29</title>
<g id="a_node29"><a xlink:href="YarpSensorBridge_8h.html" target="_top" xlink:title=" ">
<polygon fill="none" stroke="black" points="2407.5,-156.5 2407.5,-197.5 2597.5,-197.5 2597.5,-156.5 2407.5,-156.5"/>
<text text-anchor="start" x="2415.5" y="-185.5" font-family="Helvetica,sans-Serif" font-size="10.00">RobotInterface/YarpImplementation</text>
<text text-anchor="start" x="2415.5" y="-174.5" font-family="Helvetica,sans-Serif" font-size="10.00">/include/BipedalLocomotion</text>
<text text-anchor="middle" x="2502.5" y="-163.5" font-family="Helvetica,sans-Serif" font-size="10.00">/RobotInterface/YarpSensorBridge.h</text>
</a>
</g>
</g>
<!-- Node1&#45;&gt;Node29 -->
<g id="edge32" class="edge">
<title>Node1&#45;&gt;Node29</title>
<path fill="none" stroke="midnightblue" d="M1722.8,-241.46C1855.97,-232.31 2093.49,-215.41 2296.5,-198 2332.75,-194.89 2372.55,-191.11 2407.42,-187.68"/>
<polygon fill="midnightblue" stroke="midnightblue" points="1722.34,-237.98 1712.6,-242.16 1722.82,-244.97 1722.34,-237.98"/>
</g>
<!-- Node32 -->
<g id="node32" class="node">
<title>Node32</title>
<g id="a_node32"><a xlink:href="TaskSpaceInverseDynamics_8h.html" target="_top" xlink:title=" ">
<polygon fill="none" stroke="black" points="2666.5,-162 2666.5,-192 2856.5,-192 2856.5,-162 2666.5,-162"/>
<text text-anchor="start" x="2674.5" y="-180" font-family="Helvetica,sans-Serif" font-size="10.00">TSID/include/BipedalLocomotion</text>
<text text-anchor="middle" x="2761.5" y="-169" font-family="Helvetica,sans-Serif" font-size="10.00">/TSID/TaskSpaceInverseDynamics.h</text>
</a>
</g>
</g>
<!-- Node1&#45;&gt;Node32 -->
<g id="edge35" class="edge">
<title>Node1&#45;&gt;Node32</title>
<path fill="none" stroke="midnightblue" d="M1722.68,-245.82C1903.03,-240.59 2285,-226.92 2606.5,-198 2625.82,-196.26 2646.44,-193.94 2666.13,-191.48"/>
<polygon fill="midnightblue" stroke="midnightblue" points="1722.56,-242.32 1712.67,-246.11 1722.76,-249.32 1722.56,-242.32"/>
</g>
<!-- Node3 -->
<g id="node3" class="node">
<title>Node3</title>
<g id="a_node3"><a xlink:href="SchmittTriggerDetector_8h.html" target="_top" xlink:title=" ">
<polygon fill="none" stroke="black" points="0,-73 0,-114 161,-114 161,-73 0,-73"/>
<text text-anchor="start" x="8" y="-102" font-family="Helvetica,sans-Serif" font-size="10.00">Contacts/include/Bipedal</text>
<text text-anchor="start" x="8" y="-91" font-family="Helvetica,sans-Serif" font-size="10.00">Locomotion/ContactDetectors</text>
<text text-anchor="middle" x="80.5" y="-80" font-family="Helvetica,sans-Serif" font-size="10.00">/SchmittTriggerDetector.h</text>
</a>
</g>
</g>
<!-- Node2&#45;&gt;Node3 -->
<g id="edge2" class="edge">
<title>Node2&#45;&gt;Node3</title>
<path fill="none" stroke="midnightblue" d="M214.17,-152.45C186.05,-140.26 152.12,-125.55 125.49,-114"/>
<polygon fill="midnightblue" stroke="midnightblue" points="212.9,-155.71 223.47,-156.48 215.69,-149.29 212.9,-155.71"/>
</g>
<!-- Node5 -->
<g id="node5" class="node">
<title>Node5</title>
<g id="a_node5"><a xlink:href="ContactDetector_8cpp.html" target="_top" xlink:title=" ">
<polygon fill="none" stroke="black" points="179,-84 179,-103 358,-103 358,-84 179,-84"/>
<text text-anchor="middle" x="268.5" y="-91" font-family="Helvetica,sans-Serif" font-size="10.00">Contacts/src/ContactDetector.cpp</text>
</a>
</g>
</g>
<!-- Node2&#45;&gt;Node5 -->
<g id="edge4" class="edge">
<title>Node2&#45;&gt;Node5</title>
<path fill="none" stroke="midnightblue" d="M268.5,-146.14C268.5,-130.83 268.5,-113.31 268.5,-103.12"/>
<polygon fill="midnightblue" stroke="midnightblue" points="265,-146.27 268.5,-156.27 272,-146.27 265,-146.27"/>
</g>
<!-- Node4 -->
<g id="node4" class="node">
<title>Node4</title>
<g id="a_node4"><a xlink:href="SchmittTriggerDetector_8cpp.html" target="_top" xlink:title=" ">
<polygon fill="none" stroke="black" points="5.5,-0.5 5.5,-30.5 155.5,-30.5 155.5,-0.5 5.5,-0.5"/>
<text text-anchor="start" x="13.5" y="-18.5" font-family="Helvetica,sans-Serif" font-size="10.00">Contacts/src/SchmittTrigger</text>
<text text-anchor="middle" x="80.5" y="-7.5" font-family="Helvetica,sans-Serif" font-size="10.00">Detector.cpp</text>
</a>
</g>
</g>
<!-- Node3&#45;&gt;Node4 -->
<g id="edge3" class="edge">
<title>Node3&#45;&gt;Node4</title>
<path fill="none" stroke="midnightblue" d="M80.5,-62.78C80.5,-51.75 80.5,-39.75 80.5,-30.73"/>
<polygon fill="midnightblue" stroke="midnightblue" points="77,-62.93 80.5,-72.93 84,-62.93 77,-62.93"/>
</g>
<!-- Node7 -->
<g id="node7" class="node">
<title>Node7</title>
<g id="a_node7"><a xlink:href="RecursiveLeastSquare_8cpp.html" target="_top" xlink:title=" ">
<polygon fill="none" stroke="black" points="376,-78.5 376,-108.5 513,-108.5 513,-78.5 376,-78.5"/>
<text text-anchor="start" x="384" y="-96.5" font-family="Helvetica,sans-Serif" font-size="10.00">Estimators/src/Recursive</text>
<text text-anchor="middle" x="444.5" y="-85.5" font-family="Helvetica,sans-Serif" font-size="10.00">LeastSquare.cpp</text>
</a>
</g>
</g>
<!-- Node6&#45;&gt;Node7 -->
<g id="edge6" class="edge">
<title>Node6&#45;&gt;Node7</title>
<path fill="none" stroke="midnightblue" d="M504.49,-149.43C489.67,-135.86 472.23,-119.9 459.99,-108.68"/>
<polygon fill="midnightblue" stroke="midnightblue" points="502.22,-152.1 511.96,-156.27 506.94,-146.94 502.22,-152.1"/>
</g>
<!-- Node9 -->
<g id="node9" class="node">
<title>Node9</title>
<g id="a_node9"><a xlink:href="InvariantEKFBaseEstimator_8h.html" target="_top" xlink:title=" ">
<polygon fill="none" stroke="black" points="531.5,-67.5 531.5,-119.5 713.5,-119.5 713.5,-67.5 531.5,-67.5"/>
<text text-anchor="start" x="539.5" y="-107.5" font-family="Helvetica,sans-Serif" font-size="10.00">Estimators/include</text>
<text text-anchor="start" x="539.5" y="-96.5" font-family="Helvetica,sans-Serif" font-size="10.00">/BipedalLocomotion/Floating</text>
<text text-anchor="start" x="539.5" y="-85.5" font-family="Helvetica,sans-Serif" font-size="10.00">BaseEstimators/InvariantEKFBase</text>
<text text-anchor="middle" x="622.5" y="-74.5" font-family="Helvetica,sans-Serif" font-size="10.00">Estimator.h</text>
</a>
</g>
</g>
<!-- Node8&#45;&gt;Node9 -->
<g id="edge8" class="edge">
<title>Node8&#45;&gt;Node9</title>
<path fill="none" stroke="midnightblue" d="M828.77,-153.69C791.87,-143.11 747.64,-130.41 709.62,-119.5"/>
<polygon fill="midnightblue" stroke="midnightblue" points="827.9,-157.08 838.47,-156.48 829.83,-150.36 827.9,-157.08"/>
</g>
<!-- Node11 -->
<g id="node11" class="node">
<title>Node11</title>
<g id="a_node11"><a xlink:href="LeggedOdometry_8h.html" target="_top" xlink:title=" ">
<polygon fill="none" stroke="black" points="731.5,-73 731.5,-114 919.5,-114 919.5,-73 731.5,-73"/>
<text text-anchor="start" x="739.5" y="-102" font-family="Helvetica,sans-Serif" font-size="10.00">Estimators/include</text>
<text text-anchor="start" x="739.5" y="-91" font-family="Helvetica,sans-Serif" font-size="10.00">/BipedalLocomotion/Floating</text>
<text text-anchor="middle" x="825.5" y="-80" font-family="Helvetica,sans-Serif" font-size="10.00">BaseEstimators/LeggedOdometry.h</text>
</a>
</g>
</g>
<!-- Node8&#45;&gt;Node11 -->
<g id="edge10" class="edge">
<title>Node8&#45;&gt;Node11</title>
<path fill="none" stroke="midnightblue" d="M879.7,-149.04C868.34,-137.6 855.34,-124.53 844.93,-114.05"/>
<polygon fill="midnightblue" stroke="midnightblue" points="877.36,-151.65 886.89,-156.27 882.33,-146.71 877.36,-151.65"/>
</g>
<!-- Node13 -->
<g id="node13" class="node">
<title>Node13</title>
<g id="a_node13"><a xlink:href="FloatingBaseEstimator_8cpp.html" target="_top" xlink:title=" ">
<polygon fill="none" stroke="black" points="938,-78.5 938,-108.5 1091,-108.5 1091,-78.5 938,-78.5"/>
<text text-anchor="start" x="946" y="-96.5" font-family="Helvetica,sans-Serif" font-size="10.00">Estimators/src/FloatingBase</text>
<text text-anchor="middle" x="1014.5" y="-85.5" font-family="Helvetica,sans-Serif" font-size="10.00">Estimator.cpp</text>
</a>
</g>
</g>
<!-- Node8&#45;&gt;Node13 -->
<g id="edge12" class="edge">
<title>Node8&#45;&gt;Node13</title>
<path fill="none" stroke="midnightblue" d="M940.5,-150.34C958.83,-136.51 980.74,-119.97 995.94,-108.5"/>
<polygon fill="midnightblue" stroke="midnightblue" points="938.24,-147.66 932.37,-156.48 942.46,-153.25 938.24,-147.66"/>
</g>
<!-- Node10 -->
<g id="node10" class="node">
<title>Node10</title>
<g id="a_node10"><a xlink:href="InvariantEKFBaseEstimator_8cpp.html" target="_top" xlink:title=" ">
<polygon fill="none" stroke="black" points="556,-0.5 556,-30.5 689,-30.5 689,-0.5 556,-0.5"/>
<text text-anchor="start" x="564" y="-18.5" font-family="Helvetica,sans-Serif" font-size="10.00">Estimators/src/Invariant</text>
<text text-anchor="middle" x="622.5" y="-7.5" font-family="Helvetica,sans-Serif" font-size="10.00">EKFBaseEstimator.cpp</text>
</a>
</g>
</g>
<!-- Node9&#45;&gt;Node10 -->
<g id="edge9" class="edge">
<title>Node9&#45;&gt;Node10</title>
<path fill="none" stroke="midnightblue" d="M622.5,-56.96C622.5,-47.72 622.5,-38.28 622.5,-30.85"/>
<polygon fill="midnightblue" stroke="midnightblue" points="619,-57.19 622.5,-67.19 626,-57.19 619,-57.19"/>
</g>
<!-- Node12 -->
<g id="node12" class="node">
<title>Node12</title>
<g id="a_node12"><a xlink:href="LeggedOdometry_8cpp.html" target="_top" xlink:title=" ">
<polygon fill="none" stroke="black" points="729.5,-6 729.5,-25 921.5,-25 921.5,-6 729.5,-6"/>
<text text-anchor="middle" x="825.5" y="-13" font-family="Helvetica,sans-Serif" font-size="10.00">Estimators/src/LeggedOdometry.cpp</text>
</a>
</g>
</g>
<!-- Node11&#45;&gt;Node12 -->
<g id="edge11" class="edge">
<title>Node11&#45;&gt;Node12</title>
<path fill="none" stroke="midnightblue" d="M825.5,-62.55C825.5,-49.06 825.5,-34.15 825.5,-25.05"/>
<polygon fill="midnightblue" stroke="midnightblue" points="822,-62.93 825.5,-72.93 829,-62.93 822,-62.93"/>
</g>
<!-- Node15 -->
<g id="node15" class="node">
<title>Node15</title>
<g id="a_node15"><a xlink:href="QPInverseKinematics_8h.html" target="_top" xlink:title=" ">
<polygon fill="none" stroke="black" points="1109,-78.5 1109,-108.5 1270,-108.5 1270,-78.5 1109,-78.5"/>
<text text-anchor="start" x="1117" y="-96.5" font-family="Helvetica,sans-Serif" font-size="10.00">IK/include/BipedalLocomotion</text>
<text text-anchor="middle" x="1189.5" y="-85.5" font-family="Helvetica,sans-Serif" font-size="10.00">/IK/QPInverseKinematics.h</text>
</a>
</g>
</g>
<!-- Node14&#45;&gt;Node15 -->
<g id="edge14" class="edge">
<title>Node14&#45;&gt;Node15</title>
<path fill="none" stroke="midnightblue" d="M1192.31,-151.78C1191.62,-137.68 1190.77,-120.4 1190.19,-108.53"/>
<polygon fill="midnightblue" stroke="midnightblue" points="1188.82,-151.99 1192.8,-161.8 1195.81,-151.64 1188.82,-151.99"/>
</g>
<!-- Node16 -->
<g id="node16" class="node">
<title>Node16</title>
<g id="a_node16"><a xlink:href="QPInverseKinematics_8cpp.html" target="_top" xlink:title=" ">
<polygon fill="none" stroke="black" points="1104,-6 1104,-25 1275,-25 1275,-6 1104,-6"/>
<text text-anchor="middle" x="1189.5" y="-13" font-family="Helvetica,sans-Serif" font-size="10.00">IK/src/QPInverseKinematics.cpp</text>
</a>
</g>
</g>
<!-- Node15&#45;&gt;Node16 -->
<g id="edge15" class="edge">
<title>Node15&#45;&gt;Node16</title>
<path fill="none" stroke="midnightblue" d="M1189.5,-68.17C1189.5,-53.4 1189.5,-35.45 1189.5,-25.06"/>
<polygon fill="midnightblue" stroke="midnightblue" points="1186,-68.2 1189.5,-78.2 1193,-68.21 1186,-68.2"/>
</g>
<!-- Node18 -->
<g id="node18" class="node">
<title>Node18</title>
<g id="a_node18"><a xlink:href="ArucoDetector_8cpp.html" target="_top" xlink:title=" ">
<polygon fill="none" stroke="black" points="1288.5,-84 1288.5,-103 1466.5,-103 1466.5,-84 1288.5,-84"/>
<text text-anchor="middle" x="1377.5" y="-91" font-family="Helvetica,sans-Serif" font-size="10.00">Perception/src/ArucoDetector.cpp</text>
</a>
</g>
</g>
<!-- Node17&#45;&gt;Node18 -->
<g id="edge17" class="edge">
<title>Node17&#45;&gt;Node18</title>
<path fill="none" stroke="midnightblue" d="M1378.13,-146.14C1377.95,-130.83 1377.73,-113.31 1377.61,-103.12"/>
<polygon fill="midnightblue" stroke="midnightblue" points="1374.64,-146.31 1378.26,-156.27 1381.63,-146.23 1374.64,-146.31"/>
</g>
<!-- Node20 -->
<g id="node20" class="node">
<title>Node20</title>
<g id="a_node20"><a xlink:href="TimeVaryingDCMPlanner_8h.html" target="_top" xlink:title=" ">
<polygon fill="none" stroke="black" points="1485,-73 1485,-114 1668,-114 1668,-73 1485,-73"/>
<text text-anchor="start" x="1493" y="-102" font-family="Helvetica,sans-Serif" font-size="10.00">Planners/include/Bipedal</text>
<text text-anchor="start" x="1493" y="-91" font-family="Helvetica,sans-Serif" font-size="10.00">Locomotion/Planners/TimeVarying</text>
<text text-anchor="middle" x="1576.5" y="-80" font-family="Helvetica,sans-Serif" font-size="10.00">DCMPlanner.h</text>
</a>
</g>
</g>
<!-- Node19&#45;&gt;Node20 -->
<g id="edge19" class="edge">
<title>Node19&#45;&gt;Node20</title>
<path fill="none" stroke="midnightblue" d="M1606.47,-152.66C1600.17,-140.44 1592.55,-125.64 1586.56,-114.03"/>
<polygon fill="midnightblue" stroke="midnightblue" points="1603.49,-154.52 1611.18,-161.8 1609.71,-151.31 1603.49,-154.52"/>
</g>
<!-- Node22 -->
<g id="node22" class="node">
<title>Node22</title>
<g id="a_node22"><a xlink:href="DCMPlanner_8cpp.html" target="_top" xlink:title=" ">
<polygon fill="none" stroke="black" points="1686.5,-84 1686.5,-103 1844.5,-103 1844.5,-84 1686.5,-84"/>
<text text-anchor="middle" x="1765.5" y="-91" font-family="Helvetica,sans-Serif" font-size="10.00">Planners/src/DCMPlanner.cpp</text>
</a>
</g>
</g>
<!-- Node19&#45;&gt;Node22 -->
<g id="edge21" class="edge">
<title>Node19&#45;&gt;Node22</title>
<path fill="none" stroke="midnightblue" d="M1652.85,-156.96C1683.54,-139.94 1727.1,-115.79 1750.02,-103.08"/>
<polygon fill="midnightblue" stroke="midnightblue" points="1650.82,-154.08 1643.77,-161.99 1654.21,-160.2 1650.82,-154.08"/>
</g>
<!-- Node21 -->
<g id="node21" class="node">
<title>Node21</title>
<g id="a_node21"><a xlink:href="TimeVaryingDCMPlanner_8cpp.html" target="_top" xlink:title=" ">
<polygon fill="none" stroke="black" points="1654.5,-0.5 1654.5,-30.5 1794.5,-30.5 1794.5,-0.5 1654.5,-0.5"/>
<text text-anchor="start" x="1662.5" y="-18.5" font-family="Helvetica,sans-Serif" font-size="10.00">Planners/src/TimeVarying</text>
<text text-anchor="middle" x="1724.5" y="-7.5" font-family="Helvetica,sans-Serif" font-size="10.00">DCMPlanner.cpp</text>
</a>
</g>
</g>
<!-- Node20&#45;&gt;Node21 -->
<g id="edge20" class="edge">
<title>Node20&#45;&gt;Node21</title>
<path fill="none" stroke="midnightblue" d="M1623.61,-68.31C1647.72,-55.93 1676.24,-41.28 1696.8,-30.73"/>
<polygon fill="midnightblue" stroke="midnightblue" points="1621.91,-65.25 1614.61,-72.93 1625.11,-71.47 1621.91,-65.25"/>
</g>
<!-- Node23&#45;&gt;Node21 -->
<g id="edge26" class="edge">
<title>Node23&#45;&gt;Node21</title>
<path fill="none" stroke="midnightblue" d="M1883.64,-151.54C1881.52,-127.25 1874.72,-90.36 1853.5,-67 1837.65,-49.55 1815.03,-38.06 1793.15,-30.53"/>
<polygon fill="midnightblue" stroke="midnightblue" points="1880.16,-151.97 1884.32,-161.72 1887.14,-151.5 1880.16,-151.97"/>
</g>
<!-- Node23&#45;&gt;Node24 -->
<g id="edge23" class="edge">
<title>Node23&#45;&gt;Node24</title>
<path fill="none" stroke="midnightblue" d="M1943.08,-159.19C1988.81,-146.07 2052.41,-127.81 2100.41,-114.04"/>
<polygon fill="midnightblue" stroke="midnightblue" points="1941.97,-155.87 1933.32,-161.99 1943.9,-162.6 1941.97,-155.87"/>
</g>
<!-- Node26 -->
<g id="node26" class="node">
<title>Node26</title>
<g id="a_node26"><a xlink:href="QuinticSpline_8cpp.html" target="_top" xlink:title=" ">
<polygon fill="none" stroke="black" points="1900.5,-84 1900.5,-103 2064.5,-103 2064.5,-84 1900.5,-84"/>
<text text-anchor="middle" x="1982.5" y="-91" font-family="Helvetica,sans-Serif" font-size="10.00">Planners/src/QuinticSpline.cpp</text>
</a>
</g>
</g>
<!-- Node23&#45;&gt;Node26 -->
<g id="edge25" class="edge">
<title>Node23&#45;&gt;Node26</title>
<path fill="none" stroke="midnightblue" d="M1909.5,-155.21C1929.83,-138.3 1957.48,-115.31 1972.23,-103.04"/>
<polygon fill="midnightblue" stroke="midnightblue" points="1907.02,-152.72 1901.57,-161.8 1911.5,-158.1 1907.02,-152.72"/>
</g>
<!-- Node25 -->
<g id="node25" class="node">
<title>Node25</title>
<g id="a_node25"><a xlink:href="SwingFootPlanner_8cpp.html" target="_top" xlink:title=" ">
<polygon fill="none" stroke="black" points="2076,-6 2076,-25 2261,-25 2261,-6 2076,-6"/>
<text text-anchor="middle" x="2168.5" y="-13" font-family="Helvetica,sans-Serif" font-size="10.00">Planners/src/SwingFootPlanner.cpp</text>
</a>
</g>
</g>
<!-- Node24&#45;&gt;Node25 -->
<g id="edge24" class="edge">
<title>Node24&#45;&gt;Node25</title>
<path fill="none" stroke="midnightblue" d="M2168.5,-62.55C2168.5,-49.06 2168.5,-34.15 2168.5,-25.05"/>
<polygon fill="midnightblue" stroke="midnightblue" points="2165,-62.93 2168.5,-72.93 2172,-62.93 2165,-62.93"/>
</g>
<!-- Node27&#45;&gt;Node24 -->
<g id="edge30" class="edge">
<title>Node27&#45;&gt;Node24</title>
<path fill="none" stroke="midnightblue" d="M2186.82,-151.93C2182.97,-139.85 2178.36,-125.41 2174.73,-114.03"/>
<polygon fill="midnightblue" stroke="midnightblue" points="2183.6,-153.34 2189.97,-161.8 2190.27,-151.21 2183.6,-153.34"/>
</g>
<!-- Node28 -->
<g id="node28" class="node">
<title>Node28</title>
<g id="a_node28"><a xlink:href="SO3Planner_8tpp.html" target="_top" xlink:title=" ">
<polygon fill="none" stroke="black" points="2272.5,-78.5 2272.5,-108.5 2468.5,-108.5 2468.5,-78.5 2272.5,-78.5"/>
<text text-anchor="start" x="2280.5" y="-96.5" font-family="Helvetica,sans-Serif" font-size="10.00">Planners/include/Bipedal</text>
<text text-anchor="middle" x="2370.5" y="-85.5" font-family="Helvetica,sans-Serif" font-size="10.00">Locomotion/Planners/SO3Planner.tpp</text>
</a>
</g>
</g>
<!-- Node27&#45;&gt;Node28 -->
<g id="edge28" class="edge">
<title>Node27&#45;&gt;Node28</title>
<path fill="none" stroke="midnightblue" d="M2228.53,-157.58C2259.11,-142.73 2303.7,-122.16 2334.8,-108.6"/>
<polygon fill="midnightblue" stroke="midnightblue" points="2226.96,-154.45 2219.51,-161.99 2230.03,-160.74 2226.96,-154.45"/>
</g>
<!-- Node28&#45;&gt;Node27 -->
<g id="edge29" class="edge">
<title>Node28&#45;&gt;Node27</title>
<path fill="none" stroke="midnightblue" d="M2336.27,-113.02C2305.62,-127.89 2261.03,-148.46 2230,-161.99"/>
<polygon fill="midnightblue" stroke="midnightblue" points="2337.86,-116.14 2345.3,-108.6 2334.78,-109.85 2337.86,-116.14"/>
</g>
<!-- Node30 -->
<g id="node30" class="node">
<title>Node30</title>
<g id="a_node30"><a xlink:href="YarpSensorBridgeImpl_8h.html" target="_top" xlink:title=" ">
<polygon fill="none" stroke="black" points="2486.5,-73 2486.5,-114 2696.5,-114 2696.5,-73 2486.5,-73"/>
<text text-anchor="start" x="2494.5" y="-102" font-family="Helvetica,sans-Serif" font-size="10.00">RobotInterface/YarpImplementation</text>
<text text-anchor="start" x="2494.5" y="-91" font-family="Helvetica,sans-Serif" font-size="10.00">/include/BipedalLocomotion</text>
<text text-anchor="middle" x="2591.5" y="-80" font-family="Helvetica,sans-Serif" font-size="10.00">/RobotInterface/YarpSensorBridgeImpl.h</text>
</a>
</g>
</g>
<!-- Node29&#45;&gt;Node30 -->
<g id="edge33" class="edge">
<title>Node29&#45;&gt;Node30</title>
<path fill="none" stroke="midnightblue" d="M2531.59,-149.36C2544.16,-137.85 2558.6,-124.63 2570.15,-114.05"/>
<polygon fill="midnightblue" stroke="midnightblue" points="2529.06,-146.94 2524.04,-156.27 2533.78,-152.1 2529.06,-146.94"/>
</g>
<!-- Node31 -->
<g id="node31" class="node">
<title>Node31</title>
<g id="a_node31"><a xlink:href="YarpSensorBridge_8cpp.html" target="_top" xlink:title=" ">
<polygon fill="none" stroke="black" points="2496.5,-0.5 2496.5,-30.5 2686.5,-30.5 2686.5,-0.5 2496.5,-0.5"/>
<text text-anchor="start" x="2504.5" y="-18.5" font-family="Helvetica,sans-Serif" font-size="10.00">RobotInterface/YarpImplementation</text>
<text text-anchor="middle" x="2591.5" y="-7.5" font-family="Helvetica,sans-Serif" font-size="10.00">/src/YarpSensorBridge.cpp</text>
</a>
</g>
</g>
<!-- Node30&#45;&gt;Node31 -->
<g id="edge34" class="edge">
<title>Node30&#45;&gt;Node31</title>
<path fill="none" stroke="midnightblue" d="M2591.5,-62.78C2591.5,-51.75 2591.5,-39.75 2591.5,-30.73"/>
<polygon fill="midnightblue" stroke="midnightblue" points="2588,-62.93 2591.5,-72.93 2595,-62.93 2588,-62.93"/>
</g>
<!-- Node33 -->
<g id="node33" class="node">
<title>Node33</title>
<g id="a_node33"><a xlink:href="TaskSpaceInverseDynamics_8cpp.html" target="_top" xlink:title=" ">
<polygon fill="none" stroke="black" points="2714.5,-78.5 2714.5,-108.5 2860.5,-108.5 2860.5,-78.5 2714.5,-78.5"/>
<text text-anchor="start" x="2722.5" y="-96.5" font-family="Helvetica,sans-Serif" font-size="10.00">TSID/src/TaskSpaceInverse</text>
<text text-anchor="middle" x="2787.5" y="-85.5" font-family="Helvetica,sans-Serif" font-size="10.00">Dynamics.cpp</text>
</a>
</g>
</g>
<!-- Node32&#45;&gt;Node33 -->
<g id="edge36" class="edge">
<title>Node32&#45;&gt;Node33</title>
<path fill="none" stroke="midnightblue" d="M2769.09,-152.2C2773.62,-138.02 2779.2,-120.52 2783.02,-108.53"/>
<polygon fill="midnightblue" stroke="midnightblue" points="2765.73,-151.21 2766.03,-161.8 2772.4,-153.34 2765.73,-151.21"/>
</g>
</g>
</svg>
        <g id="navigator" transform="translate(0 0)" fill="#404254">
                <rect fill="#f2f5e9" fill-opacity="0.5" stroke="#606060" stroke-width=".5" x="0" y="0" width="60" height="60"/>
                <use id="zoomplus" xlink:href="#zoomPlus" x="17" y="9" onmousedown="handleZoom(evt,'in')"/>
                <use id="zoomminus" xlink:href="#zoomMin" x="42" y="9" onmousedown="handleZoom(evt,'out')"/>
                <use id="reset" xlink:href="#resetDef" x="30" y="36" onmousedown="handleReset()"/>
                <g id="arrowUp" xlink:href="#dirArrow" transform="translate(30 24)" onmousedown="handlePan(0,-1)">
                  <use xlink:href="#rim" fill="#404040">
                        <set attributeName="fill" to="#808080" begin="arrowUp.mouseover" end="arrowUp.mouseout"/>
                  </use>
                  <path fill="none" stroke="white" stroke-width="1.5" d="M0,-3.0v7 M-2.5,-0.5L0,-3.0L2.5,-0.5"/>
                </g>
                <g id="arrowRight" xlink:href="#dirArrow" transform="rotate(90) translate(36 -43)" onmousedown="handlePan(1,0)">
                  <use xlink:href="#rim" fill="#404040">
                        <set attributeName="fill" to="#808080" begin="arrowRight.mouseover" end="arrowRight.mouseout"/>
                  </use>
                  <path fill="none" stroke="white" stroke-width="1.5" d="M0,-3.0v7 M-2.5,-0.5L0,-3.0L2.5,-0.5"/>
                </g>
                <g id="arrowDown" xlink:href="#dirArrow" transform="rotate(180) translate(-30 -48)" onmousedown="handlePan(0,1)">
                  <use xlink:href="#rim" fill="#404040">
                        <set attributeName="fill" to="#808080" begin="arrowDown.mouseover" end="arrowDown.mouseout"/>
                  </use>
                  <path fill="none" stroke="white" stroke-width="1.5" d="M0,-3.0v7 M-2.5,-0.5L0,-3.0L2.5,-0.5"/>
                </g>
                <g id="arrowLeft" xlink:href="#dirArrow" transform="rotate(270) translate(-36 17)" onmousedown="handlePan(-1,0)">
                  <use xlink:href="#rim" fill="#404040">
                        <set attributeName="fill" to="#808080" begin="arrowLeft.mouseover" end="arrowLeft.mouseout"/>
                  </use>
                  <path fill="none" stroke="white" stroke-width="1.5" d="M0,-3.0v7 M-2.5,-0.5L0,-3.0L2.5,-0.5"/>
                </g>
        </g>
        <svg viewBox="0 0 15 15" width="100%" height="30px" preserveAspectRatio="xMaxYMin meet">
         <g id="arrow_out" transform="scale(0.3 0.3)">
          <a xlink:href="Source_8h__dep__incl_org.svg" target="_base">
           <rect id="button" ry="5" rx="5" y="6" x="6" height="38" width="38"
                fill="#f2f5e9" fill-opacity="0.5" stroke="#606060" stroke-width="1.0"/>
           <path id="arrow"
             d="M 11.500037,31.436501 C 11.940474,20.09759 22.043105,11.32322 32.158766,21.979434 L 37.068811,17.246167 C 37.068811,17.246167 37.088388,32 37.088388,32 L 22.160133,31.978069 C 22.160133,31.978069 26.997745,27.140456 26.997745,27.140456 C 18.528582,18.264221 13.291696,25.230495 11.500037,31.436501 z"
             style="fill:#404040;"/>
          </a>
         </g>
        </svg>
</svg>
